G04 #@! TF.GenerationSoftware,KiCad,Pcbnew,(5.1.6)-1*
G04 #@! TF.CreationDate,2020-06-15T08:38:09-05:00*
G04 #@! TF.ProjectId,RPi_MotorAudio_Board,5250695f-4d6f-4746-9f72-417564696f5f,rev?*
G04 #@! TF.SameCoordinates,Original*
G04 #@! TF.FileFunction,Soldermask,Bot*
G04 #@! TF.FilePolarity,Negative*
%FSLAX46Y46*%
G04 Gerber Fmt 4.6, Leading zero omitted, Abs format (unit mm)*
G04 Created by KiCad (PCBNEW (5.1.6)-1) date 2020-06-15 08:38:09*
%MOMM*%
%LPD*%
G01*
G04 APERTURE LIST*
%ADD10R,3.100000X3.100000*%
%ADD11C,3.100000*%
%ADD12C,1.300000*%
%ADD13O,1.408000X2.716000*%
%ADD14O,2.716000X1.408000*%
%ADD15C,2.800000*%
%ADD16R,1.800000X1.800000*%
%ADD17O,1.800000X1.800000*%
G04 APERTURE END LIST*
D10*
X260325000Y-106185000D03*
D11*
X260325000Y-111265000D03*
D12*
X225955000Y-125870000D03*
X225955000Y-128370000D03*
X220955000Y-120870000D03*
X215955000Y-125870000D03*
X215955000Y-128370000D03*
D13*
X215955000Y-120870000D03*
X225955000Y-120870000D03*
D14*
X220955000Y-125870000D03*
D15*
X261500000Y-146500000D03*
X261500000Y-97500000D03*
X203500000Y-97500000D03*
D10*
X260325000Y-123965000D03*
D11*
X260325000Y-118885000D03*
D10*
X260325000Y-132220000D03*
D11*
X260325000Y-137300000D03*
D16*
X208370000Y-98770000D03*
D17*
X208370000Y-96230000D03*
X210910000Y-98770000D03*
X210910000Y-96230000D03*
X213450000Y-98770000D03*
X213450000Y-96230000D03*
X215990000Y-98770000D03*
X215990000Y-96230000D03*
X218530000Y-98770000D03*
X218530000Y-96230000D03*
X221070000Y-98770000D03*
X221070000Y-96230000D03*
X223610000Y-98770000D03*
X223610000Y-96230000D03*
X226150000Y-98770000D03*
X226150000Y-96230000D03*
X228690000Y-98770000D03*
X228690000Y-96230000D03*
X231230000Y-98770000D03*
X231230000Y-96230000D03*
X233770000Y-98770000D03*
X233770000Y-96230000D03*
X236310000Y-98770000D03*
X236310000Y-96230000D03*
X238850000Y-98770000D03*
X238850000Y-96230000D03*
X241390000Y-98770000D03*
X241390000Y-96230000D03*
X243930000Y-98770000D03*
X243930000Y-96230000D03*
X246470000Y-98770000D03*
X246470000Y-96230000D03*
X249010000Y-98770000D03*
X249010000Y-96230000D03*
X251550000Y-98770000D03*
X251550000Y-96230000D03*
X254090000Y-98770000D03*
X254090000Y-96230000D03*
X256630000Y-98770000D03*
X256630000Y-96230000D03*
M02*
