G04 #@! TF.GenerationSoftware,KiCad,Pcbnew,(5.1.6)-1*
G04 #@! TF.CreationDate,2020-06-15T08:38:09-05:00*
G04 #@! TF.ProjectId,RPi_MotorAudio_Board,5250695f-4d6f-4746-9f72-417564696f5f,rev?*
G04 #@! TF.SameCoordinates,Original*
G04 #@! TF.FileFunction,Legend,Top*
G04 #@! TF.FilePolarity,Positive*
%FSLAX46Y46*%
G04 Gerber Fmt 4.6, Leading zero omitted, Abs format (unit mm)*
G04 Created by KiCad (PCBNEW (5.1.6)-1) date 2020-06-15 08:38:09*
%MOMM*%
%LPD*%
G01*
G04 APERTURE LIST*
%ADD10C,0.250000*%
%ADD11C,0.150000*%
%ADD12C,0.120000*%
%ADD13C,0.340000*%
%ADD14C,0.127000*%
G04 APERTURE END LIST*
D10*
X202905238Y-115518809D02*
X202810000Y-115423571D01*
X202714761Y-115233095D01*
X202714761Y-114756904D01*
X202810000Y-114566428D01*
X202905238Y-114471190D01*
X203095714Y-114375952D01*
X203286190Y-114375952D01*
X203571904Y-114471190D01*
X204714761Y-115614047D01*
X204714761Y-114375952D01*
X204714761Y-113709285D02*
X203381428Y-112661666D01*
X203381428Y-113709285D02*
X204714761Y-112661666D01*
X202810000Y-109328333D02*
X202714761Y-109518809D01*
X202714761Y-109804523D01*
X202810000Y-110090238D01*
X203000476Y-110280714D01*
X203190952Y-110375952D01*
X203571904Y-110471190D01*
X203857619Y-110471190D01*
X204238571Y-110375952D01*
X204429047Y-110280714D01*
X204619523Y-110090238D01*
X204714761Y-109804523D01*
X204714761Y-109614047D01*
X204619523Y-109328333D01*
X204524285Y-109233095D01*
X203857619Y-109233095D01*
X203857619Y-109614047D01*
X204143333Y-108471190D02*
X204143333Y-107518809D01*
X204714761Y-108661666D02*
X202714761Y-107995000D01*
X204714761Y-107328333D01*
X204714761Y-106661666D02*
X202714761Y-106661666D01*
X204714761Y-105709285D02*
X202714761Y-105709285D01*
X204714761Y-104566428D01*
X202714761Y-104566428D01*
D11*
X256515000Y-103645000D02*
X253975000Y-109995000D01*
X252070000Y-115710000D02*
X252705000Y-113805000D01*
X252070000Y-129680000D02*
X256515000Y-139840000D01*
X252070000Y-125870000D02*
X256515000Y-129680000D01*
X252070000Y-124600000D02*
X256515000Y-126505000D01*
X252070000Y-120790000D02*
X256515000Y-116345000D01*
X252070000Y-119520000D02*
X256515000Y-113805000D01*
D12*
X246990000Y-125870000D02*
X246990000Y-129680000D01*
X252070000Y-125870000D02*
X246990000Y-125870000D01*
X246990000Y-129680000D02*
X252070000Y-129680000D01*
X252070000Y-129680000D02*
X252070000Y-125870000D01*
X252070000Y-120790000D02*
X246990000Y-120790000D01*
X252070000Y-124600000D02*
X252070000Y-120790000D01*
X246990000Y-120790000D02*
X246990000Y-124600000D01*
X246990000Y-124600000D02*
X252070000Y-124600000D01*
X252070000Y-115710000D02*
X246990000Y-115710000D01*
X252070000Y-119520000D02*
X252070000Y-115710000D01*
X246990000Y-119520000D02*
X252070000Y-119520000D01*
X246990000Y-115710000D02*
X246990000Y-119520000D01*
D11*
X247696666Y-116848571D02*
X247839523Y-116896190D01*
X247887142Y-116943809D01*
X247934761Y-117039047D01*
X247934761Y-117181904D01*
X247887142Y-117277142D01*
X247839523Y-117324761D01*
X247744285Y-117372380D01*
X247363333Y-117372380D01*
X247363333Y-116372380D01*
X247696666Y-116372380D01*
X247791904Y-116420000D01*
X247839523Y-116467619D01*
X247887142Y-116562857D01*
X247887142Y-116658095D01*
X247839523Y-116753333D01*
X247791904Y-116800952D01*
X247696666Y-116848571D01*
X247363333Y-116848571D01*
X248553809Y-116372380D02*
X248744285Y-116372380D01*
X248839523Y-116420000D01*
X248934761Y-116515238D01*
X248982380Y-116705714D01*
X248982380Y-117039047D01*
X248934761Y-117229523D01*
X248839523Y-117324761D01*
X248744285Y-117372380D01*
X248553809Y-117372380D01*
X248458571Y-117324761D01*
X248363333Y-117229523D01*
X248315714Y-117039047D01*
X248315714Y-116705714D01*
X248363333Y-116515238D01*
X248458571Y-116420000D01*
X248553809Y-116372380D01*
X249410952Y-116372380D02*
X249410952Y-117181904D01*
X249458571Y-117277142D01*
X249506190Y-117324761D01*
X249601428Y-117372380D01*
X249791904Y-117372380D01*
X249887142Y-117324761D01*
X249934761Y-117277142D01*
X249982380Y-117181904D01*
X249982380Y-116372380D01*
X250315714Y-116372380D02*
X250887142Y-116372380D01*
X250601428Y-117372380D02*
X250601428Y-116372380D01*
X251744285Y-117372380D02*
X251172857Y-117372380D01*
X251458571Y-117372380D02*
X251458571Y-116372380D01*
X251363333Y-116515238D01*
X251268095Y-116610476D01*
X251172857Y-116658095D01*
X247696666Y-118498571D02*
X247839523Y-118546190D01*
X247887142Y-118593809D01*
X247934761Y-118689047D01*
X247934761Y-118831904D01*
X247887142Y-118927142D01*
X247839523Y-118974761D01*
X247744285Y-119022380D01*
X247363333Y-119022380D01*
X247363333Y-118022380D01*
X247696666Y-118022380D01*
X247791904Y-118070000D01*
X247839523Y-118117619D01*
X247887142Y-118212857D01*
X247887142Y-118308095D01*
X247839523Y-118403333D01*
X247791904Y-118450952D01*
X247696666Y-118498571D01*
X247363333Y-118498571D01*
X248553809Y-118022380D02*
X248744285Y-118022380D01*
X248839523Y-118070000D01*
X248934761Y-118165238D01*
X248982380Y-118355714D01*
X248982380Y-118689047D01*
X248934761Y-118879523D01*
X248839523Y-118974761D01*
X248744285Y-119022380D01*
X248553809Y-119022380D01*
X248458571Y-118974761D01*
X248363333Y-118879523D01*
X248315714Y-118689047D01*
X248315714Y-118355714D01*
X248363333Y-118165238D01*
X248458571Y-118070000D01*
X248553809Y-118022380D01*
X249410952Y-118022380D02*
X249410952Y-118831904D01*
X249458571Y-118927142D01*
X249506190Y-118974761D01*
X249601428Y-119022380D01*
X249791904Y-119022380D01*
X249887142Y-118974761D01*
X249934761Y-118927142D01*
X249982380Y-118831904D01*
X249982380Y-118022380D01*
X250315714Y-118022380D02*
X250887142Y-118022380D01*
X250601428Y-119022380D02*
X250601428Y-118022380D01*
X251172857Y-118117619D02*
X251220476Y-118070000D01*
X251315714Y-118022380D01*
X251553809Y-118022380D01*
X251649047Y-118070000D01*
X251696666Y-118117619D01*
X251744285Y-118212857D01*
X251744285Y-118308095D01*
X251696666Y-118450952D01*
X251125238Y-119022380D01*
X251744285Y-119022380D01*
X247387142Y-122036666D02*
X247863333Y-122036666D01*
X247291904Y-122322380D02*
X247625238Y-121322380D01*
X247958571Y-122322380D01*
X248482380Y-121322380D02*
X248672857Y-121322380D01*
X248768095Y-121370000D01*
X248863333Y-121465238D01*
X248910952Y-121655714D01*
X248910952Y-121989047D01*
X248863333Y-122179523D01*
X248768095Y-122274761D01*
X248672857Y-122322380D01*
X248482380Y-122322380D01*
X248387142Y-122274761D01*
X248291904Y-122179523D01*
X248244285Y-121989047D01*
X248244285Y-121655714D01*
X248291904Y-121465238D01*
X248387142Y-121370000D01*
X248482380Y-121322380D01*
X249339523Y-121322380D02*
X249339523Y-122131904D01*
X249387142Y-122227142D01*
X249434761Y-122274761D01*
X249530000Y-122322380D01*
X249720476Y-122322380D01*
X249815714Y-122274761D01*
X249863333Y-122227142D01*
X249910952Y-122131904D01*
X249910952Y-121322380D01*
X250244285Y-121322380D02*
X250815714Y-121322380D01*
X250530000Y-122322380D02*
X250530000Y-121322380D01*
X251101428Y-121417619D02*
X251149047Y-121370000D01*
X251244285Y-121322380D01*
X251482380Y-121322380D01*
X251577619Y-121370000D01*
X251625238Y-121417619D01*
X251672857Y-121512857D01*
X251672857Y-121608095D01*
X251625238Y-121750952D01*
X251053809Y-122322380D01*
X251672857Y-122322380D01*
X247387142Y-123686666D02*
X247863333Y-123686666D01*
X247291904Y-123972380D02*
X247625238Y-122972380D01*
X247958571Y-123972380D01*
X248482380Y-122972380D02*
X248672857Y-122972380D01*
X248768095Y-123020000D01*
X248863333Y-123115238D01*
X248910952Y-123305714D01*
X248910952Y-123639047D01*
X248863333Y-123829523D01*
X248768095Y-123924761D01*
X248672857Y-123972380D01*
X248482380Y-123972380D01*
X248387142Y-123924761D01*
X248291904Y-123829523D01*
X248244285Y-123639047D01*
X248244285Y-123305714D01*
X248291904Y-123115238D01*
X248387142Y-123020000D01*
X248482380Y-122972380D01*
X249339523Y-122972380D02*
X249339523Y-123781904D01*
X249387142Y-123877142D01*
X249434761Y-123924761D01*
X249530000Y-123972380D01*
X249720476Y-123972380D01*
X249815714Y-123924761D01*
X249863333Y-123877142D01*
X249910952Y-123781904D01*
X249910952Y-122972380D01*
X250244285Y-122972380D02*
X250815714Y-122972380D01*
X250530000Y-123972380D02*
X250530000Y-122972380D01*
X251672857Y-123972380D02*
X251101428Y-123972380D01*
X251387142Y-123972380D02*
X251387142Y-122972380D01*
X251291904Y-123115238D01*
X251196666Y-123210476D01*
X251101428Y-123258095D01*
X247506190Y-126986666D02*
X247982380Y-126986666D01*
X247410952Y-127272380D02*
X247744285Y-126272380D01*
X248077619Y-127272380D01*
X248410952Y-126272380D02*
X248410952Y-127081904D01*
X248458571Y-127177142D01*
X248506190Y-127224761D01*
X248601428Y-127272380D01*
X248791904Y-127272380D01*
X248887142Y-127224761D01*
X248934761Y-127177142D01*
X248982380Y-127081904D01*
X248982380Y-126272380D01*
X249458571Y-127272380D02*
X249458571Y-126272380D01*
X249696666Y-126272380D01*
X249839523Y-126320000D01*
X249934761Y-126415238D01*
X249982380Y-126510476D01*
X250030000Y-126700952D01*
X250030000Y-126843809D01*
X249982380Y-127034285D01*
X249934761Y-127129523D01*
X249839523Y-127224761D01*
X249696666Y-127272380D01*
X249458571Y-127272380D01*
X250458571Y-127272380D02*
X250458571Y-126272380D01*
X251125238Y-126272380D02*
X251315714Y-126272380D01*
X251410952Y-126320000D01*
X251506190Y-126415238D01*
X251553809Y-126605714D01*
X251553809Y-126939047D01*
X251506190Y-127129523D01*
X251410952Y-127224761D01*
X251315714Y-127272380D01*
X251125238Y-127272380D01*
X251030000Y-127224761D01*
X250934761Y-127129523D01*
X250887142Y-126939047D01*
X250887142Y-126605714D01*
X250934761Y-126415238D01*
X251030000Y-126320000D01*
X251125238Y-126272380D01*
X247506190Y-128636666D02*
X247982380Y-128636666D01*
X247410952Y-128922380D02*
X247744285Y-127922380D01*
X248077619Y-128922380D01*
X248410952Y-127922380D02*
X248410952Y-128731904D01*
X248458571Y-128827142D01*
X248506190Y-128874761D01*
X248601428Y-128922380D01*
X248791904Y-128922380D01*
X248887142Y-128874761D01*
X248934761Y-128827142D01*
X248982380Y-128731904D01*
X248982380Y-127922380D01*
X249458571Y-128922380D02*
X249458571Y-127922380D01*
X249696666Y-127922380D01*
X249839523Y-127970000D01*
X249934761Y-128065238D01*
X249982380Y-128160476D01*
X250030000Y-128350952D01*
X250030000Y-128493809D01*
X249982380Y-128684285D01*
X249934761Y-128779523D01*
X249839523Y-128874761D01*
X249696666Y-128922380D01*
X249458571Y-128922380D01*
X250458571Y-128922380D02*
X250458571Y-127922380D01*
X251125238Y-127922380D02*
X251315714Y-127922380D01*
X251410952Y-127970000D01*
X251506190Y-128065238D01*
X251553809Y-128255714D01*
X251553809Y-128589047D01*
X251506190Y-128779523D01*
X251410952Y-128874761D01*
X251315714Y-128922380D01*
X251125238Y-128922380D01*
X251030000Y-128874761D01*
X250934761Y-128779523D01*
X250887142Y-128589047D01*
X250887142Y-128255714D01*
X250934761Y-128065238D01*
X251030000Y-127970000D01*
X251125238Y-127922380D01*
D12*
X257785000Y-113805000D02*
X257785000Y-103645000D01*
X256515000Y-113805000D02*
X264135000Y-113805000D01*
X264135000Y-113805000D02*
X264135000Y-103645000D01*
X264135000Y-103645000D02*
X256515000Y-103645000D01*
X256515000Y-103645000D02*
X256515000Y-113805000D01*
D13*
X214325000Y-125870000D02*
G75*
G03*
X214325000Y-125870000I-170000J0D01*
G01*
D14*
X225455000Y-129370000D02*
X225455000Y-130170000D01*
X216455000Y-129370000D02*
X216455000Y-130170000D01*
X225455000Y-129370000D02*
X227155000Y-129370000D01*
X214755000Y-129370000D02*
X216455000Y-129370000D01*
X214755000Y-118370000D02*
X214755000Y-129370000D01*
X227155000Y-118370000D02*
X227155000Y-129370000D01*
X214755000Y-118370000D02*
X227155000Y-118370000D01*
D11*
X245425000Y-109975000D02*
G75*
G03*
X245425000Y-109975000I-80000J0D01*
G01*
D14*
X244545000Y-106725000D02*
X244545000Y-107125000D01*
X244145000Y-106725000D02*
X244545000Y-106725000D01*
X240545000Y-106725000D02*
X240945000Y-106725000D01*
X240545000Y-107125000D02*
X240545000Y-106725000D01*
X240545000Y-110725000D02*
X240545000Y-110325000D01*
X240945000Y-110725000D02*
X240545000Y-110725000D01*
X244545000Y-110725000D02*
X244145000Y-110725000D01*
X244545000Y-110325000D02*
X244545000Y-110725000D01*
D11*
X222630000Y-107685000D02*
X222455000Y-107685000D01*
X222630000Y-111035000D02*
X222380000Y-111035000D01*
X219280000Y-111035000D02*
X219530000Y-111035000D01*
X219280000Y-107685000D02*
X219530000Y-107685000D01*
X222630000Y-107685000D02*
X222630000Y-111035000D01*
X219280000Y-107685000D02*
X219280000Y-111035000D01*
X222455000Y-107685000D02*
X222455000Y-106435000D01*
D12*
X247565000Y-103730000D02*
X252765000Y-103730000D01*
X252765000Y-107370000D02*
X247565000Y-107370000D01*
X247565000Y-110080000D02*
X252765000Y-110080000D01*
X252765000Y-113720000D02*
X247565000Y-113720000D01*
X244415000Y-114090000D02*
X244415000Y-114790000D01*
X243215000Y-114790000D02*
X243215000Y-114090000D01*
X240605000Y-103295000D02*
X240605000Y-103995000D01*
X239405000Y-103995000D02*
X239405000Y-103295000D01*
X219720000Y-115425000D02*
X219720000Y-114725000D01*
X220920000Y-114725000D02*
X220920000Y-115425000D01*
X216795000Y-106855000D02*
X217495000Y-106855000D01*
X217495000Y-108055000D02*
X216795000Y-108055000D01*
X216795000Y-104950000D02*
X217495000Y-104950000D01*
X217495000Y-106150000D02*
X216795000Y-106150000D01*
X216795000Y-113205000D02*
X217495000Y-113205000D01*
X217495000Y-114405000D02*
X216795000Y-114405000D01*
X216795000Y-111300000D02*
X217495000Y-111300000D01*
X217495000Y-112500000D02*
X216795000Y-112500000D01*
D11*
X206350000Y-104709000D02*
X206350000Y-108090000D01*
X210160000Y-104788000D02*
X210160000Y-108090000D01*
X206350000Y-111694000D02*
X206350000Y-115075000D01*
X210160000Y-111773000D02*
X210160000Y-115075000D01*
D12*
X262865000Y-116345000D02*
X262865000Y-126505000D01*
X264135000Y-116345000D02*
X256515000Y-116345000D01*
X256515000Y-116345000D02*
X256515000Y-126505000D01*
X256515000Y-126505000D02*
X264135000Y-126505000D01*
X264135000Y-126505000D02*
X264135000Y-116345000D01*
X257785000Y-139840000D02*
X257785000Y-129680000D01*
X256515000Y-139840000D02*
X264135000Y-139840000D01*
X264135000Y-139840000D02*
X264135000Y-129680000D01*
X264135000Y-129680000D02*
X256515000Y-129680000D01*
X256515000Y-129680000D02*
X256515000Y-139840000D01*
X224415000Y-111300000D02*
X225115000Y-111300000D01*
X225115000Y-112500000D02*
X224415000Y-112500000D01*
X224415000Y-106220000D02*
X225115000Y-106220000D01*
X225115000Y-107420000D02*
X224415000Y-107420000D01*
X237115000Y-104950000D02*
X237815000Y-104950000D01*
X237815000Y-106150000D02*
X237115000Y-106150000D01*
X237115000Y-110030000D02*
X237815000Y-110030000D01*
X237815000Y-111230000D02*
X237115000Y-111230000D01*
X233155000Y-110210000D02*
X234155000Y-110210000D01*
X234155000Y-108510000D02*
X233155000Y-108510000D01*
X237115000Y-111300000D02*
X237815000Y-111300000D01*
X237815000Y-112500000D02*
X237115000Y-112500000D01*
X233155000Y-108305000D02*
X234155000Y-108305000D01*
X234155000Y-106605000D02*
X233155000Y-106605000D01*
X226705000Y-111615000D02*
X226705000Y-110915000D01*
X227905000Y-110915000D02*
X227905000Y-111615000D01*
X226705000Y-107805000D02*
X226705000Y-107105000D01*
X227905000Y-107105000D02*
X227905000Y-107805000D01*
X237115000Y-112570000D02*
X237815000Y-112570000D01*
X237815000Y-113770000D02*
X237115000Y-113770000D01*
X237115000Y-107490000D02*
X237815000Y-107490000D01*
X237815000Y-108690000D02*
X237115000Y-108690000D01*
X237115000Y-108760000D02*
X237815000Y-108760000D01*
X237815000Y-109960000D02*
X237115000Y-109960000D01*
X222645000Y-103145000D02*
X222645000Y-104145000D01*
X224345000Y-104145000D02*
X224345000Y-103145000D01*
X222190000Y-103295000D02*
X222190000Y-103995000D01*
X220990000Y-103995000D02*
X220990000Y-103295000D01*
X220920000Y-103295000D02*
X220920000Y-103995000D01*
X219720000Y-103995000D02*
X219720000Y-103295000D01*
X214005000Y-109075000D02*
X214005000Y-108375000D01*
X215205000Y-108375000D02*
X215205000Y-109075000D01*
X214005000Y-115425000D02*
X214005000Y-114725000D01*
X215205000Y-114725000D02*
X215205000Y-115425000D01*
D11*
X254697380Y-110328333D02*
X255411666Y-110328333D01*
X255554523Y-110375952D01*
X255649761Y-110471190D01*
X255697380Y-110614047D01*
X255697380Y-110709285D01*
X255030714Y-109423571D02*
X255697380Y-109423571D01*
X254649761Y-109661666D02*
X255364047Y-109899761D01*
X255364047Y-109280714D01*
X213001532Y-127862160D02*
X213001532Y-128576733D01*
X212953894Y-128719648D01*
X212858618Y-128814924D01*
X212715703Y-128862562D01*
X212620427Y-128862562D01*
X214001934Y-128862562D02*
X213430276Y-128862562D01*
X213716105Y-128862562D02*
X213716105Y-127862160D01*
X213620829Y-128005075D01*
X213525552Y-128100351D01*
X213430276Y-128147989D01*
X240200337Y-111619711D02*
X240200337Y-112221790D01*
X240235753Y-112292623D01*
X240271170Y-112328039D01*
X240342002Y-112363456D01*
X240483668Y-112363456D01*
X240554501Y-112328039D01*
X240589917Y-112292623D01*
X240625334Y-112221790D01*
X240625334Y-111619711D01*
X240944082Y-111690543D02*
X240979498Y-111655127D01*
X241050331Y-111619711D01*
X241227413Y-111619711D01*
X241298246Y-111655127D01*
X241333662Y-111690543D01*
X241369079Y-111761376D01*
X241369079Y-111832209D01*
X241333662Y-111938458D01*
X240908665Y-112363456D01*
X241369079Y-112363456D01*
X223582380Y-110121904D02*
X224391904Y-110121904D01*
X224487142Y-110074285D01*
X224534761Y-110026666D01*
X224582380Y-109931428D01*
X224582380Y-109740952D01*
X224534761Y-109645714D01*
X224487142Y-109598095D01*
X224391904Y-109550476D01*
X223582380Y-109550476D01*
X224582380Y-108550476D02*
X224582380Y-109121904D01*
X224582380Y-108836190D02*
X223582380Y-108836190D01*
X223725238Y-108931428D01*
X223820476Y-109026666D01*
X223868095Y-109121904D01*
X249998333Y-108602380D02*
X249665000Y-108126190D01*
X249426904Y-108602380D02*
X249426904Y-107602380D01*
X249807857Y-107602380D01*
X249903095Y-107650000D01*
X249950714Y-107697619D01*
X249998333Y-107792857D01*
X249998333Y-107935714D01*
X249950714Y-108030952D01*
X249903095Y-108078571D01*
X249807857Y-108126190D01*
X249426904Y-108126190D01*
X250474523Y-108602380D02*
X250665000Y-108602380D01*
X250760238Y-108554761D01*
X250807857Y-108507142D01*
X250903095Y-108364285D01*
X250950714Y-108173809D01*
X250950714Y-107792857D01*
X250903095Y-107697619D01*
X250855476Y-107650000D01*
X250760238Y-107602380D01*
X250569761Y-107602380D01*
X250474523Y-107650000D01*
X250426904Y-107697619D01*
X250379285Y-107792857D01*
X250379285Y-108030952D01*
X250426904Y-108126190D01*
X250474523Y-108173809D01*
X250569761Y-108221428D01*
X250760238Y-108221428D01*
X250855476Y-108173809D01*
X250903095Y-108126190D01*
X250950714Y-108030952D01*
X249998333Y-114952380D02*
X249665000Y-114476190D01*
X249426904Y-114952380D02*
X249426904Y-113952380D01*
X249807857Y-113952380D01*
X249903095Y-114000000D01*
X249950714Y-114047619D01*
X249998333Y-114142857D01*
X249998333Y-114285714D01*
X249950714Y-114380952D01*
X249903095Y-114428571D01*
X249807857Y-114476190D01*
X249426904Y-114476190D01*
X250569761Y-114380952D02*
X250474523Y-114333333D01*
X250426904Y-114285714D01*
X250379285Y-114190476D01*
X250379285Y-114142857D01*
X250426904Y-114047619D01*
X250474523Y-114000000D01*
X250569761Y-113952380D01*
X250760238Y-113952380D01*
X250855476Y-114000000D01*
X250903095Y-114047619D01*
X250950714Y-114142857D01*
X250950714Y-114190476D01*
X250903095Y-114285714D01*
X250855476Y-114333333D01*
X250760238Y-114380952D01*
X250569761Y-114380952D01*
X250474523Y-114428571D01*
X250426904Y-114476190D01*
X250379285Y-114571428D01*
X250379285Y-114761904D01*
X250426904Y-114857142D01*
X250474523Y-114904761D01*
X250569761Y-114952380D01*
X250760238Y-114952380D01*
X250855476Y-114904761D01*
X250903095Y-114857142D01*
X250950714Y-114761904D01*
X250950714Y-114571428D01*
X250903095Y-114476190D01*
X250855476Y-114428571D01*
X250760238Y-114380952D01*
X242767380Y-114606666D02*
X242291190Y-114940000D01*
X242767380Y-115178095D02*
X241767380Y-115178095D01*
X241767380Y-114797142D01*
X241815000Y-114701904D01*
X241862619Y-114654285D01*
X241957857Y-114606666D01*
X242100714Y-114606666D01*
X242195952Y-114654285D01*
X242243571Y-114701904D01*
X242291190Y-114797142D01*
X242291190Y-115178095D01*
X241767380Y-114273333D02*
X241767380Y-113606666D01*
X242767380Y-114035238D01*
X242362380Y-103811666D02*
X241886190Y-104145000D01*
X242362380Y-104383095D02*
X241362380Y-104383095D01*
X241362380Y-104002142D01*
X241410000Y-103906904D01*
X241457619Y-103859285D01*
X241552857Y-103811666D01*
X241695714Y-103811666D01*
X241790952Y-103859285D01*
X241838571Y-103906904D01*
X241886190Y-104002142D01*
X241886190Y-104383095D01*
X241362380Y-102954523D02*
X241362380Y-103145000D01*
X241410000Y-103240238D01*
X241457619Y-103287857D01*
X241600476Y-103383095D01*
X241790952Y-103430714D01*
X242171904Y-103430714D01*
X242267142Y-103383095D01*
X242314761Y-103335476D01*
X242362380Y-103240238D01*
X242362380Y-103049761D01*
X242314761Y-102954523D01*
X242267142Y-102906904D01*
X242171904Y-102859285D01*
X241933809Y-102859285D01*
X241838571Y-102906904D01*
X241790952Y-102954523D01*
X241743333Y-103049761D01*
X241743333Y-103240238D01*
X241790952Y-103335476D01*
X241838571Y-103383095D01*
X241933809Y-103430714D01*
X222272380Y-115241666D02*
X221796190Y-115575000D01*
X222272380Y-115813095D02*
X221272380Y-115813095D01*
X221272380Y-115432142D01*
X221320000Y-115336904D01*
X221367619Y-115289285D01*
X221462857Y-115241666D01*
X221605714Y-115241666D01*
X221700952Y-115289285D01*
X221748571Y-115336904D01*
X221796190Y-115432142D01*
X221796190Y-115813095D01*
X221272380Y-114336904D02*
X221272380Y-114813095D01*
X221748571Y-114860714D01*
X221700952Y-114813095D01*
X221653333Y-114717857D01*
X221653333Y-114479761D01*
X221700952Y-114384523D01*
X221748571Y-114336904D01*
X221843809Y-114289285D01*
X222081904Y-114289285D01*
X222177142Y-114336904D01*
X222224761Y-114384523D01*
X222272380Y-114479761D01*
X222272380Y-114717857D01*
X222224761Y-114813095D01*
X222177142Y-114860714D01*
X216978333Y-109177380D02*
X216645000Y-108701190D01*
X216406904Y-109177380D02*
X216406904Y-108177380D01*
X216787857Y-108177380D01*
X216883095Y-108225000D01*
X216930714Y-108272619D01*
X216978333Y-108367857D01*
X216978333Y-108510714D01*
X216930714Y-108605952D01*
X216883095Y-108653571D01*
X216787857Y-108701190D01*
X216406904Y-108701190D01*
X217835476Y-108510714D02*
X217835476Y-109177380D01*
X217597380Y-108129761D02*
X217359285Y-108844047D01*
X217978333Y-108844047D01*
X216978333Y-104732380D02*
X216645000Y-104256190D01*
X216406904Y-104732380D02*
X216406904Y-103732380D01*
X216787857Y-103732380D01*
X216883095Y-103780000D01*
X216930714Y-103827619D01*
X216978333Y-103922857D01*
X216978333Y-104065714D01*
X216930714Y-104160952D01*
X216883095Y-104208571D01*
X216787857Y-104256190D01*
X216406904Y-104256190D01*
X217311666Y-103732380D02*
X217930714Y-103732380D01*
X217597380Y-104113333D01*
X217740238Y-104113333D01*
X217835476Y-104160952D01*
X217883095Y-104208571D01*
X217930714Y-104303809D01*
X217930714Y-104541904D01*
X217883095Y-104637142D01*
X217835476Y-104684761D01*
X217740238Y-104732380D01*
X217454523Y-104732380D01*
X217359285Y-104684761D01*
X217311666Y-104637142D01*
X216978333Y-115527380D02*
X216645000Y-115051190D01*
X216406904Y-115527380D02*
X216406904Y-114527380D01*
X216787857Y-114527380D01*
X216883095Y-114575000D01*
X216930714Y-114622619D01*
X216978333Y-114717857D01*
X216978333Y-114860714D01*
X216930714Y-114955952D01*
X216883095Y-115003571D01*
X216787857Y-115051190D01*
X216406904Y-115051190D01*
X217359285Y-114622619D02*
X217406904Y-114575000D01*
X217502142Y-114527380D01*
X217740238Y-114527380D01*
X217835476Y-114575000D01*
X217883095Y-114622619D01*
X217930714Y-114717857D01*
X217930714Y-114813095D01*
X217883095Y-114955952D01*
X217311666Y-115527380D01*
X217930714Y-115527380D01*
X216978333Y-111082380D02*
X216645000Y-110606190D01*
X216406904Y-111082380D02*
X216406904Y-110082380D01*
X216787857Y-110082380D01*
X216883095Y-110130000D01*
X216930714Y-110177619D01*
X216978333Y-110272857D01*
X216978333Y-110415714D01*
X216930714Y-110510952D01*
X216883095Y-110558571D01*
X216787857Y-110606190D01*
X216406904Y-110606190D01*
X217930714Y-111082380D02*
X217359285Y-111082380D01*
X217645000Y-111082380D02*
X217645000Y-110082380D01*
X217549761Y-110225238D01*
X217454523Y-110320476D01*
X217359285Y-110368095D01*
X260190476Y-143252380D02*
X260190476Y-142252380D01*
X260523809Y-142966666D01*
X260857142Y-142252380D01*
X260857142Y-143252380D01*
X261333333Y-143252380D02*
X261333333Y-142252380D01*
X261904761Y-143252380D02*
X261476190Y-142680952D01*
X261904761Y-142252380D02*
X261333333Y-142823809D01*
X262761904Y-142585714D02*
X262761904Y-143252380D01*
X262523809Y-142204761D02*
X262285714Y-142919047D01*
X262904761Y-142919047D01*
X260190476Y-101652380D02*
X260190476Y-100652380D01*
X260523809Y-101366666D01*
X260857142Y-100652380D01*
X260857142Y-101652380D01*
X261333333Y-101652380D02*
X261333333Y-100652380D01*
X261904761Y-101652380D02*
X261476190Y-101080952D01*
X261904761Y-100652380D02*
X261333333Y-101223809D01*
X262285714Y-100747619D02*
X262333333Y-100700000D01*
X262428571Y-100652380D01*
X262666666Y-100652380D01*
X262761904Y-100700000D01*
X262809523Y-100747619D01*
X262857142Y-100842857D01*
X262857142Y-100938095D01*
X262809523Y-101080952D01*
X262238095Y-101652380D01*
X262857142Y-101652380D01*
X202190476Y-101652380D02*
X202190476Y-100652380D01*
X202523809Y-101366666D01*
X202857142Y-100652380D01*
X202857142Y-101652380D01*
X203333333Y-101652380D02*
X203333333Y-100652380D01*
X203904761Y-101652380D02*
X203476190Y-101080952D01*
X203904761Y-100652380D02*
X203333333Y-101223809D01*
X204857142Y-101652380D02*
X204285714Y-101652380D01*
X204571428Y-101652380D02*
X204571428Y-100652380D01*
X204476190Y-100795238D01*
X204380952Y-100890476D01*
X204285714Y-100938095D01*
X210882380Y-107526333D02*
X211596666Y-107526333D01*
X211739523Y-107573952D01*
X211834761Y-107669190D01*
X211882380Y-107812047D01*
X211882380Y-107907285D01*
X211882380Y-107050142D02*
X210882380Y-107050142D01*
X210882380Y-106669190D01*
X210930000Y-106573952D01*
X210977619Y-106526333D01*
X211072857Y-106478714D01*
X211215714Y-106478714D01*
X211310952Y-106526333D01*
X211358571Y-106573952D01*
X211406190Y-106669190D01*
X211406190Y-107050142D01*
X210977619Y-106097761D02*
X210930000Y-106050142D01*
X210882380Y-105954904D01*
X210882380Y-105716809D01*
X210930000Y-105621571D01*
X210977619Y-105573952D01*
X211072857Y-105526333D01*
X211168095Y-105526333D01*
X211310952Y-105573952D01*
X211882380Y-106145380D01*
X211882380Y-105526333D01*
X210882380Y-114511333D02*
X211596666Y-114511333D01*
X211739523Y-114558952D01*
X211834761Y-114654190D01*
X211882380Y-114797047D01*
X211882380Y-114892285D01*
X211882380Y-114035142D02*
X210882380Y-114035142D01*
X210882380Y-113654190D01*
X210930000Y-113558952D01*
X210977619Y-113511333D01*
X211072857Y-113463714D01*
X211215714Y-113463714D01*
X211310952Y-113511333D01*
X211358571Y-113558952D01*
X211406190Y-113654190D01*
X211406190Y-114035142D01*
X211882380Y-112511333D02*
X211882380Y-113082761D01*
X211882380Y-112797047D02*
X210882380Y-112797047D01*
X211025238Y-112892285D01*
X211120476Y-112987523D01*
X211168095Y-113082761D01*
X254697380Y-121758333D02*
X255411666Y-121758333D01*
X255554523Y-121805952D01*
X255649761Y-121901190D01*
X255697380Y-122044047D01*
X255697380Y-122139285D01*
X254697380Y-121377380D02*
X254697380Y-120758333D01*
X255078333Y-121091666D01*
X255078333Y-120948809D01*
X255125952Y-120853571D01*
X255173571Y-120805952D01*
X255268809Y-120758333D01*
X255506904Y-120758333D01*
X255602142Y-120805952D01*
X255649761Y-120853571D01*
X255697380Y-120948809D01*
X255697380Y-121234523D01*
X255649761Y-121329761D01*
X255602142Y-121377380D01*
X254697380Y-135093333D02*
X255411666Y-135093333D01*
X255554523Y-135140952D01*
X255649761Y-135236190D01*
X255697380Y-135379047D01*
X255697380Y-135474285D01*
X254792619Y-134664761D02*
X254745000Y-134617142D01*
X254697380Y-134521904D01*
X254697380Y-134283809D01*
X254745000Y-134188571D01*
X254792619Y-134140952D01*
X254887857Y-134093333D01*
X254983095Y-134093333D01*
X255125952Y-134140952D01*
X255697380Y-134712380D01*
X255697380Y-134093333D01*
X225836666Y-113479571D02*
X225503333Y-113479571D01*
X225503333Y-114003380D02*
X225503333Y-113003380D01*
X225979523Y-113003380D01*
X226693809Y-113479571D02*
X226836666Y-113527190D01*
X226884285Y-113574809D01*
X226931904Y-113670047D01*
X226931904Y-113812904D01*
X226884285Y-113908142D01*
X226836666Y-113955761D01*
X226741428Y-114003380D01*
X226360476Y-114003380D01*
X226360476Y-113003380D01*
X226693809Y-113003380D01*
X226789047Y-113051000D01*
X226836666Y-113098619D01*
X226884285Y-113193857D01*
X226884285Y-113289095D01*
X226836666Y-113384333D01*
X226789047Y-113431952D01*
X226693809Y-113479571D01*
X226360476Y-113479571D01*
X227312857Y-113098619D02*
X227360476Y-113051000D01*
X227455714Y-113003380D01*
X227693809Y-113003380D01*
X227789047Y-113051000D01*
X227836666Y-113098619D01*
X227884285Y-113193857D01*
X227884285Y-113289095D01*
X227836666Y-113431952D01*
X227265238Y-114003380D01*
X227884285Y-114003380D01*
X225836666Y-104843571D02*
X225503333Y-104843571D01*
X225503333Y-105367380D02*
X225503333Y-104367380D01*
X225979523Y-104367380D01*
X226693809Y-104843571D02*
X226836666Y-104891190D01*
X226884285Y-104938809D01*
X226931904Y-105034047D01*
X226931904Y-105176904D01*
X226884285Y-105272142D01*
X226836666Y-105319761D01*
X226741428Y-105367380D01*
X226360476Y-105367380D01*
X226360476Y-104367380D01*
X226693809Y-104367380D01*
X226789047Y-104415000D01*
X226836666Y-104462619D01*
X226884285Y-104557857D01*
X226884285Y-104653095D01*
X226836666Y-104748333D01*
X226789047Y-104795952D01*
X226693809Y-104843571D01*
X226360476Y-104843571D01*
X227884285Y-105367380D02*
X227312857Y-105367380D01*
X227598571Y-105367380D02*
X227598571Y-104367380D01*
X227503333Y-104510238D01*
X227408095Y-104605476D01*
X227312857Y-104653095D01*
X236822142Y-104510142D02*
X236774523Y-104557761D01*
X236631666Y-104605380D01*
X236536428Y-104605380D01*
X236393571Y-104557761D01*
X236298333Y-104462523D01*
X236250714Y-104367285D01*
X236203095Y-104176809D01*
X236203095Y-104033952D01*
X236250714Y-103843476D01*
X236298333Y-103748238D01*
X236393571Y-103653000D01*
X236536428Y-103605380D01*
X236631666Y-103605380D01*
X236774523Y-103653000D01*
X236822142Y-103700619D01*
X237774523Y-104605380D02*
X237203095Y-104605380D01*
X237488809Y-104605380D02*
X237488809Y-103605380D01*
X237393571Y-103748238D01*
X237298333Y-103843476D01*
X237203095Y-103891095D01*
X238679285Y-103605380D02*
X238203095Y-103605380D01*
X238155476Y-104081571D01*
X238203095Y-104033952D01*
X238298333Y-103986333D01*
X238536428Y-103986333D01*
X238631666Y-104033952D01*
X238679285Y-104081571D01*
X238726904Y-104176809D01*
X238726904Y-104414904D01*
X238679285Y-104510142D01*
X238631666Y-104557761D01*
X238536428Y-104605380D01*
X238298333Y-104605380D01*
X238203095Y-104557761D01*
X238155476Y-104510142D01*
X236822142Y-117718142D02*
X236774523Y-117765761D01*
X236631666Y-117813380D01*
X236536428Y-117813380D01*
X236393571Y-117765761D01*
X236298333Y-117670523D01*
X236250714Y-117575285D01*
X236203095Y-117384809D01*
X236203095Y-117241952D01*
X236250714Y-117051476D01*
X236298333Y-116956238D01*
X236393571Y-116861000D01*
X236536428Y-116813380D01*
X236631666Y-116813380D01*
X236774523Y-116861000D01*
X236822142Y-116908619D01*
X237774523Y-117813380D02*
X237203095Y-117813380D01*
X237488809Y-117813380D02*
X237488809Y-116813380D01*
X237393571Y-116956238D01*
X237298333Y-117051476D01*
X237203095Y-117099095D01*
X238631666Y-117146714D02*
X238631666Y-117813380D01*
X238393571Y-116765761D02*
X238155476Y-117480047D01*
X238774523Y-117480047D01*
X233012142Y-111622142D02*
X232964523Y-111669761D01*
X232821666Y-111717380D01*
X232726428Y-111717380D01*
X232583571Y-111669761D01*
X232488333Y-111574523D01*
X232440714Y-111479285D01*
X232393095Y-111288809D01*
X232393095Y-111145952D01*
X232440714Y-110955476D01*
X232488333Y-110860238D01*
X232583571Y-110765000D01*
X232726428Y-110717380D01*
X232821666Y-110717380D01*
X232964523Y-110765000D01*
X233012142Y-110812619D01*
X233964523Y-111717380D02*
X233393095Y-111717380D01*
X233678809Y-111717380D02*
X233678809Y-110717380D01*
X233583571Y-110860238D01*
X233488333Y-110955476D01*
X233393095Y-111003095D01*
X234297857Y-110717380D02*
X234916904Y-110717380D01*
X234583571Y-111098333D01*
X234726428Y-111098333D01*
X234821666Y-111145952D01*
X234869285Y-111193571D01*
X234916904Y-111288809D01*
X234916904Y-111526904D01*
X234869285Y-111622142D01*
X234821666Y-111669761D01*
X234726428Y-111717380D01*
X234440714Y-111717380D01*
X234345476Y-111669761D01*
X234297857Y-111622142D01*
X236822142Y-118988142D02*
X236774523Y-119035761D01*
X236631666Y-119083380D01*
X236536428Y-119083380D01*
X236393571Y-119035761D01*
X236298333Y-118940523D01*
X236250714Y-118845285D01*
X236203095Y-118654809D01*
X236203095Y-118511952D01*
X236250714Y-118321476D01*
X236298333Y-118226238D01*
X236393571Y-118131000D01*
X236536428Y-118083380D01*
X236631666Y-118083380D01*
X236774523Y-118131000D01*
X236822142Y-118178619D01*
X237774523Y-119083380D02*
X237203095Y-119083380D01*
X237488809Y-119083380D02*
X237488809Y-118083380D01*
X237393571Y-118226238D01*
X237298333Y-118321476D01*
X237203095Y-118369095D01*
X238155476Y-118178619D02*
X238203095Y-118131000D01*
X238298333Y-118083380D01*
X238536428Y-118083380D01*
X238631666Y-118131000D01*
X238679285Y-118178619D01*
X238726904Y-118273857D01*
X238726904Y-118369095D01*
X238679285Y-118511952D01*
X238107857Y-119083380D01*
X238726904Y-119083380D01*
X233012142Y-105907142D02*
X232964523Y-105954761D01*
X232821666Y-106002380D01*
X232726428Y-106002380D01*
X232583571Y-105954761D01*
X232488333Y-105859523D01*
X232440714Y-105764285D01*
X232393095Y-105573809D01*
X232393095Y-105430952D01*
X232440714Y-105240476D01*
X232488333Y-105145238D01*
X232583571Y-105050000D01*
X232726428Y-105002380D01*
X232821666Y-105002380D01*
X232964523Y-105050000D01*
X233012142Y-105097619D01*
X233964523Y-106002380D02*
X233393095Y-106002380D01*
X233678809Y-106002380D02*
X233678809Y-105002380D01*
X233583571Y-105145238D01*
X233488333Y-105240476D01*
X233393095Y-105288095D01*
X234916904Y-106002380D02*
X234345476Y-106002380D01*
X234631190Y-106002380D02*
X234631190Y-105002380D01*
X234535952Y-105145238D01*
X234440714Y-105240476D01*
X234345476Y-105288095D01*
X229567142Y-111907857D02*
X229614761Y-111955476D01*
X229662380Y-112098333D01*
X229662380Y-112193571D01*
X229614761Y-112336428D01*
X229519523Y-112431666D01*
X229424285Y-112479285D01*
X229233809Y-112526904D01*
X229090952Y-112526904D01*
X228900476Y-112479285D01*
X228805238Y-112431666D01*
X228710000Y-112336428D01*
X228662380Y-112193571D01*
X228662380Y-112098333D01*
X228710000Y-111955476D01*
X228757619Y-111907857D01*
X229662380Y-110955476D02*
X229662380Y-111526904D01*
X229662380Y-111241190D02*
X228662380Y-111241190D01*
X228805238Y-111336428D01*
X228900476Y-111431666D01*
X228948095Y-111526904D01*
X228662380Y-110336428D02*
X228662380Y-110241190D01*
X228710000Y-110145952D01*
X228757619Y-110098333D01*
X228852857Y-110050714D01*
X229043333Y-110003095D01*
X229281428Y-110003095D01*
X229471904Y-110050714D01*
X229567142Y-110098333D01*
X229614761Y-110145952D01*
X229662380Y-110241190D01*
X229662380Y-110336428D01*
X229614761Y-110431666D01*
X229567142Y-110479285D01*
X229471904Y-110526904D01*
X229281428Y-110574523D01*
X229043333Y-110574523D01*
X228852857Y-110526904D01*
X228757619Y-110479285D01*
X228710000Y-110431666D01*
X228662380Y-110336428D01*
X229567142Y-107621666D02*
X229614761Y-107669285D01*
X229662380Y-107812142D01*
X229662380Y-107907380D01*
X229614761Y-108050238D01*
X229519523Y-108145476D01*
X229424285Y-108193095D01*
X229233809Y-108240714D01*
X229090952Y-108240714D01*
X228900476Y-108193095D01*
X228805238Y-108145476D01*
X228710000Y-108050238D01*
X228662380Y-107907380D01*
X228662380Y-107812142D01*
X228710000Y-107669285D01*
X228757619Y-107621666D01*
X229662380Y-107145476D02*
X229662380Y-106955000D01*
X229614761Y-106859761D01*
X229567142Y-106812142D01*
X229424285Y-106716904D01*
X229233809Y-106669285D01*
X228852857Y-106669285D01*
X228757619Y-106716904D01*
X228710000Y-106764523D01*
X228662380Y-106859761D01*
X228662380Y-107050238D01*
X228710000Y-107145476D01*
X228757619Y-107193095D01*
X228852857Y-107240714D01*
X229090952Y-107240714D01*
X229186190Y-107193095D01*
X229233809Y-107145476D01*
X229281428Y-107050238D01*
X229281428Y-106859761D01*
X229233809Y-106764523D01*
X229186190Y-106716904D01*
X229090952Y-106669285D01*
X237298333Y-120258142D02*
X237250714Y-120305761D01*
X237107857Y-120353380D01*
X237012619Y-120353380D01*
X236869761Y-120305761D01*
X236774523Y-120210523D01*
X236726904Y-120115285D01*
X236679285Y-119924809D01*
X236679285Y-119781952D01*
X236726904Y-119591476D01*
X236774523Y-119496238D01*
X236869761Y-119401000D01*
X237012619Y-119353380D01*
X237107857Y-119353380D01*
X237250714Y-119401000D01*
X237298333Y-119448619D01*
X237869761Y-119781952D02*
X237774523Y-119734333D01*
X237726904Y-119686714D01*
X237679285Y-119591476D01*
X237679285Y-119543857D01*
X237726904Y-119448619D01*
X237774523Y-119401000D01*
X237869761Y-119353380D01*
X238060238Y-119353380D01*
X238155476Y-119401000D01*
X238203095Y-119448619D01*
X238250714Y-119543857D01*
X238250714Y-119591476D01*
X238203095Y-119686714D01*
X238155476Y-119734333D01*
X238060238Y-119781952D01*
X237869761Y-119781952D01*
X237774523Y-119829571D01*
X237726904Y-119877190D01*
X237679285Y-119972428D01*
X237679285Y-120162904D01*
X237726904Y-120258142D01*
X237774523Y-120305761D01*
X237869761Y-120353380D01*
X238060238Y-120353380D01*
X238155476Y-120305761D01*
X238203095Y-120258142D01*
X238250714Y-120162904D01*
X238250714Y-119972428D01*
X238203095Y-119877190D01*
X238155476Y-119829571D01*
X238060238Y-119781952D01*
X237298333Y-115178142D02*
X237250714Y-115225761D01*
X237107857Y-115273380D01*
X237012619Y-115273380D01*
X236869761Y-115225761D01*
X236774523Y-115130523D01*
X236726904Y-115035285D01*
X236679285Y-114844809D01*
X236679285Y-114701952D01*
X236726904Y-114511476D01*
X236774523Y-114416238D01*
X236869761Y-114321000D01*
X237012619Y-114273380D01*
X237107857Y-114273380D01*
X237250714Y-114321000D01*
X237298333Y-114368619D01*
X237631666Y-114273380D02*
X238298333Y-114273380D01*
X237869761Y-115273380D01*
X237298333Y-116448142D02*
X237250714Y-116495761D01*
X237107857Y-116543380D01*
X237012619Y-116543380D01*
X236869761Y-116495761D01*
X236774523Y-116400523D01*
X236726904Y-116305285D01*
X236679285Y-116114809D01*
X236679285Y-115971952D01*
X236726904Y-115781476D01*
X236774523Y-115686238D01*
X236869761Y-115591000D01*
X237012619Y-115543380D01*
X237107857Y-115543380D01*
X237250714Y-115591000D01*
X237298333Y-115638619D01*
X238155476Y-115543380D02*
X237965000Y-115543380D01*
X237869761Y-115591000D01*
X237822142Y-115638619D01*
X237726904Y-115781476D01*
X237679285Y-115971952D01*
X237679285Y-116352904D01*
X237726904Y-116448142D01*
X237774523Y-116495761D01*
X237869761Y-116543380D01*
X238060238Y-116543380D01*
X238155476Y-116495761D01*
X238203095Y-116448142D01*
X238250714Y-116352904D01*
X238250714Y-116114809D01*
X238203095Y-116019571D01*
X238155476Y-115971952D01*
X238060238Y-115924333D01*
X237869761Y-115924333D01*
X237774523Y-115971952D01*
X237726904Y-116019571D01*
X237679285Y-116114809D01*
X228932142Y-102541666D02*
X228979761Y-102589285D01*
X229027380Y-102732142D01*
X229027380Y-102827380D01*
X228979761Y-102970238D01*
X228884523Y-103065476D01*
X228789285Y-103113095D01*
X228598809Y-103160714D01*
X228455952Y-103160714D01*
X228265476Y-103113095D01*
X228170238Y-103065476D01*
X228075000Y-102970238D01*
X228027380Y-102827380D01*
X228027380Y-102732142D01*
X228075000Y-102589285D01*
X228122619Y-102541666D01*
X228027380Y-101636904D02*
X228027380Y-102113095D01*
X228503571Y-102160714D01*
X228455952Y-102113095D01*
X228408333Y-102017857D01*
X228408333Y-101779761D01*
X228455952Y-101684523D01*
X228503571Y-101636904D01*
X228598809Y-101589285D01*
X228836904Y-101589285D01*
X228932142Y-101636904D01*
X228979761Y-101684523D01*
X229027380Y-101779761D01*
X229027380Y-102017857D01*
X228979761Y-102113095D01*
X228932142Y-102160714D01*
X227662142Y-102541666D02*
X227709761Y-102589285D01*
X227757380Y-102732142D01*
X227757380Y-102827380D01*
X227709761Y-102970238D01*
X227614523Y-103065476D01*
X227519285Y-103113095D01*
X227328809Y-103160714D01*
X227185952Y-103160714D01*
X226995476Y-103113095D01*
X226900238Y-103065476D01*
X226805000Y-102970238D01*
X226757380Y-102827380D01*
X226757380Y-102732142D01*
X226805000Y-102589285D01*
X226852619Y-102541666D01*
X227090714Y-101684523D02*
X227757380Y-101684523D01*
X226709761Y-101922619D02*
X227424047Y-102160714D01*
X227424047Y-101541666D01*
X226392142Y-102541666D02*
X226439761Y-102589285D01*
X226487380Y-102732142D01*
X226487380Y-102827380D01*
X226439761Y-102970238D01*
X226344523Y-103065476D01*
X226249285Y-103113095D01*
X226058809Y-103160714D01*
X225915952Y-103160714D01*
X225725476Y-103113095D01*
X225630238Y-103065476D01*
X225535000Y-102970238D01*
X225487380Y-102827380D01*
X225487380Y-102732142D01*
X225535000Y-102589285D01*
X225582619Y-102541666D01*
X225487380Y-102208333D02*
X225487380Y-101589285D01*
X225868333Y-101922619D01*
X225868333Y-101779761D01*
X225915952Y-101684523D01*
X225963571Y-101636904D01*
X226058809Y-101589285D01*
X226296904Y-101589285D01*
X226392142Y-101636904D01*
X226439761Y-101684523D01*
X226487380Y-101779761D01*
X226487380Y-102065476D01*
X226439761Y-102160714D01*
X226392142Y-102208333D01*
X214962142Y-106351666D02*
X215009761Y-106399285D01*
X215057380Y-106542142D01*
X215057380Y-106637380D01*
X215009761Y-106780238D01*
X214914523Y-106875476D01*
X214819285Y-106923095D01*
X214628809Y-106970714D01*
X214485952Y-106970714D01*
X214295476Y-106923095D01*
X214200238Y-106875476D01*
X214105000Y-106780238D01*
X214057380Y-106637380D01*
X214057380Y-106542142D01*
X214105000Y-106399285D01*
X214152619Y-106351666D01*
X214152619Y-105970714D02*
X214105000Y-105923095D01*
X214057380Y-105827857D01*
X214057380Y-105589761D01*
X214105000Y-105494523D01*
X214152619Y-105446904D01*
X214247857Y-105399285D01*
X214343095Y-105399285D01*
X214485952Y-105446904D01*
X215057380Y-106018333D01*
X215057380Y-105399285D01*
X214962142Y-112701666D02*
X215009761Y-112749285D01*
X215057380Y-112892142D01*
X215057380Y-112987380D01*
X215009761Y-113130238D01*
X214914523Y-113225476D01*
X214819285Y-113273095D01*
X214628809Y-113320714D01*
X214485952Y-113320714D01*
X214295476Y-113273095D01*
X214200238Y-113225476D01*
X214105000Y-113130238D01*
X214057380Y-112987380D01*
X214057380Y-112892142D01*
X214105000Y-112749285D01*
X214152619Y-112701666D01*
X215057380Y-111749285D02*
X215057380Y-112320714D01*
X215057380Y-112035000D02*
X214057380Y-112035000D01*
X214200238Y-112130238D01*
X214295476Y-112225476D01*
X214343095Y-112320714D01*
M02*
