G04 #@! TF.GenerationSoftware,KiCad,Pcbnew,(5.1.6)-1*
G04 #@! TF.CreationDate,2020-06-15T08:38:09-05:00*
G04 #@! TF.ProjectId,RPi_MotorAudio_Board,5250695f-4d6f-4746-9f72-417564696f5f,rev?*
G04 #@! TF.SameCoordinates,Original*
G04 #@! TF.FileFunction,Copper,L2,Bot*
G04 #@! TF.FilePolarity,Positive*
%FSLAX46Y46*%
G04 Gerber Fmt 4.6, Leading zero omitted, Abs format (unit mm)*
G04 Created by KiCad (PCBNEW (5.1.6)-1) date 2020-06-15 08:38:09*
%MOMM*%
%LPD*%
G01*
G04 APERTURE LIST*
G04 #@! TA.AperFunction,ComponentPad*
%ADD10R,3.000000X3.000000*%
G04 #@! TD*
G04 #@! TA.AperFunction,ComponentPad*
%ADD11C,3.000000*%
G04 #@! TD*
G04 #@! TA.AperFunction,ComponentPad*
%ADD12O,1.308000X2.616000*%
G04 #@! TD*
G04 #@! TA.AperFunction,ComponentPad*
%ADD13O,2.616000X1.308000*%
G04 #@! TD*
G04 #@! TA.AperFunction,ComponentPad*
%ADD14R,1.700000X1.700000*%
G04 #@! TD*
G04 #@! TA.AperFunction,ComponentPad*
%ADD15O,1.700000X1.700000*%
G04 #@! TD*
G04 #@! TA.AperFunction,ViaPad*
%ADD16C,0.900000*%
G04 #@! TD*
G04 #@! TA.AperFunction,Conductor*
%ADD17C,0.508000*%
G04 #@! TD*
G04 #@! TA.AperFunction,Conductor*
%ADD18C,0.254000*%
G04 #@! TD*
G04 #@! TA.AperFunction,Conductor*
%ADD19C,0.200000*%
G04 #@! TD*
G04 APERTURE END LIST*
D10*
X260325000Y-106185000D03*
D11*
X260325000Y-111265000D03*
D12*
X215955000Y-120870000D03*
X225955000Y-120870000D03*
D13*
X220955000Y-125870000D03*
D10*
X260325000Y-123965000D03*
D11*
X260325000Y-118885000D03*
D10*
X260325000Y-132220000D03*
D11*
X260325000Y-137300000D03*
D14*
X208370000Y-98770000D03*
D15*
X208370000Y-96230000D03*
X210910000Y-98770000D03*
X210910000Y-96230000D03*
X213450000Y-98770000D03*
X213450000Y-96230000D03*
X215990000Y-98770000D03*
X215990000Y-96230000D03*
X218530000Y-98770000D03*
X218530000Y-96230000D03*
X221070000Y-98770000D03*
X221070000Y-96230000D03*
X223610000Y-98770000D03*
X223610000Y-96230000D03*
X226150000Y-98770000D03*
X226150000Y-96230000D03*
X228690000Y-98770000D03*
X228690000Y-96230000D03*
X231230000Y-98770000D03*
X231230000Y-96230000D03*
X233770000Y-98770000D03*
X233770000Y-96230000D03*
X236310000Y-98770000D03*
X236310000Y-96230000D03*
X238850000Y-98770000D03*
X238850000Y-96230000D03*
X241390000Y-98770000D03*
X241390000Y-96230000D03*
X243930000Y-98770000D03*
X243930000Y-96230000D03*
X246470000Y-98770000D03*
X246470000Y-96230000D03*
X249010000Y-98770000D03*
X249010000Y-96230000D03*
X251550000Y-98770000D03*
X251550000Y-96230000D03*
X254090000Y-98770000D03*
X254090000Y-96230000D03*
X256630000Y-98770000D03*
X256630000Y-96230000D03*
D16*
X219050000Y-115710000D03*
X220320000Y-109995000D03*
X227305000Y-109360000D03*
X213335000Y-109487000D03*
X222225000Y-101867000D03*
X231623000Y-108471000D03*
X239624000Y-110630000D03*
X235687000Y-110757000D03*
X235687000Y-113170000D03*
X231496000Y-106185000D03*
X235560000Y-105423000D03*
X231750000Y-110630000D03*
X245085000Y-115202000D03*
X253340000Y-114440000D03*
X254737000Y-111773000D03*
X254610000Y-105550000D03*
X253086000Y-103010000D03*
X221717000Y-113170000D03*
X218415000Y-100851000D03*
X254864000Y-103645000D03*
X254610000Y-110376000D03*
X254737000Y-113678000D03*
X254864000Y-107455000D03*
X235433000Y-111900000D03*
X243307000Y-101232000D03*
X242418000Y-102629000D03*
X243037164Y-111728290D03*
X244154570Y-105508570D03*
X242545000Y-100216000D03*
X244450000Y-110884000D03*
X244704000Y-106566000D03*
D17*
X219050000Y-115710000D02*
X220320000Y-114440000D01*
X220320000Y-114440000D02*
X220320000Y-109995000D01*
D18*
X219892999Y-97407001D02*
X218530000Y-98770000D01*
X222432999Y-97407001D02*
X219892999Y-97407001D01*
X223610000Y-96230000D02*
X222432999Y-97407001D01*
X217167001Y-97407001D02*
X218530000Y-98770000D01*
X214627001Y-97407001D02*
X217167001Y-97407001D01*
X213450000Y-96230000D02*
X214627001Y-97407001D01*
X230052999Y-97407001D02*
X231230000Y-96230000D01*
X224787001Y-97407001D02*
X230052999Y-97407001D01*
X223610000Y-96230000D02*
X224787001Y-97407001D01*
X240212999Y-97407001D02*
X238850000Y-98770000D01*
X242752999Y-97407001D02*
X240212999Y-97407001D01*
X243930000Y-96230000D02*
X242752999Y-97407001D01*
X244008000Y-101232000D02*
X246470000Y-98770000D01*
X243307000Y-101232000D02*
X244008000Y-101232000D01*
X245151000Y-102629000D02*
X249010000Y-98770000D01*
X242418000Y-102629000D02*
X245151000Y-102629000D01*
X243037164Y-106625976D02*
X244154570Y-105508570D01*
X243037164Y-111728290D02*
X243037164Y-106625976D01*
X250372999Y-97407001D02*
X251550000Y-96230000D01*
X242752999Y-98205039D02*
X243551037Y-97407001D01*
X243551037Y-97407001D02*
X250372999Y-97407001D01*
X242752999Y-100008001D02*
X242752999Y-98205039D01*
X242545000Y-100216000D02*
X242752999Y-100008001D01*
X244450000Y-106820000D02*
X244704000Y-106566000D01*
X244450000Y-110884000D02*
X244450000Y-106820000D01*
D19*
G36*
X264035000Y-149265000D02*
G01*
X251535000Y-149265000D01*
X251535000Y-146337489D01*
X259850000Y-146337489D01*
X259850000Y-146662511D01*
X259913408Y-146981287D01*
X260037789Y-147281568D01*
X260218361Y-147551814D01*
X260448186Y-147781639D01*
X260718432Y-147962211D01*
X261018713Y-148086592D01*
X261337489Y-148150000D01*
X261662511Y-148150000D01*
X261981287Y-148086592D01*
X262281568Y-147962211D01*
X262551814Y-147781639D01*
X262781639Y-147551814D01*
X262962211Y-147281568D01*
X263086592Y-146981287D01*
X263150000Y-146662511D01*
X263150000Y-146337489D01*
X263086592Y-146018713D01*
X262962211Y-145718432D01*
X262781639Y-145448186D01*
X262551814Y-145218361D01*
X262281568Y-145037789D01*
X261981287Y-144913408D01*
X261662511Y-144850000D01*
X261337489Y-144850000D01*
X261018713Y-144913408D01*
X260718432Y-145037789D01*
X260448186Y-145218361D01*
X260218361Y-145448186D01*
X260037789Y-145718432D01*
X259913408Y-146018713D01*
X259850000Y-146337489D01*
X251535000Y-146337489D01*
X251535000Y-137122716D01*
X258525000Y-137122716D01*
X258525000Y-137477284D01*
X258594173Y-137825041D01*
X258729861Y-138152620D01*
X258926849Y-138447433D01*
X259177567Y-138698151D01*
X259472380Y-138895139D01*
X259799959Y-139030827D01*
X260147716Y-139100000D01*
X260502284Y-139100000D01*
X260850041Y-139030827D01*
X261177620Y-138895139D01*
X261472433Y-138698151D01*
X261723151Y-138447433D01*
X261920139Y-138152620D01*
X262055827Y-137825041D01*
X262125000Y-137477284D01*
X262125000Y-137122716D01*
X262055827Y-136774959D01*
X261920139Y-136447380D01*
X261723151Y-136152567D01*
X261472433Y-135901849D01*
X261177620Y-135704861D01*
X260850041Y-135569173D01*
X260502284Y-135500000D01*
X260147716Y-135500000D01*
X259799959Y-135569173D01*
X259472380Y-135704861D01*
X259177567Y-135901849D01*
X258926849Y-136152567D01*
X258729861Y-136447380D01*
X258594173Y-136774959D01*
X258525000Y-137122716D01*
X251535000Y-137122716D01*
X251535000Y-130720000D01*
X258523549Y-130720000D01*
X258523549Y-133720000D01*
X258529341Y-133778810D01*
X258546496Y-133835360D01*
X258574353Y-133887477D01*
X258611842Y-133933158D01*
X258657523Y-133970647D01*
X258709640Y-133998504D01*
X258766190Y-134015659D01*
X258825000Y-134021451D01*
X261825000Y-134021451D01*
X261883810Y-134015659D01*
X261940360Y-133998504D01*
X261992477Y-133970647D01*
X262038158Y-133933158D01*
X262075647Y-133887477D01*
X262103504Y-133835360D01*
X262120659Y-133778810D01*
X262126451Y-133720000D01*
X262126451Y-130720000D01*
X262120659Y-130661190D01*
X262103504Y-130604640D01*
X262075647Y-130552523D01*
X262038158Y-130506842D01*
X261992477Y-130469353D01*
X261940360Y-130441496D01*
X261883810Y-130424341D01*
X261825000Y-130418549D01*
X258825000Y-130418549D01*
X258766190Y-130424341D01*
X258709640Y-130441496D01*
X258657523Y-130469353D01*
X258611842Y-130506842D01*
X258574353Y-130552523D01*
X258546496Y-130604640D01*
X258529341Y-130661190D01*
X258523549Y-130720000D01*
X251535000Y-130720000D01*
X251535000Y-130315000D01*
X251533079Y-130295491D01*
X251527388Y-130276732D01*
X251518147Y-130259443D01*
X251505711Y-130244289D01*
X251490557Y-130231853D01*
X251473268Y-130222612D01*
X251454509Y-130216921D01*
X251435000Y-130215000D01*
X200735000Y-130215000D01*
X200735000Y-128281358D01*
X215055000Y-128281358D01*
X215055000Y-128458642D01*
X215089586Y-128632520D01*
X215157430Y-128796310D01*
X215255924Y-128943717D01*
X215381283Y-129069076D01*
X215528690Y-129167570D01*
X215692480Y-129235414D01*
X215866358Y-129270000D01*
X216043642Y-129270000D01*
X216217520Y-129235414D01*
X216381310Y-129167570D01*
X216528717Y-129069076D01*
X216654076Y-128943717D01*
X216752570Y-128796310D01*
X216820414Y-128632520D01*
X216855000Y-128458642D01*
X216855000Y-128281358D01*
X225055000Y-128281358D01*
X225055000Y-128458642D01*
X225089586Y-128632520D01*
X225157430Y-128796310D01*
X225255924Y-128943717D01*
X225381283Y-129069076D01*
X225528690Y-129167570D01*
X225692480Y-129235414D01*
X225866358Y-129270000D01*
X226043642Y-129270000D01*
X226217520Y-129235414D01*
X226381310Y-129167570D01*
X226528717Y-129069076D01*
X226654076Y-128943717D01*
X226752570Y-128796310D01*
X226820414Y-128632520D01*
X226855000Y-128458642D01*
X226855000Y-128281358D01*
X226820414Y-128107480D01*
X226752570Y-127943690D01*
X226654076Y-127796283D01*
X226528717Y-127670924D01*
X226381310Y-127572430D01*
X226217520Y-127504586D01*
X226043642Y-127470000D01*
X225866358Y-127470000D01*
X225692480Y-127504586D01*
X225528690Y-127572430D01*
X225381283Y-127670924D01*
X225255924Y-127796283D01*
X225157430Y-127943690D01*
X225089586Y-128107480D01*
X225055000Y-128281358D01*
X216855000Y-128281358D01*
X216820414Y-128107480D01*
X216752570Y-127943690D01*
X216654076Y-127796283D01*
X216528717Y-127670924D01*
X216381310Y-127572430D01*
X216217520Y-127504586D01*
X216043642Y-127470000D01*
X215866358Y-127470000D01*
X215692480Y-127504586D01*
X215528690Y-127572430D01*
X215381283Y-127670924D01*
X215255924Y-127796283D01*
X215157430Y-127943690D01*
X215089586Y-128107480D01*
X215055000Y-128281358D01*
X200735000Y-128281358D01*
X200735000Y-125781358D01*
X215055000Y-125781358D01*
X215055000Y-125958642D01*
X215089586Y-126132520D01*
X215157430Y-126296310D01*
X215255924Y-126443717D01*
X215381283Y-126569076D01*
X215528690Y-126667570D01*
X215692480Y-126735414D01*
X215866358Y-126770000D01*
X216043642Y-126770000D01*
X216217520Y-126735414D01*
X216381310Y-126667570D01*
X216528717Y-126569076D01*
X216654076Y-126443717D01*
X216752570Y-126296310D01*
X216820414Y-126132520D01*
X216823624Y-126116381D01*
X219224844Y-126116381D01*
X219252336Y-126223190D01*
X219341390Y-126420988D01*
X219467321Y-126597612D01*
X219625290Y-126746274D01*
X219809226Y-126861261D01*
X220012061Y-126938155D01*
X220226000Y-126974000D01*
X220880000Y-126974000D01*
X220880000Y-125945000D01*
X221030000Y-125945000D01*
X221030000Y-126974000D01*
X221684000Y-126974000D01*
X221897939Y-126938155D01*
X222100774Y-126861261D01*
X222284710Y-126746274D01*
X222442679Y-126597612D01*
X222568610Y-126420988D01*
X222657664Y-126223190D01*
X222685156Y-126116381D01*
X222597659Y-125945000D01*
X221030000Y-125945000D01*
X220880000Y-125945000D01*
X219312341Y-125945000D01*
X219224844Y-126116381D01*
X216823624Y-126116381D01*
X216855000Y-125958642D01*
X216855000Y-125781358D01*
X216823625Y-125623619D01*
X219224844Y-125623619D01*
X219312341Y-125795000D01*
X220880000Y-125795000D01*
X220880000Y-124766000D01*
X221030000Y-124766000D01*
X221030000Y-125795000D01*
X222597659Y-125795000D01*
X222604623Y-125781358D01*
X225055000Y-125781358D01*
X225055000Y-125958642D01*
X225089586Y-126132520D01*
X225157430Y-126296310D01*
X225255924Y-126443717D01*
X225381283Y-126569076D01*
X225528690Y-126667570D01*
X225692480Y-126735414D01*
X225866358Y-126770000D01*
X226043642Y-126770000D01*
X226217520Y-126735414D01*
X226381310Y-126667570D01*
X226528717Y-126569076D01*
X226654076Y-126443717D01*
X226752570Y-126296310D01*
X226820414Y-126132520D01*
X226855000Y-125958642D01*
X226855000Y-125781358D01*
X226820414Y-125607480D01*
X226752570Y-125443690D01*
X226654076Y-125296283D01*
X226528717Y-125170924D01*
X226381310Y-125072430D01*
X226217520Y-125004586D01*
X226043642Y-124970000D01*
X225866358Y-124970000D01*
X225692480Y-125004586D01*
X225528690Y-125072430D01*
X225381283Y-125170924D01*
X225255924Y-125296283D01*
X225157430Y-125443690D01*
X225089586Y-125607480D01*
X225055000Y-125781358D01*
X222604623Y-125781358D01*
X222685156Y-125623619D01*
X222657664Y-125516810D01*
X222568610Y-125319012D01*
X222442679Y-125142388D01*
X222284710Y-124993726D01*
X222100774Y-124878739D01*
X221897939Y-124801845D01*
X221684000Y-124766000D01*
X221030000Y-124766000D01*
X220880000Y-124766000D01*
X220226000Y-124766000D01*
X220012061Y-124801845D01*
X219809226Y-124878739D01*
X219625290Y-124993726D01*
X219467321Y-125142388D01*
X219341390Y-125319012D01*
X219252336Y-125516810D01*
X219224844Y-125623619D01*
X216823625Y-125623619D01*
X216820414Y-125607480D01*
X216752570Y-125443690D01*
X216654076Y-125296283D01*
X216528717Y-125170924D01*
X216381310Y-125072430D01*
X216217520Y-125004586D01*
X216043642Y-124970000D01*
X215866358Y-124970000D01*
X215692480Y-125004586D01*
X215528690Y-125072430D01*
X215381283Y-125170924D01*
X215255924Y-125296283D01*
X215157430Y-125443690D01*
X215089586Y-125607480D01*
X215055000Y-125781358D01*
X200735000Y-125781358D01*
X200735000Y-120169145D01*
X215001000Y-120169145D01*
X215001001Y-121570856D01*
X215014806Y-121711017D01*
X215069356Y-121890846D01*
X215157942Y-122056578D01*
X215277158Y-122201843D01*
X215422423Y-122321059D01*
X215588155Y-122409645D01*
X215767984Y-122464195D01*
X215955000Y-122482615D01*
X216142017Y-122464195D01*
X216321846Y-122409645D01*
X216487578Y-122321059D01*
X216632843Y-122201843D01*
X216752059Y-122056578D01*
X216840645Y-121890846D01*
X216895195Y-121711017D01*
X216909000Y-121570856D01*
X216909000Y-120781358D01*
X220055000Y-120781358D01*
X220055000Y-120958642D01*
X220089586Y-121132520D01*
X220157430Y-121296310D01*
X220255924Y-121443717D01*
X220381283Y-121569076D01*
X220528690Y-121667570D01*
X220692480Y-121735414D01*
X220866358Y-121770000D01*
X221043642Y-121770000D01*
X221217520Y-121735414D01*
X221381310Y-121667570D01*
X221528717Y-121569076D01*
X221654076Y-121443717D01*
X221752570Y-121296310D01*
X221820414Y-121132520D01*
X221855000Y-120958642D01*
X221855000Y-120781358D01*
X221820414Y-120607480D01*
X221752570Y-120443690D01*
X221654076Y-120296283D01*
X221528717Y-120170924D01*
X221526055Y-120169145D01*
X225001000Y-120169145D01*
X225001001Y-121570856D01*
X225014806Y-121711017D01*
X225069356Y-121890846D01*
X225157942Y-122056578D01*
X225277158Y-122201843D01*
X225422423Y-122321059D01*
X225588155Y-122409645D01*
X225767984Y-122464195D01*
X225955000Y-122482615D01*
X226133843Y-122465000D01*
X258523549Y-122465000D01*
X258523549Y-125465000D01*
X258529341Y-125523810D01*
X258546496Y-125580360D01*
X258574353Y-125632477D01*
X258611842Y-125678158D01*
X258657523Y-125715647D01*
X258709640Y-125743504D01*
X258766190Y-125760659D01*
X258825000Y-125766451D01*
X261825000Y-125766451D01*
X261883810Y-125760659D01*
X261940360Y-125743504D01*
X261992477Y-125715647D01*
X262038158Y-125678158D01*
X262075647Y-125632477D01*
X262103504Y-125580360D01*
X262120659Y-125523810D01*
X262126451Y-125465000D01*
X262126451Y-122465000D01*
X262120659Y-122406190D01*
X262103504Y-122349640D01*
X262075647Y-122297523D01*
X262038158Y-122251842D01*
X261992477Y-122214353D01*
X261940360Y-122186496D01*
X261883810Y-122169341D01*
X261825000Y-122163549D01*
X258825000Y-122163549D01*
X258766190Y-122169341D01*
X258709640Y-122186496D01*
X258657523Y-122214353D01*
X258611842Y-122251842D01*
X258574353Y-122297523D01*
X258546496Y-122349640D01*
X258529341Y-122406190D01*
X258523549Y-122465000D01*
X226133843Y-122465000D01*
X226142017Y-122464195D01*
X226321846Y-122409645D01*
X226487578Y-122321059D01*
X226632843Y-122201843D01*
X226752059Y-122056578D01*
X226840645Y-121890846D01*
X226895195Y-121711017D01*
X226909000Y-121570856D01*
X226909000Y-120169144D01*
X226895195Y-120028983D01*
X226840645Y-119849154D01*
X226752059Y-119683422D01*
X226632843Y-119538157D01*
X226487578Y-119418941D01*
X226321845Y-119330355D01*
X226142016Y-119275805D01*
X225955000Y-119257385D01*
X225767983Y-119275805D01*
X225588154Y-119330355D01*
X225422422Y-119418941D01*
X225277157Y-119538157D01*
X225157941Y-119683422D01*
X225069355Y-119849155D01*
X225014805Y-120028984D01*
X225001000Y-120169145D01*
X221526055Y-120169145D01*
X221381310Y-120072430D01*
X221217520Y-120004586D01*
X221043642Y-119970000D01*
X220866358Y-119970000D01*
X220692480Y-120004586D01*
X220528690Y-120072430D01*
X220381283Y-120170924D01*
X220255924Y-120296283D01*
X220157430Y-120443690D01*
X220089586Y-120607480D01*
X220055000Y-120781358D01*
X216909000Y-120781358D01*
X216909000Y-120169144D01*
X216895195Y-120028983D01*
X216840645Y-119849154D01*
X216752059Y-119683422D01*
X216632843Y-119538157D01*
X216487578Y-119418941D01*
X216321845Y-119330355D01*
X216142016Y-119275805D01*
X215955000Y-119257385D01*
X215767983Y-119275805D01*
X215588154Y-119330355D01*
X215422422Y-119418941D01*
X215277157Y-119538157D01*
X215157941Y-119683422D01*
X215069355Y-119849155D01*
X215014805Y-120028984D01*
X215001000Y-120169145D01*
X200735000Y-120169145D01*
X200735000Y-118707716D01*
X258525000Y-118707716D01*
X258525000Y-119062284D01*
X258594173Y-119410041D01*
X258729861Y-119737620D01*
X258926849Y-120032433D01*
X259177567Y-120283151D01*
X259472380Y-120480139D01*
X259799959Y-120615827D01*
X260147716Y-120685000D01*
X260502284Y-120685000D01*
X260850041Y-120615827D01*
X261177620Y-120480139D01*
X261472433Y-120283151D01*
X261723151Y-120032433D01*
X261920139Y-119737620D01*
X262055827Y-119410041D01*
X262125000Y-119062284D01*
X262125000Y-118707716D01*
X262055827Y-118359959D01*
X261920139Y-118032380D01*
X261723151Y-117737567D01*
X261472433Y-117486849D01*
X261177620Y-117289861D01*
X260850041Y-117154173D01*
X260502284Y-117085000D01*
X260147716Y-117085000D01*
X259799959Y-117154173D01*
X259472380Y-117289861D01*
X259177567Y-117486849D01*
X258926849Y-117737567D01*
X258729861Y-118032380D01*
X258594173Y-118359959D01*
X258525000Y-118707716D01*
X200735000Y-118707716D01*
X200735000Y-115636131D01*
X218300000Y-115636131D01*
X218300000Y-115783869D01*
X218328822Y-115928767D01*
X218385359Y-116065258D01*
X218467437Y-116188097D01*
X218571903Y-116292563D01*
X218694742Y-116374641D01*
X218831233Y-116431178D01*
X218976131Y-116460000D01*
X219123869Y-116460000D01*
X219268767Y-116431178D01*
X219405258Y-116374641D01*
X219528097Y-116292563D01*
X219632563Y-116188097D01*
X219714641Y-116065258D01*
X219771178Y-115928767D01*
X219800000Y-115783869D01*
X219800000Y-115743473D01*
X220692495Y-114850979D01*
X220713632Y-114833632D01*
X220782863Y-114749275D01*
X220834305Y-114653032D01*
X220865984Y-114548603D01*
X220874000Y-114467212D01*
X220874000Y-114467203D01*
X220876679Y-114440001D01*
X220874000Y-114412799D01*
X220874000Y-111654421D01*
X242287164Y-111654421D01*
X242287164Y-111802159D01*
X242315986Y-111947057D01*
X242372523Y-112083548D01*
X242454601Y-112206387D01*
X242559067Y-112310853D01*
X242681906Y-112392931D01*
X242818397Y-112449468D01*
X242963295Y-112478290D01*
X243111033Y-112478290D01*
X243255931Y-112449468D01*
X243392422Y-112392931D01*
X243515261Y-112310853D01*
X243619727Y-112206387D01*
X243701805Y-112083548D01*
X243758342Y-111947057D01*
X243787164Y-111802159D01*
X243787164Y-111654421D01*
X243758342Y-111509523D01*
X243701805Y-111373032D01*
X243619727Y-111250193D01*
X243515261Y-111145727D01*
X243464164Y-111111585D01*
X243464164Y-106802844D01*
X244020428Y-106246581D01*
X244024203Y-106247332D01*
X243982822Y-106347233D01*
X243954000Y-106492131D01*
X243954000Y-106639869D01*
X243982822Y-106784767D01*
X244023001Y-106881767D01*
X244023000Y-110267295D01*
X243971903Y-110301437D01*
X243867437Y-110405903D01*
X243785359Y-110528742D01*
X243728822Y-110665233D01*
X243700000Y-110810131D01*
X243700000Y-110957869D01*
X243728822Y-111102767D01*
X243785359Y-111239258D01*
X243867437Y-111362097D01*
X243971903Y-111466563D01*
X244094742Y-111548641D01*
X244231233Y-111605178D01*
X244376131Y-111634000D01*
X244523869Y-111634000D01*
X244668767Y-111605178D01*
X244805258Y-111548641D01*
X244928097Y-111466563D01*
X245032563Y-111362097D01*
X245114641Y-111239258D01*
X245171178Y-111102767D01*
X245174171Y-111087716D01*
X258525000Y-111087716D01*
X258525000Y-111442284D01*
X258594173Y-111790041D01*
X258729861Y-112117620D01*
X258926849Y-112412433D01*
X259177567Y-112663151D01*
X259472380Y-112860139D01*
X259799959Y-112995827D01*
X260147716Y-113065000D01*
X260502284Y-113065000D01*
X260850041Y-112995827D01*
X261177620Y-112860139D01*
X261472433Y-112663151D01*
X261723151Y-112412433D01*
X261920139Y-112117620D01*
X262055827Y-111790041D01*
X262125000Y-111442284D01*
X262125000Y-111087716D01*
X262055827Y-110739959D01*
X261920139Y-110412380D01*
X261723151Y-110117567D01*
X261472433Y-109866849D01*
X261177620Y-109669861D01*
X260850041Y-109534173D01*
X260502284Y-109465000D01*
X260147716Y-109465000D01*
X259799959Y-109534173D01*
X259472380Y-109669861D01*
X259177567Y-109866849D01*
X258926849Y-110117567D01*
X258729861Y-110412380D01*
X258594173Y-110739959D01*
X258525000Y-111087716D01*
X245174171Y-111087716D01*
X245200000Y-110957869D01*
X245200000Y-110810131D01*
X245171178Y-110665233D01*
X245114641Y-110528742D01*
X245032563Y-110405903D01*
X244928097Y-110301437D01*
X244877000Y-110267295D01*
X244877000Y-107296282D01*
X244922767Y-107287178D01*
X245059258Y-107230641D01*
X245182097Y-107148563D01*
X245286563Y-107044097D01*
X245368641Y-106921258D01*
X245425178Y-106784767D01*
X245454000Y-106639869D01*
X245454000Y-106492131D01*
X245425178Y-106347233D01*
X245368641Y-106210742D01*
X245286563Y-106087903D01*
X245182097Y-105983437D01*
X245059258Y-105901359D01*
X244922767Y-105844822D01*
X244834367Y-105827238D01*
X244875748Y-105727337D01*
X244904570Y-105582439D01*
X244904570Y-105434701D01*
X244875748Y-105289803D01*
X244819211Y-105153312D01*
X244737133Y-105030473D01*
X244632667Y-104926007D01*
X244509828Y-104843929D01*
X244373337Y-104787392D01*
X244228439Y-104758570D01*
X244080701Y-104758570D01*
X243935803Y-104787392D01*
X243799312Y-104843929D01*
X243676473Y-104926007D01*
X243572007Y-105030473D01*
X243489929Y-105153312D01*
X243433392Y-105289803D01*
X243404570Y-105434701D01*
X243404570Y-105582439D01*
X243416559Y-105642712D01*
X242750059Y-106309213D01*
X242733770Y-106322581D01*
X242720401Y-106338871D01*
X242720396Y-106338876D01*
X242680409Y-106387600D01*
X242661170Y-106423595D01*
X242640760Y-106461780D01*
X242624129Y-106516605D01*
X242616343Y-106542270D01*
X242608099Y-106625976D01*
X242610165Y-106646953D01*
X242610164Y-111111585D01*
X242559067Y-111145727D01*
X242454601Y-111250193D01*
X242372523Y-111373032D01*
X242315986Y-111509523D01*
X242287164Y-111654421D01*
X220874000Y-111654421D01*
X220874000Y-110501660D01*
X220902563Y-110473097D01*
X220984641Y-110350258D01*
X221041178Y-110213767D01*
X221070000Y-110068869D01*
X221070000Y-109921131D01*
X221041178Y-109776233D01*
X220984641Y-109639742D01*
X220902563Y-109516903D01*
X220798097Y-109412437D01*
X220675258Y-109330359D01*
X220538767Y-109273822D01*
X220393869Y-109245000D01*
X220246131Y-109245000D01*
X220101233Y-109273822D01*
X219964742Y-109330359D01*
X219841903Y-109412437D01*
X219737437Y-109516903D01*
X219655359Y-109639742D01*
X219598822Y-109776233D01*
X219570000Y-109921131D01*
X219570000Y-110068869D01*
X219598822Y-110213767D01*
X219655359Y-110350258D01*
X219737437Y-110473097D01*
X219766001Y-110501661D01*
X219766000Y-114210526D01*
X219016527Y-114960000D01*
X218976131Y-114960000D01*
X218831233Y-114988822D01*
X218694742Y-115045359D01*
X218571903Y-115127437D01*
X218467437Y-115231903D01*
X218385359Y-115354742D01*
X218328822Y-115491233D01*
X218300000Y-115636131D01*
X200735000Y-115636131D01*
X200735000Y-104685000D01*
X258523549Y-104685000D01*
X258523549Y-107685000D01*
X258529341Y-107743810D01*
X258546496Y-107800360D01*
X258574353Y-107852477D01*
X258611842Y-107898158D01*
X258657523Y-107935647D01*
X258709640Y-107963504D01*
X258766190Y-107980659D01*
X258825000Y-107986451D01*
X261825000Y-107986451D01*
X261883810Y-107980659D01*
X261940360Y-107963504D01*
X261992477Y-107935647D01*
X262038158Y-107898158D01*
X262075647Y-107852477D01*
X262103504Y-107800360D01*
X262120659Y-107743810D01*
X262126451Y-107685000D01*
X262126451Y-104685000D01*
X262120659Y-104626190D01*
X262103504Y-104569640D01*
X262075647Y-104517523D01*
X262038158Y-104471842D01*
X261992477Y-104434353D01*
X261940360Y-104406496D01*
X261883810Y-104389341D01*
X261825000Y-104383549D01*
X258825000Y-104383549D01*
X258766190Y-104389341D01*
X258709640Y-104406496D01*
X258657523Y-104434353D01*
X258611842Y-104471842D01*
X258574353Y-104517523D01*
X258546496Y-104569640D01*
X258529341Y-104626190D01*
X258523549Y-104685000D01*
X200735000Y-104685000D01*
X200735000Y-97337489D01*
X201850000Y-97337489D01*
X201850000Y-97662511D01*
X201913408Y-97981287D01*
X202037789Y-98281568D01*
X202218361Y-98551814D01*
X202448186Y-98781639D01*
X202718432Y-98962211D01*
X203018713Y-99086592D01*
X203337489Y-99150000D01*
X203662511Y-99150000D01*
X203981287Y-99086592D01*
X204281568Y-98962211D01*
X204551814Y-98781639D01*
X204781639Y-98551814D01*
X204962211Y-98281568D01*
X205086592Y-97981287D01*
X205098782Y-97920000D01*
X207218549Y-97920000D01*
X207218549Y-99620000D01*
X207224341Y-99678810D01*
X207241496Y-99735360D01*
X207269353Y-99787477D01*
X207306842Y-99833158D01*
X207352523Y-99870647D01*
X207404640Y-99898504D01*
X207461190Y-99915659D01*
X207520000Y-99921451D01*
X209220000Y-99921451D01*
X209278810Y-99915659D01*
X209335360Y-99898504D01*
X209387477Y-99870647D01*
X209433158Y-99833158D01*
X209470647Y-99787477D01*
X209498504Y-99735360D01*
X209515659Y-99678810D01*
X209521451Y-99620000D01*
X209521451Y-98656735D01*
X209760000Y-98656735D01*
X209760000Y-98883265D01*
X209804194Y-99105443D01*
X209890884Y-99314729D01*
X210016737Y-99503082D01*
X210176918Y-99663263D01*
X210365271Y-99789116D01*
X210574557Y-99875806D01*
X210796735Y-99920000D01*
X211023265Y-99920000D01*
X211245443Y-99875806D01*
X211454729Y-99789116D01*
X211643082Y-99663263D01*
X211803263Y-99503082D01*
X211929116Y-99314729D01*
X212015806Y-99105443D01*
X212060000Y-98883265D01*
X212060000Y-98656735D01*
X212300000Y-98656735D01*
X212300000Y-98883265D01*
X212344194Y-99105443D01*
X212430884Y-99314729D01*
X212556737Y-99503082D01*
X212716918Y-99663263D01*
X212905271Y-99789116D01*
X213114557Y-99875806D01*
X213336735Y-99920000D01*
X213563265Y-99920000D01*
X213785443Y-99875806D01*
X213994729Y-99789116D01*
X214183082Y-99663263D01*
X214343263Y-99503082D01*
X214469116Y-99314729D01*
X214555806Y-99105443D01*
X214600000Y-98883265D01*
X214600000Y-98656735D01*
X214840000Y-98656735D01*
X214840000Y-98883265D01*
X214884194Y-99105443D01*
X214970884Y-99314729D01*
X215096737Y-99503082D01*
X215256918Y-99663263D01*
X215445271Y-99789116D01*
X215654557Y-99875806D01*
X215876735Y-99920000D01*
X216103265Y-99920000D01*
X216325443Y-99875806D01*
X216534729Y-99789116D01*
X216723082Y-99663263D01*
X216883263Y-99503082D01*
X217009116Y-99314729D01*
X217095806Y-99105443D01*
X217107410Y-99047103D01*
X217259873Y-99047103D01*
X217338338Y-99289568D01*
X217462598Y-99512066D01*
X217627878Y-99706047D01*
X217827826Y-99864056D01*
X218054758Y-99980021D01*
X218252897Y-100040124D01*
X218455000Y-99955129D01*
X218455000Y-98845000D01*
X218605000Y-98845000D01*
X218605000Y-99955129D01*
X218807103Y-100040124D01*
X219005242Y-99980021D01*
X219232174Y-99864056D01*
X219432122Y-99706047D01*
X219597402Y-99512066D01*
X219721662Y-99289568D01*
X219800127Y-99047103D01*
X219715338Y-98845000D01*
X218605000Y-98845000D01*
X218455000Y-98845000D01*
X217344662Y-98845000D01*
X217259873Y-99047103D01*
X217107410Y-99047103D01*
X217140000Y-98883265D01*
X217140000Y-98656735D01*
X217107411Y-98492897D01*
X217259873Y-98492897D01*
X217344662Y-98695000D01*
X218455000Y-98695000D01*
X218455000Y-97584871D01*
X218605000Y-97584871D01*
X218605000Y-98695000D01*
X219715338Y-98695000D01*
X219731391Y-98656735D01*
X219920000Y-98656735D01*
X219920000Y-98883265D01*
X219964194Y-99105443D01*
X220050884Y-99314729D01*
X220176737Y-99503082D01*
X220336918Y-99663263D01*
X220525271Y-99789116D01*
X220734557Y-99875806D01*
X220956735Y-99920000D01*
X221183265Y-99920000D01*
X221405443Y-99875806D01*
X221614729Y-99789116D01*
X221803082Y-99663263D01*
X221963263Y-99503082D01*
X222089116Y-99314729D01*
X222175806Y-99105443D01*
X222220000Y-98883265D01*
X222220000Y-98656735D01*
X222460000Y-98656735D01*
X222460000Y-98883265D01*
X222504194Y-99105443D01*
X222590884Y-99314729D01*
X222716737Y-99503082D01*
X222876918Y-99663263D01*
X223065271Y-99789116D01*
X223274557Y-99875806D01*
X223496735Y-99920000D01*
X223723265Y-99920000D01*
X223945443Y-99875806D01*
X224154729Y-99789116D01*
X224343082Y-99663263D01*
X224503263Y-99503082D01*
X224629116Y-99314729D01*
X224715806Y-99105443D01*
X224760000Y-98883265D01*
X224760000Y-98656735D01*
X225000000Y-98656735D01*
X225000000Y-98883265D01*
X225044194Y-99105443D01*
X225130884Y-99314729D01*
X225256737Y-99503082D01*
X225416918Y-99663263D01*
X225605271Y-99789116D01*
X225814557Y-99875806D01*
X226036735Y-99920000D01*
X226263265Y-99920000D01*
X226485443Y-99875806D01*
X226694729Y-99789116D01*
X226883082Y-99663263D01*
X227043263Y-99503082D01*
X227169116Y-99314729D01*
X227255806Y-99105443D01*
X227300000Y-98883265D01*
X227300000Y-98656735D01*
X227540000Y-98656735D01*
X227540000Y-98883265D01*
X227584194Y-99105443D01*
X227670884Y-99314729D01*
X227796737Y-99503082D01*
X227956918Y-99663263D01*
X228145271Y-99789116D01*
X228354557Y-99875806D01*
X228576735Y-99920000D01*
X228803265Y-99920000D01*
X229025443Y-99875806D01*
X229234729Y-99789116D01*
X229423082Y-99663263D01*
X229583263Y-99503082D01*
X229709116Y-99314729D01*
X229795806Y-99105443D01*
X229840000Y-98883265D01*
X229840000Y-98656735D01*
X230080000Y-98656735D01*
X230080000Y-98883265D01*
X230124194Y-99105443D01*
X230210884Y-99314729D01*
X230336737Y-99503082D01*
X230496918Y-99663263D01*
X230685271Y-99789116D01*
X230894557Y-99875806D01*
X231116735Y-99920000D01*
X231343265Y-99920000D01*
X231565443Y-99875806D01*
X231774729Y-99789116D01*
X231963082Y-99663263D01*
X232123263Y-99503082D01*
X232249116Y-99314729D01*
X232335806Y-99105443D01*
X232380000Y-98883265D01*
X232380000Y-98656735D01*
X232620000Y-98656735D01*
X232620000Y-98883265D01*
X232664194Y-99105443D01*
X232750884Y-99314729D01*
X232876737Y-99503082D01*
X233036918Y-99663263D01*
X233225271Y-99789116D01*
X233434557Y-99875806D01*
X233656735Y-99920000D01*
X233883265Y-99920000D01*
X234105443Y-99875806D01*
X234314729Y-99789116D01*
X234503082Y-99663263D01*
X234663263Y-99503082D01*
X234789116Y-99314729D01*
X234875806Y-99105443D01*
X234920000Y-98883265D01*
X234920000Y-98656735D01*
X235160000Y-98656735D01*
X235160000Y-98883265D01*
X235204194Y-99105443D01*
X235290884Y-99314729D01*
X235416737Y-99503082D01*
X235576918Y-99663263D01*
X235765271Y-99789116D01*
X235974557Y-99875806D01*
X236196735Y-99920000D01*
X236423265Y-99920000D01*
X236645443Y-99875806D01*
X236854729Y-99789116D01*
X237043082Y-99663263D01*
X237203263Y-99503082D01*
X237329116Y-99314729D01*
X237415806Y-99105443D01*
X237427410Y-99047103D01*
X237579873Y-99047103D01*
X237658338Y-99289568D01*
X237782598Y-99512066D01*
X237947878Y-99706047D01*
X238147826Y-99864056D01*
X238374758Y-99980021D01*
X238572897Y-100040124D01*
X238775000Y-99955129D01*
X238775000Y-98845000D01*
X238925000Y-98845000D01*
X238925000Y-99955129D01*
X239127103Y-100040124D01*
X239325242Y-99980021D01*
X239552174Y-99864056D01*
X239752122Y-99706047D01*
X239917402Y-99512066D01*
X240041662Y-99289568D01*
X240120127Y-99047103D01*
X240035338Y-98845000D01*
X238925000Y-98845000D01*
X238775000Y-98845000D01*
X237664662Y-98845000D01*
X237579873Y-99047103D01*
X237427410Y-99047103D01*
X237460000Y-98883265D01*
X237460000Y-98656735D01*
X237427411Y-98492897D01*
X237579873Y-98492897D01*
X237664662Y-98695000D01*
X238775000Y-98695000D01*
X238775000Y-97584871D01*
X238925000Y-97584871D01*
X238925000Y-98695000D01*
X240035338Y-98695000D01*
X240051391Y-98656735D01*
X240240000Y-98656735D01*
X240240000Y-98883265D01*
X240284194Y-99105443D01*
X240370884Y-99314729D01*
X240496737Y-99503082D01*
X240656918Y-99663263D01*
X240845271Y-99789116D01*
X241054557Y-99875806D01*
X241276735Y-99920000D01*
X241503265Y-99920000D01*
X241725443Y-99875806D01*
X241925726Y-99792845D01*
X241880359Y-99860742D01*
X241823822Y-99997233D01*
X241795000Y-100142131D01*
X241795000Y-100289869D01*
X241823822Y-100434767D01*
X241880359Y-100571258D01*
X241962437Y-100694097D01*
X242066903Y-100798563D01*
X242189742Y-100880641D01*
X242326233Y-100937178D01*
X242471131Y-100966000D01*
X242605387Y-100966000D01*
X242585822Y-101013233D01*
X242557000Y-101158131D01*
X242557000Y-101305869D01*
X242585822Y-101450767D01*
X242642359Y-101587258D01*
X242724437Y-101710097D01*
X242828903Y-101814563D01*
X242951742Y-101896641D01*
X243088233Y-101953178D01*
X243233131Y-101982000D01*
X243380869Y-101982000D01*
X243525767Y-101953178D01*
X243662258Y-101896641D01*
X243785097Y-101814563D01*
X243889563Y-101710097D01*
X243923705Y-101659000D01*
X243987033Y-101659000D01*
X244008000Y-101661065D01*
X244028967Y-101659000D01*
X244028978Y-101659000D01*
X244091707Y-101652822D01*
X244172196Y-101628405D01*
X244246376Y-101588755D01*
X244311395Y-101535395D01*
X244324768Y-101519100D01*
X246016828Y-99827041D01*
X246134557Y-99875806D01*
X246356735Y-99920000D01*
X246583265Y-99920000D01*
X246805443Y-99875806D01*
X247014729Y-99789116D01*
X247203082Y-99663263D01*
X247363263Y-99503082D01*
X247489116Y-99314729D01*
X247575806Y-99105443D01*
X247620000Y-98883265D01*
X247620000Y-98656735D01*
X247575806Y-98434557D01*
X247489116Y-98225271D01*
X247363263Y-98036918D01*
X247203082Y-97876737D01*
X247139123Y-97834001D01*
X248340877Y-97834001D01*
X248276918Y-97876737D01*
X248116737Y-98036918D01*
X247990884Y-98225271D01*
X247904194Y-98434557D01*
X247860000Y-98656735D01*
X247860000Y-98883265D01*
X247904194Y-99105443D01*
X247952959Y-99223171D01*
X244974132Y-102202000D01*
X243034705Y-102202000D01*
X243000563Y-102150903D01*
X242896097Y-102046437D01*
X242773258Y-101964359D01*
X242636767Y-101907822D01*
X242491869Y-101879000D01*
X242344131Y-101879000D01*
X242199233Y-101907822D01*
X242062742Y-101964359D01*
X241939903Y-102046437D01*
X241835437Y-102150903D01*
X241753359Y-102273742D01*
X241696822Y-102410233D01*
X241668000Y-102555131D01*
X241668000Y-102702869D01*
X241696822Y-102847767D01*
X241753359Y-102984258D01*
X241835437Y-103107097D01*
X241939903Y-103211563D01*
X242062742Y-103293641D01*
X242199233Y-103350178D01*
X242344131Y-103379000D01*
X242491869Y-103379000D01*
X242636767Y-103350178D01*
X242773258Y-103293641D01*
X242896097Y-103211563D01*
X243000563Y-103107097D01*
X243034705Y-103056000D01*
X245130033Y-103056000D01*
X245151000Y-103058065D01*
X245171967Y-103056000D01*
X245171978Y-103056000D01*
X245234707Y-103049822D01*
X245315196Y-103025405D01*
X245389376Y-102985755D01*
X245454395Y-102932395D01*
X245467768Y-102916100D01*
X248556829Y-99827041D01*
X248674557Y-99875806D01*
X248896735Y-99920000D01*
X249123265Y-99920000D01*
X249345443Y-99875806D01*
X249554729Y-99789116D01*
X249743082Y-99663263D01*
X249903263Y-99503082D01*
X250029116Y-99314729D01*
X250115806Y-99105443D01*
X250160000Y-98883265D01*
X250160000Y-98656735D01*
X250400000Y-98656735D01*
X250400000Y-98883265D01*
X250444194Y-99105443D01*
X250530884Y-99314729D01*
X250656737Y-99503082D01*
X250816918Y-99663263D01*
X251005271Y-99789116D01*
X251214557Y-99875806D01*
X251436735Y-99920000D01*
X251663265Y-99920000D01*
X251885443Y-99875806D01*
X252094729Y-99789116D01*
X252283082Y-99663263D01*
X252443263Y-99503082D01*
X252569116Y-99314729D01*
X252655806Y-99105443D01*
X252700000Y-98883265D01*
X252700000Y-98656735D01*
X252940000Y-98656735D01*
X252940000Y-98883265D01*
X252984194Y-99105443D01*
X253070884Y-99314729D01*
X253196737Y-99503082D01*
X253356918Y-99663263D01*
X253545271Y-99789116D01*
X253754557Y-99875806D01*
X253976735Y-99920000D01*
X254203265Y-99920000D01*
X254425443Y-99875806D01*
X254634729Y-99789116D01*
X254823082Y-99663263D01*
X254983263Y-99503082D01*
X255109116Y-99314729D01*
X255195806Y-99105443D01*
X255207410Y-99047103D01*
X255359873Y-99047103D01*
X255438338Y-99289568D01*
X255562598Y-99512066D01*
X255727878Y-99706047D01*
X255927826Y-99864056D01*
X256154758Y-99980021D01*
X256352897Y-100040124D01*
X256555000Y-99955129D01*
X256555000Y-98845000D01*
X256705000Y-98845000D01*
X256705000Y-99955129D01*
X256907103Y-100040124D01*
X257105242Y-99980021D01*
X257332174Y-99864056D01*
X257532122Y-99706047D01*
X257697402Y-99512066D01*
X257821662Y-99289568D01*
X257900127Y-99047103D01*
X257815338Y-98845000D01*
X256705000Y-98845000D01*
X256555000Y-98845000D01*
X255444662Y-98845000D01*
X255359873Y-99047103D01*
X255207410Y-99047103D01*
X255240000Y-98883265D01*
X255240000Y-98656735D01*
X255207411Y-98492897D01*
X255359873Y-98492897D01*
X255444662Y-98695000D01*
X256555000Y-98695000D01*
X256555000Y-97584871D01*
X256705000Y-97584871D01*
X256705000Y-98695000D01*
X257815338Y-98695000D01*
X257900127Y-98492897D01*
X257821662Y-98250432D01*
X257697402Y-98027934D01*
X257532122Y-97833953D01*
X257332174Y-97675944D01*
X257105242Y-97559979D01*
X256907103Y-97499876D01*
X256705000Y-97584871D01*
X256555000Y-97584871D01*
X256352897Y-97499876D01*
X256154758Y-97559979D01*
X255927826Y-97675944D01*
X255727878Y-97833953D01*
X255562598Y-98027934D01*
X255438338Y-98250432D01*
X255359873Y-98492897D01*
X255207411Y-98492897D01*
X255195806Y-98434557D01*
X255109116Y-98225271D01*
X254983263Y-98036918D01*
X254823082Y-97876737D01*
X254634729Y-97750884D01*
X254425443Y-97664194D01*
X254203265Y-97620000D01*
X253976735Y-97620000D01*
X253754557Y-97664194D01*
X253545271Y-97750884D01*
X253356918Y-97876737D01*
X253196737Y-98036918D01*
X253070884Y-98225271D01*
X252984194Y-98434557D01*
X252940000Y-98656735D01*
X252700000Y-98656735D01*
X252655806Y-98434557D01*
X252569116Y-98225271D01*
X252443263Y-98036918D01*
X252283082Y-97876737D01*
X252094729Y-97750884D01*
X251885443Y-97664194D01*
X251663265Y-97620000D01*
X251436735Y-97620000D01*
X251214557Y-97664194D01*
X251005271Y-97750884D01*
X250816918Y-97876737D01*
X250656737Y-98036918D01*
X250530884Y-98225271D01*
X250444194Y-98434557D01*
X250400000Y-98656735D01*
X250160000Y-98656735D01*
X250115806Y-98434557D01*
X250029116Y-98225271D01*
X249903263Y-98036918D01*
X249743082Y-97876737D01*
X249679123Y-97834001D01*
X250352032Y-97834001D01*
X250372999Y-97836066D01*
X250393966Y-97834001D01*
X250393977Y-97834001D01*
X250456706Y-97827823D01*
X250537195Y-97803406D01*
X250611375Y-97763756D01*
X250676394Y-97710396D01*
X250689767Y-97694101D01*
X251096828Y-97287040D01*
X251214557Y-97335806D01*
X251436735Y-97380000D01*
X251663265Y-97380000D01*
X251885443Y-97335806D01*
X252094729Y-97249116D01*
X252283082Y-97123263D01*
X252443263Y-96963082D01*
X252569116Y-96774729D01*
X252655806Y-96565443D01*
X252700000Y-96343265D01*
X252700000Y-96116735D01*
X252940000Y-96116735D01*
X252940000Y-96343265D01*
X252984194Y-96565443D01*
X253070884Y-96774729D01*
X253196737Y-96963082D01*
X253356918Y-97123263D01*
X253545271Y-97249116D01*
X253754557Y-97335806D01*
X253976735Y-97380000D01*
X254203265Y-97380000D01*
X254425443Y-97335806D01*
X254634729Y-97249116D01*
X254823082Y-97123263D01*
X254983263Y-96963082D01*
X255109116Y-96774729D01*
X255195806Y-96565443D01*
X255240000Y-96343265D01*
X255240000Y-96116735D01*
X255480000Y-96116735D01*
X255480000Y-96343265D01*
X255524194Y-96565443D01*
X255610884Y-96774729D01*
X255736737Y-96963082D01*
X255896918Y-97123263D01*
X256085271Y-97249116D01*
X256294557Y-97335806D01*
X256516735Y-97380000D01*
X256743265Y-97380000D01*
X256956981Y-97337489D01*
X259850000Y-97337489D01*
X259850000Y-97662511D01*
X259913408Y-97981287D01*
X260037789Y-98281568D01*
X260218361Y-98551814D01*
X260448186Y-98781639D01*
X260718432Y-98962211D01*
X261018713Y-99086592D01*
X261337489Y-99150000D01*
X261662511Y-99150000D01*
X261981287Y-99086592D01*
X262281568Y-98962211D01*
X262551814Y-98781639D01*
X262781639Y-98551814D01*
X262962211Y-98281568D01*
X263086592Y-97981287D01*
X263150000Y-97662511D01*
X263150000Y-97337489D01*
X263086592Y-97018713D01*
X262962211Y-96718432D01*
X262781639Y-96448186D01*
X262551814Y-96218361D01*
X262281568Y-96037789D01*
X261981287Y-95913408D01*
X261662511Y-95850000D01*
X261337489Y-95850000D01*
X261018713Y-95913408D01*
X260718432Y-96037789D01*
X260448186Y-96218361D01*
X260218361Y-96448186D01*
X260037789Y-96718432D01*
X259913408Y-97018713D01*
X259850000Y-97337489D01*
X256956981Y-97337489D01*
X256965443Y-97335806D01*
X257174729Y-97249116D01*
X257363082Y-97123263D01*
X257523263Y-96963082D01*
X257649116Y-96774729D01*
X257735806Y-96565443D01*
X257780000Y-96343265D01*
X257780000Y-96116735D01*
X257735806Y-95894557D01*
X257649116Y-95685271D01*
X257523263Y-95496918D01*
X257363082Y-95336737D01*
X257174729Y-95210884D01*
X256965443Y-95124194D01*
X256743265Y-95080000D01*
X256516735Y-95080000D01*
X256294557Y-95124194D01*
X256085271Y-95210884D01*
X255896918Y-95336737D01*
X255736737Y-95496918D01*
X255610884Y-95685271D01*
X255524194Y-95894557D01*
X255480000Y-96116735D01*
X255240000Y-96116735D01*
X255195806Y-95894557D01*
X255109116Y-95685271D01*
X254983263Y-95496918D01*
X254823082Y-95336737D01*
X254634729Y-95210884D01*
X254425443Y-95124194D01*
X254203265Y-95080000D01*
X253976735Y-95080000D01*
X253754557Y-95124194D01*
X253545271Y-95210884D01*
X253356918Y-95336737D01*
X253196737Y-95496918D01*
X253070884Y-95685271D01*
X252984194Y-95894557D01*
X252940000Y-96116735D01*
X252700000Y-96116735D01*
X252655806Y-95894557D01*
X252569116Y-95685271D01*
X252443263Y-95496918D01*
X252283082Y-95336737D01*
X252094729Y-95210884D01*
X251885443Y-95124194D01*
X251663265Y-95080000D01*
X251436735Y-95080000D01*
X251214557Y-95124194D01*
X251005271Y-95210884D01*
X250816918Y-95336737D01*
X250656737Y-95496918D01*
X250530884Y-95685271D01*
X250444194Y-95894557D01*
X250400000Y-96116735D01*
X250400000Y-96343265D01*
X250444194Y-96565443D01*
X250492960Y-96683172D01*
X250196131Y-96980001D01*
X250070641Y-96980001D01*
X250077402Y-96972066D01*
X250201662Y-96749568D01*
X250280127Y-96507103D01*
X250195338Y-96305000D01*
X249085000Y-96305000D01*
X249085000Y-96325000D01*
X248935000Y-96325000D01*
X248935000Y-96305000D01*
X247824662Y-96305000D01*
X247739873Y-96507103D01*
X247818338Y-96749568D01*
X247942598Y-96972066D01*
X247949359Y-96980001D01*
X247346344Y-96980001D01*
X247363263Y-96963082D01*
X247489116Y-96774729D01*
X247575806Y-96565443D01*
X247620000Y-96343265D01*
X247620000Y-96116735D01*
X247587411Y-95952897D01*
X247739873Y-95952897D01*
X247824662Y-96155000D01*
X248935000Y-96155000D01*
X248935000Y-95044871D01*
X249085000Y-95044871D01*
X249085000Y-96155000D01*
X250195338Y-96155000D01*
X250280127Y-95952897D01*
X250201662Y-95710432D01*
X250077402Y-95487934D01*
X249912122Y-95293953D01*
X249712174Y-95135944D01*
X249485242Y-95019979D01*
X249287103Y-94959876D01*
X249085000Y-95044871D01*
X248935000Y-95044871D01*
X248732897Y-94959876D01*
X248534758Y-95019979D01*
X248307826Y-95135944D01*
X248107878Y-95293953D01*
X247942598Y-95487934D01*
X247818338Y-95710432D01*
X247739873Y-95952897D01*
X247587411Y-95952897D01*
X247575806Y-95894557D01*
X247489116Y-95685271D01*
X247363263Y-95496918D01*
X247203082Y-95336737D01*
X247014729Y-95210884D01*
X246805443Y-95124194D01*
X246583265Y-95080000D01*
X246356735Y-95080000D01*
X246134557Y-95124194D01*
X245925271Y-95210884D01*
X245736918Y-95336737D01*
X245576737Y-95496918D01*
X245450884Y-95685271D01*
X245364194Y-95894557D01*
X245320000Y-96116735D01*
X245320000Y-96343265D01*
X245364194Y-96565443D01*
X245450884Y-96774729D01*
X245576737Y-96963082D01*
X245593656Y-96980001D01*
X244990641Y-96980001D01*
X244997402Y-96972066D01*
X245121662Y-96749568D01*
X245200127Y-96507103D01*
X245115338Y-96305000D01*
X244005000Y-96305000D01*
X244005000Y-96325000D01*
X243855000Y-96325000D01*
X243855000Y-96305000D01*
X242744662Y-96305000D01*
X242659873Y-96507103D01*
X242738338Y-96749568D01*
X242862598Y-96972066D01*
X243027878Y-97166047D01*
X243117387Y-97236781D01*
X242465894Y-97888276D01*
X242449605Y-97901644D01*
X242436236Y-97917934D01*
X242436231Y-97917939D01*
X242396244Y-97966663D01*
X242356595Y-98040843D01*
X242334516Y-98113624D01*
X242283263Y-98036918D01*
X242123082Y-97876737D01*
X241934729Y-97750884D01*
X241725443Y-97664194D01*
X241503265Y-97620000D01*
X241276735Y-97620000D01*
X241054557Y-97664194D01*
X240845271Y-97750884D01*
X240656918Y-97876737D01*
X240496737Y-98036918D01*
X240370884Y-98225271D01*
X240284194Y-98434557D01*
X240240000Y-98656735D01*
X240051391Y-98656735D01*
X240120127Y-98492897D01*
X240041662Y-98250432D01*
X239917402Y-98027934D01*
X239752122Y-97833953D01*
X239552174Y-97675944D01*
X239325242Y-97559979D01*
X239127103Y-97499876D01*
X238925000Y-97584871D01*
X238775000Y-97584871D01*
X238572897Y-97499876D01*
X238374758Y-97559979D01*
X238147826Y-97675944D01*
X237947878Y-97833953D01*
X237782598Y-98027934D01*
X237658338Y-98250432D01*
X237579873Y-98492897D01*
X237427411Y-98492897D01*
X237415806Y-98434557D01*
X237329116Y-98225271D01*
X237203263Y-98036918D01*
X237043082Y-97876737D01*
X236854729Y-97750884D01*
X236645443Y-97664194D01*
X236423265Y-97620000D01*
X236196735Y-97620000D01*
X235974557Y-97664194D01*
X235765271Y-97750884D01*
X235576918Y-97876737D01*
X235416737Y-98036918D01*
X235290884Y-98225271D01*
X235204194Y-98434557D01*
X235160000Y-98656735D01*
X234920000Y-98656735D01*
X234875806Y-98434557D01*
X234789116Y-98225271D01*
X234663263Y-98036918D01*
X234503082Y-97876737D01*
X234314729Y-97750884D01*
X234105443Y-97664194D01*
X233883265Y-97620000D01*
X233656735Y-97620000D01*
X233434557Y-97664194D01*
X233225271Y-97750884D01*
X233036918Y-97876737D01*
X232876737Y-98036918D01*
X232750884Y-98225271D01*
X232664194Y-98434557D01*
X232620000Y-98656735D01*
X232380000Y-98656735D01*
X232335806Y-98434557D01*
X232249116Y-98225271D01*
X232123263Y-98036918D01*
X231963082Y-97876737D01*
X231774729Y-97750884D01*
X231565443Y-97664194D01*
X231343265Y-97620000D01*
X231116735Y-97620000D01*
X230894557Y-97664194D01*
X230685271Y-97750884D01*
X230496918Y-97876737D01*
X230336737Y-98036918D01*
X230210884Y-98225271D01*
X230124194Y-98434557D01*
X230080000Y-98656735D01*
X229840000Y-98656735D01*
X229795806Y-98434557D01*
X229709116Y-98225271D01*
X229583263Y-98036918D01*
X229423082Y-97876737D01*
X229234729Y-97750884D01*
X229025443Y-97664194D01*
X228803265Y-97620000D01*
X228576735Y-97620000D01*
X228354557Y-97664194D01*
X228145271Y-97750884D01*
X227956918Y-97876737D01*
X227796737Y-98036918D01*
X227670884Y-98225271D01*
X227584194Y-98434557D01*
X227540000Y-98656735D01*
X227300000Y-98656735D01*
X227255806Y-98434557D01*
X227169116Y-98225271D01*
X227043263Y-98036918D01*
X226883082Y-97876737D01*
X226694729Y-97750884D01*
X226485443Y-97664194D01*
X226263265Y-97620000D01*
X226036735Y-97620000D01*
X225814557Y-97664194D01*
X225605271Y-97750884D01*
X225416918Y-97876737D01*
X225256737Y-98036918D01*
X225130884Y-98225271D01*
X225044194Y-98434557D01*
X225000000Y-98656735D01*
X224760000Y-98656735D01*
X224715806Y-98434557D01*
X224629116Y-98225271D01*
X224503263Y-98036918D01*
X224343082Y-97876737D01*
X224154729Y-97750884D01*
X223945443Y-97664194D01*
X223723265Y-97620000D01*
X223496735Y-97620000D01*
X223274557Y-97664194D01*
X223065271Y-97750884D01*
X222876918Y-97876737D01*
X222716737Y-98036918D01*
X222590884Y-98225271D01*
X222504194Y-98434557D01*
X222460000Y-98656735D01*
X222220000Y-98656735D01*
X222175806Y-98434557D01*
X222089116Y-98225271D01*
X221963263Y-98036918D01*
X221803082Y-97876737D01*
X221614729Y-97750884D01*
X221405443Y-97664194D01*
X221183265Y-97620000D01*
X220956735Y-97620000D01*
X220734557Y-97664194D01*
X220525271Y-97750884D01*
X220336918Y-97876737D01*
X220176737Y-98036918D01*
X220050884Y-98225271D01*
X219964194Y-98434557D01*
X219920000Y-98656735D01*
X219731391Y-98656735D01*
X219800127Y-98492897D01*
X219721662Y-98250432D01*
X219597402Y-98027934D01*
X219432122Y-97833953D01*
X219232174Y-97675944D01*
X219005242Y-97559979D01*
X218807103Y-97499876D01*
X218605000Y-97584871D01*
X218455000Y-97584871D01*
X218252897Y-97499876D01*
X218054758Y-97559979D01*
X217827826Y-97675944D01*
X217627878Y-97833953D01*
X217462598Y-98027934D01*
X217338338Y-98250432D01*
X217259873Y-98492897D01*
X217107411Y-98492897D01*
X217095806Y-98434557D01*
X217009116Y-98225271D01*
X216883263Y-98036918D01*
X216723082Y-97876737D01*
X216534729Y-97750884D01*
X216325443Y-97664194D01*
X216103265Y-97620000D01*
X215876735Y-97620000D01*
X215654557Y-97664194D01*
X215445271Y-97750884D01*
X215256918Y-97876737D01*
X215096737Y-98036918D01*
X214970884Y-98225271D01*
X214884194Y-98434557D01*
X214840000Y-98656735D01*
X214600000Y-98656735D01*
X214555806Y-98434557D01*
X214469116Y-98225271D01*
X214343263Y-98036918D01*
X214183082Y-97876737D01*
X213994729Y-97750884D01*
X213785443Y-97664194D01*
X213563265Y-97620000D01*
X213336735Y-97620000D01*
X213114557Y-97664194D01*
X212905271Y-97750884D01*
X212716918Y-97876737D01*
X212556737Y-98036918D01*
X212430884Y-98225271D01*
X212344194Y-98434557D01*
X212300000Y-98656735D01*
X212060000Y-98656735D01*
X212015806Y-98434557D01*
X211929116Y-98225271D01*
X211803263Y-98036918D01*
X211643082Y-97876737D01*
X211454729Y-97750884D01*
X211245443Y-97664194D01*
X211023265Y-97620000D01*
X210796735Y-97620000D01*
X210574557Y-97664194D01*
X210365271Y-97750884D01*
X210176918Y-97876737D01*
X210016737Y-98036918D01*
X209890884Y-98225271D01*
X209804194Y-98434557D01*
X209760000Y-98656735D01*
X209521451Y-98656735D01*
X209521451Y-97920000D01*
X209515659Y-97861190D01*
X209498504Y-97804640D01*
X209470647Y-97752523D01*
X209433158Y-97706842D01*
X209387477Y-97669353D01*
X209335360Y-97641496D01*
X209278810Y-97624341D01*
X209220000Y-97618549D01*
X207520000Y-97618549D01*
X207461190Y-97624341D01*
X207404640Y-97641496D01*
X207352523Y-97669353D01*
X207306842Y-97706842D01*
X207269353Y-97752523D01*
X207241496Y-97804640D01*
X207224341Y-97861190D01*
X207218549Y-97920000D01*
X205098782Y-97920000D01*
X205150000Y-97662511D01*
X205150000Y-97337489D01*
X205086592Y-97018713D01*
X204962211Y-96718432D01*
X204781639Y-96448186D01*
X204551814Y-96218361D01*
X204399720Y-96116735D01*
X207220000Y-96116735D01*
X207220000Y-96343265D01*
X207264194Y-96565443D01*
X207350884Y-96774729D01*
X207476737Y-96963082D01*
X207636918Y-97123263D01*
X207825271Y-97249116D01*
X208034557Y-97335806D01*
X208256735Y-97380000D01*
X208483265Y-97380000D01*
X208705443Y-97335806D01*
X208914729Y-97249116D01*
X209103082Y-97123263D01*
X209263263Y-96963082D01*
X209389116Y-96774729D01*
X209475806Y-96565443D01*
X209520000Y-96343265D01*
X209520000Y-96116735D01*
X209760000Y-96116735D01*
X209760000Y-96343265D01*
X209804194Y-96565443D01*
X209890884Y-96774729D01*
X210016737Y-96963082D01*
X210176918Y-97123263D01*
X210365271Y-97249116D01*
X210574557Y-97335806D01*
X210796735Y-97380000D01*
X211023265Y-97380000D01*
X211245443Y-97335806D01*
X211454729Y-97249116D01*
X211643082Y-97123263D01*
X211803263Y-96963082D01*
X211929116Y-96774729D01*
X212015806Y-96565443D01*
X212027410Y-96507103D01*
X212179873Y-96507103D01*
X212258338Y-96749568D01*
X212382598Y-96972066D01*
X212547878Y-97166047D01*
X212747826Y-97324056D01*
X212974758Y-97440021D01*
X213172897Y-97500124D01*
X213375000Y-97415129D01*
X213375000Y-96305000D01*
X213525000Y-96305000D01*
X213525000Y-97415129D01*
X213727103Y-97500124D01*
X213925242Y-97440021D01*
X214152174Y-97324056D01*
X214352122Y-97166047D01*
X214517402Y-96972066D01*
X214641662Y-96749568D01*
X214720127Y-96507103D01*
X214635338Y-96305000D01*
X213525000Y-96305000D01*
X213375000Y-96305000D01*
X212264662Y-96305000D01*
X212179873Y-96507103D01*
X212027410Y-96507103D01*
X212060000Y-96343265D01*
X212060000Y-96116735D01*
X212027411Y-95952897D01*
X212179873Y-95952897D01*
X212264662Y-96155000D01*
X213375000Y-96155000D01*
X213375000Y-95044871D01*
X213525000Y-95044871D01*
X213525000Y-96155000D01*
X214635338Y-96155000D01*
X214651391Y-96116735D01*
X214840000Y-96116735D01*
X214840000Y-96343265D01*
X214884194Y-96565443D01*
X214970884Y-96774729D01*
X215096737Y-96963082D01*
X215256918Y-97123263D01*
X215445271Y-97249116D01*
X215654557Y-97335806D01*
X215876735Y-97380000D01*
X216103265Y-97380000D01*
X216325443Y-97335806D01*
X216534729Y-97249116D01*
X216723082Y-97123263D01*
X216883263Y-96963082D01*
X217009116Y-96774729D01*
X217095806Y-96565443D01*
X217140000Y-96343265D01*
X217140000Y-96116735D01*
X217380000Y-96116735D01*
X217380000Y-96343265D01*
X217424194Y-96565443D01*
X217510884Y-96774729D01*
X217636737Y-96963082D01*
X217796918Y-97123263D01*
X217985271Y-97249116D01*
X218194557Y-97335806D01*
X218416735Y-97380000D01*
X218643265Y-97380000D01*
X218865443Y-97335806D01*
X219074729Y-97249116D01*
X219263082Y-97123263D01*
X219423263Y-96963082D01*
X219549116Y-96774729D01*
X219635806Y-96565443D01*
X219680000Y-96343265D01*
X219680000Y-96116735D01*
X219920000Y-96116735D01*
X219920000Y-96343265D01*
X219964194Y-96565443D01*
X220050884Y-96774729D01*
X220176737Y-96963082D01*
X220336918Y-97123263D01*
X220525271Y-97249116D01*
X220734557Y-97335806D01*
X220956735Y-97380000D01*
X221183265Y-97380000D01*
X221405443Y-97335806D01*
X221614729Y-97249116D01*
X221803082Y-97123263D01*
X221963263Y-96963082D01*
X222089116Y-96774729D01*
X222175806Y-96565443D01*
X222187410Y-96507103D01*
X222339873Y-96507103D01*
X222418338Y-96749568D01*
X222542598Y-96972066D01*
X222707878Y-97166047D01*
X222907826Y-97324056D01*
X223134758Y-97440021D01*
X223332897Y-97500124D01*
X223535000Y-97415129D01*
X223535000Y-96305000D01*
X223685000Y-96305000D01*
X223685000Y-97415129D01*
X223887103Y-97500124D01*
X224085242Y-97440021D01*
X224312174Y-97324056D01*
X224512122Y-97166047D01*
X224677402Y-96972066D01*
X224801662Y-96749568D01*
X224880127Y-96507103D01*
X224795338Y-96305000D01*
X223685000Y-96305000D01*
X223535000Y-96305000D01*
X222424662Y-96305000D01*
X222339873Y-96507103D01*
X222187410Y-96507103D01*
X222220000Y-96343265D01*
X222220000Y-96116735D01*
X222187411Y-95952897D01*
X222339873Y-95952897D01*
X222424662Y-96155000D01*
X223535000Y-96155000D01*
X223535000Y-95044871D01*
X223685000Y-95044871D01*
X223685000Y-96155000D01*
X224795338Y-96155000D01*
X224811391Y-96116735D01*
X225000000Y-96116735D01*
X225000000Y-96343265D01*
X225044194Y-96565443D01*
X225130884Y-96774729D01*
X225256737Y-96963082D01*
X225416918Y-97123263D01*
X225605271Y-97249116D01*
X225814557Y-97335806D01*
X226036735Y-97380000D01*
X226263265Y-97380000D01*
X226485443Y-97335806D01*
X226694729Y-97249116D01*
X226883082Y-97123263D01*
X227043263Y-96963082D01*
X227169116Y-96774729D01*
X227255806Y-96565443D01*
X227300000Y-96343265D01*
X227300000Y-96116735D01*
X227540000Y-96116735D01*
X227540000Y-96343265D01*
X227584194Y-96565443D01*
X227670884Y-96774729D01*
X227796737Y-96963082D01*
X227956918Y-97123263D01*
X228145271Y-97249116D01*
X228354557Y-97335806D01*
X228576735Y-97380000D01*
X228803265Y-97380000D01*
X229025443Y-97335806D01*
X229234729Y-97249116D01*
X229423082Y-97123263D01*
X229583263Y-96963082D01*
X229709116Y-96774729D01*
X229795806Y-96565443D01*
X229807410Y-96507103D01*
X229959873Y-96507103D01*
X230038338Y-96749568D01*
X230162598Y-96972066D01*
X230327878Y-97166047D01*
X230527826Y-97324056D01*
X230754758Y-97440021D01*
X230952897Y-97500124D01*
X231155000Y-97415129D01*
X231155000Y-96305000D01*
X231305000Y-96305000D01*
X231305000Y-97415129D01*
X231507103Y-97500124D01*
X231705242Y-97440021D01*
X231932174Y-97324056D01*
X232132122Y-97166047D01*
X232297402Y-96972066D01*
X232421662Y-96749568D01*
X232500127Y-96507103D01*
X232415338Y-96305000D01*
X231305000Y-96305000D01*
X231155000Y-96305000D01*
X230044662Y-96305000D01*
X229959873Y-96507103D01*
X229807410Y-96507103D01*
X229840000Y-96343265D01*
X229840000Y-96116735D01*
X229807411Y-95952897D01*
X229959873Y-95952897D01*
X230044662Y-96155000D01*
X231155000Y-96155000D01*
X231155000Y-95044871D01*
X231305000Y-95044871D01*
X231305000Y-96155000D01*
X232415338Y-96155000D01*
X232431391Y-96116735D01*
X232620000Y-96116735D01*
X232620000Y-96343265D01*
X232664194Y-96565443D01*
X232750884Y-96774729D01*
X232876737Y-96963082D01*
X233036918Y-97123263D01*
X233225271Y-97249116D01*
X233434557Y-97335806D01*
X233656735Y-97380000D01*
X233883265Y-97380000D01*
X234105443Y-97335806D01*
X234314729Y-97249116D01*
X234503082Y-97123263D01*
X234663263Y-96963082D01*
X234789116Y-96774729D01*
X234875806Y-96565443D01*
X234920000Y-96343265D01*
X234920000Y-96116735D01*
X235160000Y-96116735D01*
X235160000Y-96343265D01*
X235204194Y-96565443D01*
X235290884Y-96774729D01*
X235416737Y-96963082D01*
X235576918Y-97123263D01*
X235765271Y-97249116D01*
X235974557Y-97335806D01*
X236196735Y-97380000D01*
X236423265Y-97380000D01*
X236645443Y-97335806D01*
X236854729Y-97249116D01*
X237043082Y-97123263D01*
X237203263Y-96963082D01*
X237329116Y-96774729D01*
X237415806Y-96565443D01*
X237460000Y-96343265D01*
X237460000Y-96116735D01*
X237700000Y-96116735D01*
X237700000Y-96343265D01*
X237744194Y-96565443D01*
X237830884Y-96774729D01*
X237956737Y-96963082D01*
X238116918Y-97123263D01*
X238305271Y-97249116D01*
X238514557Y-97335806D01*
X238736735Y-97380000D01*
X238963265Y-97380000D01*
X239185443Y-97335806D01*
X239394729Y-97249116D01*
X239583082Y-97123263D01*
X239743263Y-96963082D01*
X239869116Y-96774729D01*
X239955806Y-96565443D01*
X240000000Y-96343265D01*
X240000000Y-96116735D01*
X240240000Y-96116735D01*
X240240000Y-96343265D01*
X240284194Y-96565443D01*
X240370884Y-96774729D01*
X240496737Y-96963082D01*
X240656918Y-97123263D01*
X240845271Y-97249116D01*
X241054557Y-97335806D01*
X241276735Y-97380000D01*
X241503265Y-97380000D01*
X241725443Y-97335806D01*
X241934729Y-97249116D01*
X242123082Y-97123263D01*
X242283263Y-96963082D01*
X242409116Y-96774729D01*
X242495806Y-96565443D01*
X242540000Y-96343265D01*
X242540000Y-96116735D01*
X242507411Y-95952897D01*
X242659873Y-95952897D01*
X242744662Y-96155000D01*
X243855000Y-96155000D01*
X243855000Y-95044871D01*
X244005000Y-95044871D01*
X244005000Y-96155000D01*
X245115338Y-96155000D01*
X245200127Y-95952897D01*
X245121662Y-95710432D01*
X244997402Y-95487934D01*
X244832122Y-95293953D01*
X244632174Y-95135944D01*
X244405242Y-95019979D01*
X244207103Y-94959876D01*
X244005000Y-95044871D01*
X243855000Y-95044871D01*
X243652897Y-94959876D01*
X243454758Y-95019979D01*
X243227826Y-95135944D01*
X243027878Y-95293953D01*
X242862598Y-95487934D01*
X242738338Y-95710432D01*
X242659873Y-95952897D01*
X242507411Y-95952897D01*
X242495806Y-95894557D01*
X242409116Y-95685271D01*
X242283263Y-95496918D01*
X242123082Y-95336737D01*
X241934729Y-95210884D01*
X241725443Y-95124194D01*
X241503265Y-95080000D01*
X241276735Y-95080000D01*
X241054557Y-95124194D01*
X240845271Y-95210884D01*
X240656918Y-95336737D01*
X240496737Y-95496918D01*
X240370884Y-95685271D01*
X240284194Y-95894557D01*
X240240000Y-96116735D01*
X240000000Y-96116735D01*
X239955806Y-95894557D01*
X239869116Y-95685271D01*
X239743263Y-95496918D01*
X239583082Y-95336737D01*
X239394729Y-95210884D01*
X239185443Y-95124194D01*
X238963265Y-95080000D01*
X238736735Y-95080000D01*
X238514557Y-95124194D01*
X238305271Y-95210884D01*
X238116918Y-95336737D01*
X237956737Y-95496918D01*
X237830884Y-95685271D01*
X237744194Y-95894557D01*
X237700000Y-96116735D01*
X237460000Y-96116735D01*
X237415806Y-95894557D01*
X237329116Y-95685271D01*
X237203263Y-95496918D01*
X237043082Y-95336737D01*
X236854729Y-95210884D01*
X236645443Y-95124194D01*
X236423265Y-95080000D01*
X236196735Y-95080000D01*
X235974557Y-95124194D01*
X235765271Y-95210884D01*
X235576918Y-95336737D01*
X235416737Y-95496918D01*
X235290884Y-95685271D01*
X235204194Y-95894557D01*
X235160000Y-96116735D01*
X234920000Y-96116735D01*
X234875806Y-95894557D01*
X234789116Y-95685271D01*
X234663263Y-95496918D01*
X234503082Y-95336737D01*
X234314729Y-95210884D01*
X234105443Y-95124194D01*
X233883265Y-95080000D01*
X233656735Y-95080000D01*
X233434557Y-95124194D01*
X233225271Y-95210884D01*
X233036918Y-95336737D01*
X232876737Y-95496918D01*
X232750884Y-95685271D01*
X232664194Y-95894557D01*
X232620000Y-96116735D01*
X232431391Y-96116735D01*
X232500127Y-95952897D01*
X232421662Y-95710432D01*
X232297402Y-95487934D01*
X232132122Y-95293953D01*
X231932174Y-95135944D01*
X231705242Y-95019979D01*
X231507103Y-94959876D01*
X231305000Y-95044871D01*
X231155000Y-95044871D01*
X230952897Y-94959876D01*
X230754758Y-95019979D01*
X230527826Y-95135944D01*
X230327878Y-95293953D01*
X230162598Y-95487934D01*
X230038338Y-95710432D01*
X229959873Y-95952897D01*
X229807411Y-95952897D01*
X229795806Y-95894557D01*
X229709116Y-95685271D01*
X229583263Y-95496918D01*
X229423082Y-95336737D01*
X229234729Y-95210884D01*
X229025443Y-95124194D01*
X228803265Y-95080000D01*
X228576735Y-95080000D01*
X228354557Y-95124194D01*
X228145271Y-95210884D01*
X227956918Y-95336737D01*
X227796737Y-95496918D01*
X227670884Y-95685271D01*
X227584194Y-95894557D01*
X227540000Y-96116735D01*
X227300000Y-96116735D01*
X227255806Y-95894557D01*
X227169116Y-95685271D01*
X227043263Y-95496918D01*
X226883082Y-95336737D01*
X226694729Y-95210884D01*
X226485443Y-95124194D01*
X226263265Y-95080000D01*
X226036735Y-95080000D01*
X225814557Y-95124194D01*
X225605271Y-95210884D01*
X225416918Y-95336737D01*
X225256737Y-95496918D01*
X225130884Y-95685271D01*
X225044194Y-95894557D01*
X225000000Y-96116735D01*
X224811391Y-96116735D01*
X224880127Y-95952897D01*
X224801662Y-95710432D01*
X224677402Y-95487934D01*
X224512122Y-95293953D01*
X224312174Y-95135944D01*
X224085242Y-95019979D01*
X223887103Y-94959876D01*
X223685000Y-95044871D01*
X223535000Y-95044871D01*
X223332897Y-94959876D01*
X223134758Y-95019979D01*
X222907826Y-95135944D01*
X222707878Y-95293953D01*
X222542598Y-95487934D01*
X222418338Y-95710432D01*
X222339873Y-95952897D01*
X222187411Y-95952897D01*
X222175806Y-95894557D01*
X222089116Y-95685271D01*
X221963263Y-95496918D01*
X221803082Y-95336737D01*
X221614729Y-95210884D01*
X221405443Y-95124194D01*
X221183265Y-95080000D01*
X220956735Y-95080000D01*
X220734557Y-95124194D01*
X220525271Y-95210884D01*
X220336918Y-95336737D01*
X220176737Y-95496918D01*
X220050884Y-95685271D01*
X219964194Y-95894557D01*
X219920000Y-96116735D01*
X219680000Y-96116735D01*
X219635806Y-95894557D01*
X219549116Y-95685271D01*
X219423263Y-95496918D01*
X219263082Y-95336737D01*
X219074729Y-95210884D01*
X218865443Y-95124194D01*
X218643265Y-95080000D01*
X218416735Y-95080000D01*
X218194557Y-95124194D01*
X217985271Y-95210884D01*
X217796918Y-95336737D01*
X217636737Y-95496918D01*
X217510884Y-95685271D01*
X217424194Y-95894557D01*
X217380000Y-96116735D01*
X217140000Y-96116735D01*
X217095806Y-95894557D01*
X217009116Y-95685271D01*
X216883263Y-95496918D01*
X216723082Y-95336737D01*
X216534729Y-95210884D01*
X216325443Y-95124194D01*
X216103265Y-95080000D01*
X215876735Y-95080000D01*
X215654557Y-95124194D01*
X215445271Y-95210884D01*
X215256918Y-95336737D01*
X215096737Y-95496918D01*
X214970884Y-95685271D01*
X214884194Y-95894557D01*
X214840000Y-96116735D01*
X214651391Y-96116735D01*
X214720127Y-95952897D01*
X214641662Y-95710432D01*
X214517402Y-95487934D01*
X214352122Y-95293953D01*
X214152174Y-95135944D01*
X213925242Y-95019979D01*
X213727103Y-94959876D01*
X213525000Y-95044871D01*
X213375000Y-95044871D01*
X213172897Y-94959876D01*
X212974758Y-95019979D01*
X212747826Y-95135944D01*
X212547878Y-95293953D01*
X212382598Y-95487934D01*
X212258338Y-95710432D01*
X212179873Y-95952897D01*
X212027411Y-95952897D01*
X212015806Y-95894557D01*
X211929116Y-95685271D01*
X211803263Y-95496918D01*
X211643082Y-95336737D01*
X211454729Y-95210884D01*
X211245443Y-95124194D01*
X211023265Y-95080000D01*
X210796735Y-95080000D01*
X210574557Y-95124194D01*
X210365271Y-95210884D01*
X210176918Y-95336737D01*
X210016737Y-95496918D01*
X209890884Y-95685271D01*
X209804194Y-95894557D01*
X209760000Y-96116735D01*
X209520000Y-96116735D01*
X209475806Y-95894557D01*
X209389116Y-95685271D01*
X209263263Y-95496918D01*
X209103082Y-95336737D01*
X208914729Y-95210884D01*
X208705443Y-95124194D01*
X208483265Y-95080000D01*
X208256735Y-95080000D01*
X208034557Y-95124194D01*
X207825271Y-95210884D01*
X207636918Y-95336737D01*
X207476737Y-95496918D01*
X207350884Y-95685271D01*
X207264194Y-95894557D01*
X207220000Y-96116735D01*
X204399720Y-96116735D01*
X204281568Y-96037789D01*
X203981287Y-95913408D01*
X203662511Y-95850000D01*
X203337489Y-95850000D01*
X203018713Y-95913408D01*
X202718432Y-96037789D01*
X202448186Y-96218361D01*
X202218361Y-96448186D01*
X202037789Y-96718432D01*
X201913408Y-97018713D01*
X201850000Y-97337489D01*
X200735000Y-97337489D01*
X200735000Y-94855000D01*
X264035000Y-94855000D01*
X264035000Y-149265000D01*
G37*
X264035000Y-149265000D02*
X251535000Y-149265000D01*
X251535000Y-146337489D01*
X259850000Y-146337489D01*
X259850000Y-146662511D01*
X259913408Y-146981287D01*
X260037789Y-147281568D01*
X260218361Y-147551814D01*
X260448186Y-147781639D01*
X260718432Y-147962211D01*
X261018713Y-148086592D01*
X261337489Y-148150000D01*
X261662511Y-148150000D01*
X261981287Y-148086592D01*
X262281568Y-147962211D01*
X262551814Y-147781639D01*
X262781639Y-147551814D01*
X262962211Y-147281568D01*
X263086592Y-146981287D01*
X263150000Y-146662511D01*
X263150000Y-146337489D01*
X263086592Y-146018713D01*
X262962211Y-145718432D01*
X262781639Y-145448186D01*
X262551814Y-145218361D01*
X262281568Y-145037789D01*
X261981287Y-144913408D01*
X261662511Y-144850000D01*
X261337489Y-144850000D01*
X261018713Y-144913408D01*
X260718432Y-145037789D01*
X260448186Y-145218361D01*
X260218361Y-145448186D01*
X260037789Y-145718432D01*
X259913408Y-146018713D01*
X259850000Y-146337489D01*
X251535000Y-146337489D01*
X251535000Y-137122716D01*
X258525000Y-137122716D01*
X258525000Y-137477284D01*
X258594173Y-137825041D01*
X258729861Y-138152620D01*
X258926849Y-138447433D01*
X259177567Y-138698151D01*
X259472380Y-138895139D01*
X259799959Y-139030827D01*
X260147716Y-139100000D01*
X260502284Y-139100000D01*
X260850041Y-139030827D01*
X261177620Y-138895139D01*
X261472433Y-138698151D01*
X261723151Y-138447433D01*
X261920139Y-138152620D01*
X262055827Y-137825041D01*
X262125000Y-137477284D01*
X262125000Y-137122716D01*
X262055827Y-136774959D01*
X261920139Y-136447380D01*
X261723151Y-136152567D01*
X261472433Y-135901849D01*
X261177620Y-135704861D01*
X260850041Y-135569173D01*
X260502284Y-135500000D01*
X260147716Y-135500000D01*
X259799959Y-135569173D01*
X259472380Y-135704861D01*
X259177567Y-135901849D01*
X258926849Y-136152567D01*
X258729861Y-136447380D01*
X258594173Y-136774959D01*
X258525000Y-137122716D01*
X251535000Y-137122716D01*
X251535000Y-130720000D01*
X258523549Y-130720000D01*
X258523549Y-133720000D01*
X258529341Y-133778810D01*
X258546496Y-133835360D01*
X258574353Y-133887477D01*
X258611842Y-133933158D01*
X258657523Y-133970647D01*
X258709640Y-133998504D01*
X258766190Y-134015659D01*
X258825000Y-134021451D01*
X261825000Y-134021451D01*
X261883810Y-134015659D01*
X261940360Y-133998504D01*
X261992477Y-133970647D01*
X262038158Y-133933158D01*
X262075647Y-133887477D01*
X262103504Y-133835360D01*
X262120659Y-133778810D01*
X262126451Y-133720000D01*
X262126451Y-130720000D01*
X262120659Y-130661190D01*
X262103504Y-130604640D01*
X262075647Y-130552523D01*
X262038158Y-130506842D01*
X261992477Y-130469353D01*
X261940360Y-130441496D01*
X261883810Y-130424341D01*
X261825000Y-130418549D01*
X258825000Y-130418549D01*
X258766190Y-130424341D01*
X258709640Y-130441496D01*
X258657523Y-130469353D01*
X258611842Y-130506842D01*
X258574353Y-130552523D01*
X258546496Y-130604640D01*
X258529341Y-130661190D01*
X258523549Y-130720000D01*
X251535000Y-130720000D01*
X251535000Y-130315000D01*
X251533079Y-130295491D01*
X251527388Y-130276732D01*
X251518147Y-130259443D01*
X251505711Y-130244289D01*
X251490557Y-130231853D01*
X251473268Y-130222612D01*
X251454509Y-130216921D01*
X251435000Y-130215000D01*
X200735000Y-130215000D01*
X200735000Y-128281358D01*
X215055000Y-128281358D01*
X215055000Y-128458642D01*
X215089586Y-128632520D01*
X215157430Y-128796310D01*
X215255924Y-128943717D01*
X215381283Y-129069076D01*
X215528690Y-129167570D01*
X215692480Y-129235414D01*
X215866358Y-129270000D01*
X216043642Y-129270000D01*
X216217520Y-129235414D01*
X216381310Y-129167570D01*
X216528717Y-129069076D01*
X216654076Y-128943717D01*
X216752570Y-128796310D01*
X216820414Y-128632520D01*
X216855000Y-128458642D01*
X216855000Y-128281358D01*
X225055000Y-128281358D01*
X225055000Y-128458642D01*
X225089586Y-128632520D01*
X225157430Y-128796310D01*
X225255924Y-128943717D01*
X225381283Y-129069076D01*
X225528690Y-129167570D01*
X225692480Y-129235414D01*
X225866358Y-129270000D01*
X226043642Y-129270000D01*
X226217520Y-129235414D01*
X226381310Y-129167570D01*
X226528717Y-129069076D01*
X226654076Y-128943717D01*
X226752570Y-128796310D01*
X226820414Y-128632520D01*
X226855000Y-128458642D01*
X226855000Y-128281358D01*
X226820414Y-128107480D01*
X226752570Y-127943690D01*
X226654076Y-127796283D01*
X226528717Y-127670924D01*
X226381310Y-127572430D01*
X226217520Y-127504586D01*
X226043642Y-127470000D01*
X225866358Y-127470000D01*
X225692480Y-127504586D01*
X225528690Y-127572430D01*
X225381283Y-127670924D01*
X225255924Y-127796283D01*
X225157430Y-127943690D01*
X225089586Y-128107480D01*
X225055000Y-128281358D01*
X216855000Y-128281358D01*
X216820414Y-128107480D01*
X216752570Y-127943690D01*
X216654076Y-127796283D01*
X216528717Y-127670924D01*
X216381310Y-127572430D01*
X216217520Y-127504586D01*
X216043642Y-127470000D01*
X215866358Y-127470000D01*
X215692480Y-127504586D01*
X215528690Y-127572430D01*
X215381283Y-127670924D01*
X215255924Y-127796283D01*
X215157430Y-127943690D01*
X215089586Y-128107480D01*
X215055000Y-128281358D01*
X200735000Y-128281358D01*
X200735000Y-125781358D01*
X215055000Y-125781358D01*
X215055000Y-125958642D01*
X215089586Y-126132520D01*
X215157430Y-126296310D01*
X215255924Y-126443717D01*
X215381283Y-126569076D01*
X215528690Y-126667570D01*
X215692480Y-126735414D01*
X215866358Y-126770000D01*
X216043642Y-126770000D01*
X216217520Y-126735414D01*
X216381310Y-126667570D01*
X216528717Y-126569076D01*
X216654076Y-126443717D01*
X216752570Y-126296310D01*
X216820414Y-126132520D01*
X216823624Y-126116381D01*
X219224844Y-126116381D01*
X219252336Y-126223190D01*
X219341390Y-126420988D01*
X219467321Y-126597612D01*
X219625290Y-126746274D01*
X219809226Y-126861261D01*
X220012061Y-126938155D01*
X220226000Y-126974000D01*
X220880000Y-126974000D01*
X220880000Y-125945000D01*
X221030000Y-125945000D01*
X221030000Y-126974000D01*
X221684000Y-126974000D01*
X221897939Y-126938155D01*
X222100774Y-126861261D01*
X222284710Y-126746274D01*
X222442679Y-126597612D01*
X222568610Y-126420988D01*
X222657664Y-126223190D01*
X222685156Y-126116381D01*
X222597659Y-125945000D01*
X221030000Y-125945000D01*
X220880000Y-125945000D01*
X219312341Y-125945000D01*
X219224844Y-126116381D01*
X216823624Y-126116381D01*
X216855000Y-125958642D01*
X216855000Y-125781358D01*
X216823625Y-125623619D01*
X219224844Y-125623619D01*
X219312341Y-125795000D01*
X220880000Y-125795000D01*
X220880000Y-124766000D01*
X221030000Y-124766000D01*
X221030000Y-125795000D01*
X222597659Y-125795000D01*
X222604623Y-125781358D01*
X225055000Y-125781358D01*
X225055000Y-125958642D01*
X225089586Y-126132520D01*
X225157430Y-126296310D01*
X225255924Y-126443717D01*
X225381283Y-126569076D01*
X225528690Y-126667570D01*
X225692480Y-126735414D01*
X225866358Y-126770000D01*
X226043642Y-126770000D01*
X226217520Y-126735414D01*
X226381310Y-126667570D01*
X226528717Y-126569076D01*
X226654076Y-126443717D01*
X226752570Y-126296310D01*
X226820414Y-126132520D01*
X226855000Y-125958642D01*
X226855000Y-125781358D01*
X226820414Y-125607480D01*
X226752570Y-125443690D01*
X226654076Y-125296283D01*
X226528717Y-125170924D01*
X226381310Y-125072430D01*
X226217520Y-125004586D01*
X226043642Y-124970000D01*
X225866358Y-124970000D01*
X225692480Y-125004586D01*
X225528690Y-125072430D01*
X225381283Y-125170924D01*
X225255924Y-125296283D01*
X225157430Y-125443690D01*
X225089586Y-125607480D01*
X225055000Y-125781358D01*
X222604623Y-125781358D01*
X222685156Y-125623619D01*
X222657664Y-125516810D01*
X222568610Y-125319012D01*
X222442679Y-125142388D01*
X222284710Y-124993726D01*
X222100774Y-124878739D01*
X221897939Y-124801845D01*
X221684000Y-124766000D01*
X221030000Y-124766000D01*
X220880000Y-124766000D01*
X220226000Y-124766000D01*
X220012061Y-124801845D01*
X219809226Y-124878739D01*
X219625290Y-124993726D01*
X219467321Y-125142388D01*
X219341390Y-125319012D01*
X219252336Y-125516810D01*
X219224844Y-125623619D01*
X216823625Y-125623619D01*
X216820414Y-125607480D01*
X216752570Y-125443690D01*
X216654076Y-125296283D01*
X216528717Y-125170924D01*
X216381310Y-125072430D01*
X216217520Y-125004586D01*
X216043642Y-124970000D01*
X215866358Y-124970000D01*
X215692480Y-125004586D01*
X215528690Y-125072430D01*
X215381283Y-125170924D01*
X215255924Y-125296283D01*
X215157430Y-125443690D01*
X215089586Y-125607480D01*
X215055000Y-125781358D01*
X200735000Y-125781358D01*
X200735000Y-120169145D01*
X215001000Y-120169145D01*
X215001001Y-121570856D01*
X215014806Y-121711017D01*
X215069356Y-121890846D01*
X215157942Y-122056578D01*
X215277158Y-122201843D01*
X215422423Y-122321059D01*
X215588155Y-122409645D01*
X215767984Y-122464195D01*
X215955000Y-122482615D01*
X216142017Y-122464195D01*
X216321846Y-122409645D01*
X216487578Y-122321059D01*
X216632843Y-122201843D01*
X216752059Y-122056578D01*
X216840645Y-121890846D01*
X216895195Y-121711017D01*
X216909000Y-121570856D01*
X216909000Y-120781358D01*
X220055000Y-120781358D01*
X220055000Y-120958642D01*
X220089586Y-121132520D01*
X220157430Y-121296310D01*
X220255924Y-121443717D01*
X220381283Y-121569076D01*
X220528690Y-121667570D01*
X220692480Y-121735414D01*
X220866358Y-121770000D01*
X221043642Y-121770000D01*
X221217520Y-121735414D01*
X221381310Y-121667570D01*
X221528717Y-121569076D01*
X221654076Y-121443717D01*
X221752570Y-121296310D01*
X221820414Y-121132520D01*
X221855000Y-120958642D01*
X221855000Y-120781358D01*
X221820414Y-120607480D01*
X221752570Y-120443690D01*
X221654076Y-120296283D01*
X221528717Y-120170924D01*
X221526055Y-120169145D01*
X225001000Y-120169145D01*
X225001001Y-121570856D01*
X225014806Y-121711017D01*
X225069356Y-121890846D01*
X225157942Y-122056578D01*
X225277158Y-122201843D01*
X225422423Y-122321059D01*
X225588155Y-122409645D01*
X225767984Y-122464195D01*
X225955000Y-122482615D01*
X226133843Y-122465000D01*
X258523549Y-122465000D01*
X258523549Y-125465000D01*
X258529341Y-125523810D01*
X258546496Y-125580360D01*
X258574353Y-125632477D01*
X258611842Y-125678158D01*
X258657523Y-125715647D01*
X258709640Y-125743504D01*
X258766190Y-125760659D01*
X258825000Y-125766451D01*
X261825000Y-125766451D01*
X261883810Y-125760659D01*
X261940360Y-125743504D01*
X261992477Y-125715647D01*
X262038158Y-125678158D01*
X262075647Y-125632477D01*
X262103504Y-125580360D01*
X262120659Y-125523810D01*
X262126451Y-125465000D01*
X262126451Y-122465000D01*
X262120659Y-122406190D01*
X262103504Y-122349640D01*
X262075647Y-122297523D01*
X262038158Y-122251842D01*
X261992477Y-122214353D01*
X261940360Y-122186496D01*
X261883810Y-122169341D01*
X261825000Y-122163549D01*
X258825000Y-122163549D01*
X258766190Y-122169341D01*
X258709640Y-122186496D01*
X258657523Y-122214353D01*
X258611842Y-122251842D01*
X258574353Y-122297523D01*
X258546496Y-122349640D01*
X258529341Y-122406190D01*
X258523549Y-122465000D01*
X226133843Y-122465000D01*
X226142017Y-122464195D01*
X226321846Y-122409645D01*
X226487578Y-122321059D01*
X226632843Y-122201843D01*
X226752059Y-122056578D01*
X226840645Y-121890846D01*
X226895195Y-121711017D01*
X226909000Y-121570856D01*
X226909000Y-120169144D01*
X226895195Y-120028983D01*
X226840645Y-119849154D01*
X226752059Y-119683422D01*
X226632843Y-119538157D01*
X226487578Y-119418941D01*
X226321845Y-119330355D01*
X226142016Y-119275805D01*
X225955000Y-119257385D01*
X225767983Y-119275805D01*
X225588154Y-119330355D01*
X225422422Y-119418941D01*
X225277157Y-119538157D01*
X225157941Y-119683422D01*
X225069355Y-119849155D01*
X225014805Y-120028984D01*
X225001000Y-120169145D01*
X221526055Y-120169145D01*
X221381310Y-120072430D01*
X221217520Y-120004586D01*
X221043642Y-119970000D01*
X220866358Y-119970000D01*
X220692480Y-120004586D01*
X220528690Y-120072430D01*
X220381283Y-120170924D01*
X220255924Y-120296283D01*
X220157430Y-120443690D01*
X220089586Y-120607480D01*
X220055000Y-120781358D01*
X216909000Y-120781358D01*
X216909000Y-120169144D01*
X216895195Y-120028983D01*
X216840645Y-119849154D01*
X216752059Y-119683422D01*
X216632843Y-119538157D01*
X216487578Y-119418941D01*
X216321845Y-119330355D01*
X216142016Y-119275805D01*
X215955000Y-119257385D01*
X215767983Y-119275805D01*
X215588154Y-119330355D01*
X215422422Y-119418941D01*
X215277157Y-119538157D01*
X215157941Y-119683422D01*
X215069355Y-119849155D01*
X215014805Y-120028984D01*
X215001000Y-120169145D01*
X200735000Y-120169145D01*
X200735000Y-118707716D01*
X258525000Y-118707716D01*
X258525000Y-119062284D01*
X258594173Y-119410041D01*
X258729861Y-119737620D01*
X258926849Y-120032433D01*
X259177567Y-120283151D01*
X259472380Y-120480139D01*
X259799959Y-120615827D01*
X260147716Y-120685000D01*
X260502284Y-120685000D01*
X260850041Y-120615827D01*
X261177620Y-120480139D01*
X261472433Y-120283151D01*
X261723151Y-120032433D01*
X261920139Y-119737620D01*
X262055827Y-119410041D01*
X262125000Y-119062284D01*
X262125000Y-118707716D01*
X262055827Y-118359959D01*
X261920139Y-118032380D01*
X261723151Y-117737567D01*
X261472433Y-117486849D01*
X261177620Y-117289861D01*
X260850041Y-117154173D01*
X260502284Y-117085000D01*
X260147716Y-117085000D01*
X259799959Y-117154173D01*
X259472380Y-117289861D01*
X259177567Y-117486849D01*
X258926849Y-117737567D01*
X258729861Y-118032380D01*
X258594173Y-118359959D01*
X258525000Y-118707716D01*
X200735000Y-118707716D01*
X200735000Y-115636131D01*
X218300000Y-115636131D01*
X218300000Y-115783869D01*
X218328822Y-115928767D01*
X218385359Y-116065258D01*
X218467437Y-116188097D01*
X218571903Y-116292563D01*
X218694742Y-116374641D01*
X218831233Y-116431178D01*
X218976131Y-116460000D01*
X219123869Y-116460000D01*
X219268767Y-116431178D01*
X219405258Y-116374641D01*
X219528097Y-116292563D01*
X219632563Y-116188097D01*
X219714641Y-116065258D01*
X219771178Y-115928767D01*
X219800000Y-115783869D01*
X219800000Y-115743473D01*
X220692495Y-114850979D01*
X220713632Y-114833632D01*
X220782863Y-114749275D01*
X220834305Y-114653032D01*
X220865984Y-114548603D01*
X220874000Y-114467212D01*
X220874000Y-114467203D01*
X220876679Y-114440001D01*
X220874000Y-114412799D01*
X220874000Y-111654421D01*
X242287164Y-111654421D01*
X242287164Y-111802159D01*
X242315986Y-111947057D01*
X242372523Y-112083548D01*
X242454601Y-112206387D01*
X242559067Y-112310853D01*
X242681906Y-112392931D01*
X242818397Y-112449468D01*
X242963295Y-112478290D01*
X243111033Y-112478290D01*
X243255931Y-112449468D01*
X243392422Y-112392931D01*
X243515261Y-112310853D01*
X243619727Y-112206387D01*
X243701805Y-112083548D01*
X243758342Y-111947057D01*
X243787164Y-111802159D01*
X243787164Y-111654421D01*
X243758342Y-111509523D01*
X243701805Y-111373032D01*
X243619727Y-111250193D01*
X243515261Y-111145727D01*
X243464164Y-111111585D01*
X243464164Y-106802844D01*
X244020428Y-106246581D01*
X244024203Y-106247332D01*
X243982822Y-106347233D01*
X243954000Y-106492131D01*
X243954000Y-106639869D01*
X243982822Y-106784767D01*
X244023001Y-106881767D01*
X244023000Y-110267295D01*
X243971903Y-110301437D01*
X243867437Y-110405903D01*
X243785359Y-110528742D01*
X243728822Y-110665233D01*
X243700000Y-110810131D01*
X243700000Y-110957869D01*
X243728822Y-111102767D01*
X243785359Y-111239258D01*
X243867437Y-111362097D01*
X243971903Y-111466563D01*
X244094742Y-111548641D01*
X244231233Y-111605178D01*
X244376131Y-111634000D01*
X244523869Y-111634000D01*
X244668767Y-111605178D01*
X244805258Y-111548641D01*
X244928097Y-111466563D01*
X245032563Y-111362097D01*
X245114641Y-111239258D01*
X245171178Y-111102767D01*
X245174171Y-111087716D01*
X258525000Y-111087716D01*
X258525000Y-111442284D01*
X258594173Y-111790041D01*
X258729861Y-112117620D01*
X258926849Y-112412433D01*
X259177567Y-112663151D01*
X259472380Y-112860139D01*
X259799959Y-112995827D01*
X260147716Y-113065000D01*
X260502284Y-113065000D01*
X260850041Y-112995827D01*
X261177620Y-112860139D01*
X261472433Y-112663151D01*
X261723151Y-112412433D01*
X261920139Y-112117620D01*
X262055827Y-111790041D01*
X262125000Y-111442284D01*
X262125000Y-111087716D01*
X262055827Y-110739959D01*
X261920139Y-110412380D01*
X261723151Y-110117567D01*
X261472433Y-109866849D01*
X261177620Y-109669861D01*
X260850041Y-109534173D01*
X260502284Y-109465000D01*
X260147716Y-109465000D01*
X259799959Y-109534173D01*
X259472380Y-109669861D01*
X259177567Y-109866849D01*
X258926849Y-110117567D01*
X258729861Y-110412380D01*
X258594173Y-110739959D01*
X258525000Y-111087716D01*
X245174171Y-111087716D01*
X245200000Y-110957869D01*
X245200000Y-110810131D01*
X245171178Y-110665233D01*
X245114641Y-110528742D01*
X245032563Y-110405903D01*
X244928097Y-110301437D01*
X244877000Y-110267295D01*
X244877000Y-107296282D01*
X244922767Y-107287178D01*
X245059258Y-107230641D01*
X245182097Y-107148563D01*
X245286563Y-107044097D01*
X245368641Y-106921258D01*
X245425178Y-106784767D01*
X245454000Y-106639869D01*
X245454000Y-106492131D01*
X245425178Y-106347233D01*
X245368641Y-106210742D01*
X245286563Y-106087903D01*
X245182097Y-105983437D01*
X245059258Y-105901359D01*
X244922767Y-105844822D01*
X244834367Y-105827238D01*
X244875748Y-105727337D01*
X244904570Y-105582439D01*
X244904570Y-105434701D01*
X244875748Y-105289803D01*
X244819211Y-105153312D01*
X244737133Y-105030473D01*
X244632667Y-104926007D01*
X244509828Y-104843929D01*
X244373337Y-104787392D01*
X244228439Y-104758570D01*
X244080701Y-104758570D01*
X243935803Y-104787392D01*
X243799312Y-104843929D01*
X243676473Y-104926007D01*
X243572007Y-105030473D01*
X243489929Y-105153312D01*
X243433392Y-105289803D01*
X243404570Y-105434701D01*
X243404570Y-105582439D01*
X243416559Y-105642712D01*
X242750059Y-106309213D01*
X242733770Y-106322581D01*
X242720401Y-106338871D01*
X242720396Y-106338876D01*
X242680409Y-106387600D01*
X242661170Y-106423595D01*
X242640760Y-106461780D01*
X242624129Y-106516605D01*
X242616343Y-106542270D01*
X242608099Y-106625976D01*
X242610165Y-106646953D01*
X242610164Y-111111585D01*
X242559067Y-111145727D01*
X242454601Y-111250193D01*
X242372523Y-111373032D01*
X242315986Y-111509523D01*
X242287164Y-111654421D01*
X220874000Y-111654421D01*
X220874000Y-110501660D01*
X220902563Y-110473097D01*
X220984641Y-110350258D01*
X221041178Y-110213767D01*
X221070000Y-110068869D01*
X221070000Y-109921131D01*
X221041178Y-109776233D01*
X220984641Y-109639742D01*
X220902563Y-109516903D01*
X220798097Y-109412437D01*
X220675258Y-109330359D01*
X220538767Y-109273822D01*
X220393869Y-109245000D01*
X220246131Y-109245000D01*
X220101233Y-109273822D01*
X219964742Y-109330359D01*
X219841903Y-109412437D01*
X219737437Y-109516903D01*
X219655359Y-109639742D01*
X219598822Y-109776233D01*
X219570000Y-109921131D01*
X219570000Y-110068869D01*
X219598822Y-110213767D01*
X219655359Y-110350258D01*
X219737437Y-110473097D01*
X219766001Y-110501661D01*
X219766000Y-114210526D01*
X219016527Y-114960000D01*
X218976131Y-114960000D01*
X218831233Y-114988822D01*
X218694742Y-115045359D01*
X218571903Y-115127437D01*
X218467437Y-115231903D01*
X218385359Y-115354742D01*
X218328822Y-115491233D01*
X218300000Y-115636131D01*
X200735000Y-115636131D01*
X200735000Y-104685000D01*
X258523549Y-104685000D01*
X258523549Y-107685000D01*
X258529341Y-107743810D01*
X258546496Y-107800360D01*
X258574353Y-107852477D01*
X258611842Y-107898158D01*
X258657523Y-107935647D01*
X258709640Y-107963504D01*
X258766190Y-107980659D01*
X258825000Y-107986451D01*
X261825000Y-107986451D01*
X261883810Y-107980659D01*
X261940360Y-107963504D01*
X261992477Y-107935647D01*
X262038158Y-107898158D01*
X262075647Y-107852477D01*
X262103504Y-107800360D01*
X262120659Y-107743810D01*
X262126451Y-107685000D01*
X262126451Y-104685000D01*
X262120659Y-104626190D01*
X262103504Y-104569640D01*
X262075647Y-104517523D01*
X262038158Y-104471842D01*
X261992477Y-104434353D01*
X261940360Y-104406496D01*
X261883810Y-104389341D01*
X261825000Y-104383549D01*
X258825000Y-104383549D01*
X258766190Y-104389341D01*
X258709640Y-104406496D01*
X258657523Y-104434353D01*
X258611842Y-104471842D01*
X258574353Y-104517523D01*
X258546496Y-104569640D01*
X258529341Y-104626190D01*
X258523549Y-104685000D01*
X200735000Y-104685000D01*
X200735000Y-97337489D01*
X201850000Y-97337489D01*
X201850000Y-97662511D01*
X201913408Y-97981287D01*
X202037789Y-98281568D01*
X202218361Y-98551814D01*
X202448186Y-98781639D01*
X202718432Y-98962211D01*
X203018713Y-99086592D01*
X203337489Y-99150000D01*
X203662511Y-99150000D01*
X203981287Y-99086592D01*
X204281568Y-98962211D01*
X204551814Y-98781639D01*
X204781639Y-98551814D01*
X204962211Y-98281568D01*
X205086592Y-97981287D01*
X205098782Y-97920000D01*
X207218549Y-97920000D01*
X207218549Y-99620000D01*
X207224341Y-99678810D01*
X207241496Y-99735360D01*
X207269353Y-99787477D01*
X207306842Y-99833158D01*
X207352523Y-99870647D01*
X207404640Y-99898504D01*
X207461190Y-99915659D01*
X207520000Y-99921451D01*
X209220000Y-99921451D01*
X209278810Y-99915659D01*
X209335360Y-99898504D01*
X209387477Y-99870647D01*
X209433158Y-99833158D01*
X209470647Y-99787477D01*
X209498504Y-99735360D01*
X209515659Y-99678810D01*
X209521451Y-99620000D01*
X209521451Y-98656735D01*
X209760000Y-98656735D01*
X209760000Y-98883265D01*
X209804194Y-99105443D01*
X209890884Y-99314729D01*
X210016737Y-99503082D01*
X210176918Y-99663263D01*
X210365271Y-99789116D01*
X210574557Y-99875806D01*
X210796735Y-99920000D01*
X211023265Y-99920000D01*
X211245443Y-99875806D01*
X211454729Y-99789116D01*
X211643082Y-99663263D01*
X211803263Y-99503082D01*
X211929116Y-99314729D01*
X212015806Y-99105443D01*
X212060000Y-98883265D01*
X212060000Y-98656735D01*
X212300000Y-98656735D01*
X212300000Y-98883265D01*
X212344194Y-99105443D01*
X212430884Y-99314729D01*
X212556737Y-99503082D01*
X212716918Y-99663263D01*
X212905271Y-99789116D01*
X213114557Y-99875806D01*
X213336735Y-99920000D01*
X213563265Y-99920000D01*
X213785443Y-99875806D01*
X213994729Y-99789116D01*
X214183082Y-99663263D01*
X214343263Y-99503082D01*
X214469116Y-99314729D01*
X214555806Y-99105443D01*
X214600000Y-98883265D01*
X214600000Y-98656735D01*
X214840000Y-98656735D01*
X214840000Y-98883265D01*
X214884194Y-99105443D01*
X214970884Y-99314729D01*
X215096737Y-99503082D01*
X215256918Y-99663263D01*
X215445271Y-99789116D01*
X215654557Y-99875806D01*
X215876735Y-99920000D01*
X216103265Y-99920000D01*
X216325443Y-99875806D01*
X216534729Y-99789116D01*
X216723082Y-99663263D01*
X216883263Y-99503082D01*
X217009116Y-99314729D01*
X217095806Y-99105443D01*
X217107410Y-99047103D01*
X217259873Y-99047103D01*
X217338338Y-99289568D01*
X217462598Y-99512066D01*
X217627878Y-99706047D01*
X217827826Y-99864056D01*
X218054758Y-99980021D01*
X218252897Y-100040124D01*
X218455000Y-99955129D01*
X218455000Y-98845000D01*
X218605000Y-98845000D01*
X218605000Y-99955129D01*
X218807103Y-100040124D01*
X219005242Y-99980021D01*
X219232174Y-99864056D01*
X219432122Y-99706047D01*
X219597402Y-99512066D01*
X219721662Y-99289568D01*
X219800127Y-99047103D01*
X219715338Y-98845000D01*
X218605000Y-98845000D01*
X218455000Y-98845000D01*
X217344662Y-98845000D01*
X217259873Y-99047103D01*
X217107410Y-99047103D01*
X217140000Y-98883265D01*
X217140000Y-98656735D01*
X217107411Y-98492897D01*
X217259873Y-98492897D01*
X217344662Y-98695000D01*
X218455000Y-98695000D01*
X218455000Y-97584871D01*
X218605000Y-97584871D01*
X218605000Y-98695000D01*
X219715338Y-98695000D01*
X219731391Y-98656735D01*
X219920000Y-98656735D01*
X219920000Y-98883265D01*
X219964194Y-99105443D01*
X220050884Y-99314729D01*
X220176737Y-99503082D01*
X220336918Y-99663263D01*
X220525271Y-99789116D01*
X220734557Y-99875806D01*
X220956735Y-99920000D01*
X221183265Y-99920000D01*
X221405443Y-99875806D01*
X221614729Y-99789116D01*
X221803082Y-99663263D01*
X221963263Y-99503082D01*
X222089116Y-99314729D01*
X222175806Y-99105443D01*
X222220000Y-98883265D01*
X222220000Y-98656735D01*
X222460000Y-98656735D01*
X222460000Y-98883265D01*
X222504194Y-99105443D01*
X222590884Y-99314729D01*
X222716737Y-99503082D01*
X222876918Y-99663263D01*
X223065271Y-99789116D01*
X223274557Y-99875806D01*
X223496735Y-99920000D01*
X223723265Y-99920000D01*
X223945443Y-99875806D01*
X224154729Y-99789116D01*
X224343082Y-99663263D01*
X224503263Y-99503082D01*
X224629116Y-99314729D01*
X224715806Y-99105443D01*
X224760000Y-98883265D01*
X224760000Y-98656735D01*
X225000000Y-98656735D01*
X225000000Y-98883265D01*
X225044194Y-99105443D01*
X225130884Y-99314729D01*
X225256737Y-99503082D01*
X225416918Y-99663263D01*
X225605271Y-99789116D01*
X225814557Y-99875806D01*
X226036735Y-99920000D01*
X226263265Y-99920000D01*
X226485443Y-99875806D01*
X226694729Y-99789116D01*
X226883082Y-99663263D01*
X227043263Y-99503082D01*
X227169116Y-99314729D01*
X227255806Y-99105443D01*
X227300000Y-98883265D01*
X227300000Y-98656735D01*
X227540000Y-98656735D01*
X227540000Y-98883265D01*
X227584194Y-99105443D01*
X227670884Y-99314729D01*
X227796737Y-99503082D01*
X227956918Y-99663263D01*
X228145271Y-99789116D01*
X228354557Y-99875806D01*
X228576735Y-99920000D01*
X228803265Y-99920000D01*
X229025443Y-99875806D01*
X229234729Y-99789116D01*
X229423082Y-99663263D01*
X229583263Y-99503082D01*
X229709116Y-99314729D01*
X229795806Y-99105443D01*
X229840000Y-98883265D01*
X229840000Y-98656735D01*
X230080000Y-98656735D01*
X230080000Y-98883265D01*
X230124194Y-99105443D01*
X230210884Y-99314729D01*
X230336737Y-99503082D01*
X230496918Y-99663263D01*
X230685271Y-99789116D01*
X230894557Y-99875806D01*
X231116735Y-99920000D01*
X231343265Y-99920000D01*
X231565443Y-99875806D01*
X231774729Y-99789116D01*
X231963082Y-99663263D01*
X232123263Y-99503082D01*
X232249116Y-99314729D01*
X232335806Y-99105443D01*
X232380000Y-98883265D01*
X232380000Y-98656735D01*
X232620000Y-98656735D01*
X232620000Y-98883265D01*
X232664194Y-99105443D01*
X232750884Y-99314729D01*
X232876737Y-99503082D01*
X233036918Y-99663263D01*
X233225271Y-99789116D01*
X233434557Y-99875806D01*
X233656735Y-99920000D01*
X233883265Y-99920000D01*
X234105443Y-99875806D01*
X234314729Y-99789116D01*
X234503082Y-99663263D01*
X234663263Y-99503082D01*
X234789116Y-99314729D01*
X234875806Y-99105443D01*
X234920000Y-98883265D01*
X234920000Y-98656735D01*
X235160000Y-98656735D01*
X235160000Y-98883265D01*
X235204194Y-99105443D01*
X235290884Y-99314729D01*
X235416737Y-99503082D01*
X235576918Y-99663263D01*
X235765271Y-99789116D01*
X235974557Y-99875806D01*
X236196735Y-99920000D01*
X236423265Y-99920000D01*
X236645443Y-99875806D01*
X236854729Y-99789116D01*
X237043082Y-99663263D01*
X237203263Y-99503082D01*
X237329116Y-99314729D01*
X237415806Y-99105443D01*
X237427410Y-99047103D01*
X237579873Y-99047103D01*
X237658338Y-99289568D01*
X237782598Y-99512066D01*
X237947878Y-99706047D01*
X238147826Y-99864056D01*
X238374758Y-99980021D01*
X238572897Y-100040124D01*
X238775000Y-99955129D01*
X238775000Y-98845000D01*
X238925000Y-98845000D01*
X238925000Y-99955129D01*
X239127103Y-100040124D01*
X239325242Y-99980021D01*
X239552174Y-99864056D01*
X239752122Y-99706047D01*
X239917402Y-99512066D01*
X240041662Y-99289568D01*
X240120127Y-99047103D01*
X240035338Y-98845000D01*
X238925000Y-98845000D01*
X238775000Y-98845000D01*
X237664662Y-98845000D01*
X237579873Y-99047103D01*
X237427410Y-99047103D01*
X237460000Y-98883265D01*
X237460000Y-98656735D01*
X237427411Y-98492897D01*
X237579873Y-98492897D01*
X237664662Y-98695000D01*
X238775000Y-98695000D01*
X238775000Y-97584871D01*
X238925000Y-97584871D01*
X238925000Y-98695000D01*
X240035338Y-98695000D01*
X240051391Y-98656735D01*
X240240000Y-98656735D01*
X240240000Y-98883265D01*
X240284194Y-99105443D01*
X240370884Y-99314729D01*
X240496737Y-99503082D01*
X240656918Y-99663263D01*
X240845271Y-99789116D01*
X241054557Y-99875806D01*
X241276735Y-99920000D01*
X241503265Y-99920000D01*
X241725443Y-99875806D01*
X241925726Y-99792845D01*
X241880359Y-99860742D01*
X241823822Y-99997233D01*
X241795000Y-100142131D01*
X241795000Y-100289869D01*
X241823822Y-100434767D01*
X241880359Y-100571258D01*
X241962437Y-100694097D01*
X242066903Y-100798563D01*
X242189742Y-100880641D01*
X242326233Y-100937178D01*
X242471131Y-100966000D01*
X242605387Y-100966000D01*
X242585822Y-101013233D01*
X242557000Y-101158131D01*
X242557000Y-101305869D01*
X242585822Y-101450767D01*
X242642359Y-101587258D01*
X242724437Y-101710097D01*
X242828903Y-101814563D01*
X242951742Y-101896641D01*
X243088233Y-101953178D01*
X243233131Y-101982000D01*
X243380869Y-101982000D01*
X243525767Y-101953178D01*
X243662258Y-101896641D01*
X243785097Y-101814563D01*
X243889563Y-101710097D01*
X243923705Y-101659000D01*
X243987033Y-101659000D01*
X244008000Y-101661065D01*
X244028967Y-101659000D01*
X244028978Y-101659000D01*
X244091707Y-101652822D01*
X244172196Y-101628405D01*
X244246376Y-101588755D01*
X244311395Y-101535395D01*
X244324768Y-101519100D01*
X246016828Y-99827041D01*
X246134557Y-99875806D01*
X246356735Y-99920000D01*
X246583265Y-99920000D01*
X246805443Y-99875806D01*
X247014729Y-99789116D01*
X247203082Y-99663263D01*
X247363263Y-99503082D01*
X247489116Y-99314729D01*
X247575806Y-99105443D01*
X247620000Y-98883265D01*
X247620000Y-98656735D01*
X247575806Y-98434557D01*
X247489116Y-98225271D01*
X247363263Y-98036918D01*
X247203082Y-97876737D01*
X247139123Y-97834001D01*
X248340877Y-97834001D01*
X248276918Y-97876737D01*
X248116737Y-98036918D01*
X247990884Y-98225271D01*
X247904194Y-98434557D01*
X247860000Y-98656735D01*
X247860000Y-98883265D01*
X247904194Y-99105443D01*
X247952959Y-99223171D01*
X244974132Y-102202000D01*
X243034705Y-102202000D01*
X243000563Y-102150903D01*
X242896097Y-102046437D01*
X242773258Y-101964359D01*
X242636767Y-101907822D01*
X242491869Y-101879000D01*
X242344131Y-101879000D01*
X242199233Y-101907822D01*
X242062742Y-101964359D01*
X241939903Y-102046437D01*
X241835437Y-102150903D01*
X241753359Y-102273742D01*
X241696822Y-102410233D01*
X241668000Y-102555131D01*
X241668000Y-102702869D01*
X241696822Y-102847767D01*
X241753359Y-102984258D01*
X241835437Y-103107097D01*
X241939903Y-103211563D01*
X242062742Y-103293641D01*
X242199233Y-103350178D01*
X242344131Y-103379000D01*
X242491869Y-103379000D01*
X242636767Y-103350178D01*
X242773258Y-103293641D01*
X242896097Y-103211563D01*
X243000563Y-103107097D01*
X243034705Y-103056000D01*
X245130033Y-103056000D01*
X245151000Y-103058065D01*
X245171967Y-103056000D01*
X245171978Y-103056000D01*
X245234707Y-103049822D01*
X245315196Y-103025405D01*
X245389376Y-102985755D01*
X245454395Y-102932395D01*
X245467768Y-102916100D01*
X248556829Y-99827041D01*
X248674557Y-99875806D01*
X248896735Y-99920000D01*
X249123265Y-99920000D01*
X249345443Y-99875806D01*
X249554729Y-99789116D01*
X249743082Y-99663263D01*
X249903263Y-99503082D01*
X250029116Y-99314729D01*
X250115806Y-99105443D01*
X250160000Y-98883265D01*
X250160000Y-98656735D01*
X250400000Y-98656735D01*
X250400000Y-98883265D01*
X250444194Y-99105443D01*
X250530884Y-99314729D01*
X250656737Y-99503082D01*
X250816918Y-99663263D01*
X251005271Y-99789116D01*
X251214557Y-99875806D01*
X251436735Y-99920000D01*
X251663265Y-99920000D01*
X251885443Y-99875806D01*
X252094729Y-99789116D01*
X252283082Y-99663263D01*
X252443263Y-99503082D01*
X252569116Y-99314729D01*
X252655806Y-99105443D01*
X252700000Y-98883265D01*
X252700000Y-98656735D01*
X252940000Y-98656735D01*
X252940000Y-98883265D01*
X252984194Y-99105443D01*
X253070884Y-99314729D01*
X253196737Y-99503082D01*
X253356918Y-99663263D01*
X253545271Y-99789116D01*
X253754557Y-99875806D01*
X253976735Y-99920000D01*
X254203265Y-99920000D01*
X254425443Y-99875806D01*
X254634729Y-99789116D01*
X254823082Y-99663263D01*
X254983263Y-99503082D01*
X255109116Y-99314729D01*
X255195806Y-99105443D01*
X255207410Y-99047103D01*
X255359873Y-99047103D01*
X255438338Y-99289568D01*
X255562598Y-99512066D01*
X255727878Y-99706047D01*
X255927826Y-99864056D01*
X256154758Y-99980021D01*
X256352897Y-100040124D01*
X256555000Y-99955129D01*
X256555000Y-98845000D01*
X256705000Y-98845000D01*
X256705000Y-99955129D01*
X256907103Y-100040124D01*
X257105242Y-99980021D01*
X257332174Y-99864056D01*
X257532122Y-99706047D01*
X257697402Y-99512066D01*
X257821662Y-99289568D01*
X257900127Y-99047103D01*
X257815338Y-98845000D01*
X256705000Y-98845000D01*
X256555000Y-98845000D01*
X255444662Y-98845000D01*
X255359873Y-99047103D01*
X255207410Y-99047103D01*
X255240000Y-98883265D01*
X255240000Y-98656735D01*
X255207411Y-98492897D01*
X255359873Y-98492897D01*
X255444662Y-98695000D01*
X256555000Y-98695000D01*
X256555000Y-97584871D01*
X256705000Y-97584871D01*
X256705000Y-98695000D01*
X257815338Y-98695000D01*
X257900127Y-98492897D01*
X257821662Y-98250432D01*
X257697402Y-98027934D01*
X257532122Y-97833953D01*
X257332174Y-97675944D01*
X257105242Y-97559979D01*
X256907103Y-97499876D01*
X256705000Y-97584871D01*
X256555000Y-97584871D01*
X256352897Y-97499876D01*
X256154758Y-97559979D01*
X255927826Y-97675944D01*
X255727878Y-97833953D01*
X255562598Y-98027934D01*
X255438338Y-98250432D01*
X255359873Y-98492897D01*
X255207411Y-98492897D01*
X255195806Y-98434557D01*
X255109116Y-98225271D01*
X254983263Y-98036918D01*
X254823082Y-97876737D01*
X254634729Y-97750884D01*
X254425443Y-97664194D01*
X254203265Y-97620000D01*
X253976735Y-97620000D01*
X253754557Y-97664194D01*
X253545271Y-97750884D01*
X253356918Y-97876737D01*
X253196737Y-98036918D01*
X253070884Y-98225271D01*
X252984194Y-98434557D01*
X252940000Y-98656735D01*
X252700000Y-98656735D01*
X252655806Y-98434557D01*
X252569116Y-98225271D01*
X252443263Y-98036918D01*
X252283082Y-97876737D01*
X252094729Y-97750884D01*
X251885443Y-97664194D01*
X251663265Y-97620000D01*
X251436735Y-97620000D01*
X251214557Y-97664194D01*
X251005271Y-97750884D01*
X250816918Y-97876737D01*
X250656737Y-98036918D01*
X250530884Y-98225271D01*
X250444194Y-98434557D01*
X250400000Y-98656735D01*
X250160000Y-98656735D01*
X250115806Y-98434557D01*
X250029116Y-98225271D01*
X249903263Y-98036918D01*
X249743082Y-97876737D01*
X249679123Y-97834001D01*
X250352032Y-97834001D01*
X250372999Y-97836066D01*
X250393966Y-97834001D01*
X250393977Y-97834001D01*
X250456706Y-97827823D01*
X250537195Y-97803406D01*
X250611375Y-97763756D01*
X250676394Y-97710396D01*
X250689767Y-97694101D01*
X251096828Y-97287040D01*
X251214557Y-97335806D01*
X251436735Y-97380000D01*
X251663265Y-97380000D01*
X251885443Y-97335806D01*
X252094729Y-97249116D01*
X252283082Y-97123263D01*
X252443263Y-96963082D01*
X252569116Y-96774729D01*
X252655806Y-96565443D01*
X252700000Y-96343265D01*
X252700000Y-96116735D01*
X252940000Y-96116735D01*
X252940000Y-96343265D01*
X252984194Y-96565443D01*
X253070884Y-96774729D01*
X253196737Y-96963082D01*
X253356918Y-97123263D01*
X253545271Y-97249116D01*
X253754557Y-97335806D01*
X253976735Y-97380000D01*
X254203265Y-97380000D01*
X254425443Y-97335806D01*
X254634729Y-97249116D01*
X254823082Y-97123263D01*
X254983263Y-96963082D01*
X255109116Y-96774729D01*
X255195806Y-96565443D01*
X255240000Y-96343265D01*
X255240000Y-96116735D01*
X255480000Y-96116735D01*
X255480000Y-96343265D01*
X255524194Y-96565443D01*
X255610884Y-96774729D01*
X255736737Y-96963082D01*
X255896918Y-97123263D01*
X256085271Y-97249116D01*
X256294557Y-97335806D01*
X256516735Y-97380000D01*
X256743265Y-97380000D01*
X256956981Y-97337489D01*
X259850000Y-97337489D01*
X259850000Y-97662511D01*
X259913408Y-97981287D01*
X260037789Y-98281568D01*
X260218361Y-98551814D01*
X260448186Y-98781639D01*
X260718432Y-98962211D01*
X261018713Y-99086592D01*
X261337489Y-99150000D01*
X261662511Y-99150000D01*
X261981287Y-99086592D01*
X262281568Y-98962211D01*
X262551814Y-98781639D01*
X262781639Y-98551814D01*
X262962211Y-98281568D01*
X263086592Y-97981287D01*
X263150000Y-97662511D01*
X263150000Y-97337489D01*
X263086592Y-97018713D01*
X262962211Y-96718432D01*
X262781639Y-96448186D01*
X262551814Y-96218361D01*
X262281568Y-96037789D01*
X261981287Y-95913408D01*
X261662511Y-95850000D01*
X261337489Y-95850000D01*
X261018713Y-95913408D01*
X260718432Y-96037789D01*
X260448186Y-96218361D01*
X260218361Y-96448186D01*
X260037789Y-96718432D01*
X259913408Y-97018713D01*
X259850000Y-97337489D01*
X256956981Y-97337489D01*
X256965443Y-97335806D01*
X257174729Y-97249116D01*
X257363082Y-97123263D01*
X257523263Y-96963082D01*
X257649116Y-96774729D01*
X257735806Y-96565443D01*
X257780000Y-96343265D01*
X257780000Y-96116735D01*
X257735806Y-95894557D01*
X257649116Y-95685271D01*
X257523263Y-95496918D01*
X257363082Y-95336737D01*
X257174729Y-95210884D01*
X256965443Y-95124194D01*
X256743265Y-95080000D01*
X256516735Y-95080000D01*
X256294557Y-95124194D01*
X256085271Y-95210884D01*
X255896918Y-95336737D01*
X255736737Y-95496918D01*
X255610884Y-95685271D01*
X255524194Y-95894557D01*
X255480000Y-96116735D01*
X255240000Y-96116735D01*
X255195806Y-95894557D01*
X255109116Y-95685271D01*
X254983263Y-95496918D01*
X254823082Y-95336737D01*
X254634729Y-95210884D01*
X254425443Y-95124194D01*
X254203265Y-95080000D01*
X253976735Y-95080000D01*
X253754557Y-95124194D01*
X253545271Y-95210884D01*
X253356918Y-95336737D01*
X253196737Y-95496918D01*
X253070884Y-95685271D01*
X252984194Y-95894557D01*
X252940000Y-96116735D01*
X252700000Y-96116735D01*
X252655806Y-95894557D01*
X252569116Y-95685271D01*
X252443263Y-95496918D01*
X252283082Y-95336737D01*
X252094729Y-95210884D01*
X251885443Y-95124194D01*
X251663265Y-95080000D01*
X251436735Y-95080000D01*
X251214557Y-95124194D01*
X251005271Y-95210884D01*
X250816918Y-95336737D01*
X250656737Y-95496918D01*
X250530884Y-95685271D01*
X250444194Y-95894557D01*
X250400000Y-96116735D01*
X250400000Y-96343265D01*
X250444194Y-96565443D01*
X250492960Y-96683172D01*
X250196131Y-96980001D01*
X250070641Y-96980001D01*
X250077402Y-96972066D01*
X250201662Y-96749568D01*
X250280127Y-96507103D01*
X250195338Y-96305000D01*
X249085000Y-96305000D01*
X249085000Y-96325000D01*
X248935000Y-96325000D01*
X248935000Y-96305000D01*
X247824662Y-96305000D01*
X247739873Y-96507103D01*
X247818338Y-96749568D01*
X247942598Y-96972066D01*
X247949359Y-96980001D01*
X247346344Y-96980001D01*
X247363263Y-96963082D01*
X247489116Y-96774729D01*
X247575806Y-96565443D01*
X247620000Y-96343265D01*
X247620000Y-96116735D01*
X247587411Y-95952897D01*
X247739873Y-95952897D01*
X247824662Y-96155000D01*
X248935000Y-96155000D01*
X248935000Y-95044871D01*
X249085000Y-95044871D01*
X249085000Y-96155000D01*
X250195338Y-96155000D01*
X250280127Y-95952897D01*
X250201662Y-95710432D01*
X250077402Y-95487934D01*
X249912122Y-95293953D01*
X249712174Y-95135944D01*
X249485242Y-95019979D01*
X249287103Y-94959876D01*
X249085000Y-95044871D01*
X248935000Y-95044871D01*
X248732897Y-94959876D01*
X248534758Y-95019979D01*
X248307826Y-95135944D01*
X248107878Y-95293953D01*
X247942598Y-95487934D01*
X247818338Y-95710432D01*
X247739873Y-95952897D01*
X247587411Y-95952897D01*
X247575806Y-95894557D01*
X247489116Y-95685271D01*
X247363263Y-95496918D01*
X247203082Y-95336737D01*
X247014729Y-95210884D01*
X246805443Y-95124194D01*
X246583265Y-95080000D01*
X246356735Y-95080000D01*
X246134557Y-95124194D01*
X245925271Y-95210884D01*
X245736918Y-95336737D01*
X245576737Y-95496918D01*
X245450884Y-95685271D01*
X245364194Y-95894557D01*
X245320000Y-96116735D01*
X245320000Y-96343265D01*
X245364194Y-96565443D01*
X245450884Y-96774729D01*
X245576737Y-96963082D01*
X245593656Y-96980001D01*
X244990641Y-96980001D01*
X244997402Y-96972066D01*
X245121662Y-96749568D01*
X245200127Y-96507103D01*
X245115338Y-96305000D01*
X244005000Y-96305000D01*
X244005000Y-96325000D01*
X243855000Y-96325000D01*
X243855000Y-96305000D01*
X242744662Y-96305000D01*
X242659873Y-96507103D01*
X242738338Y-96749568D01*
X242862598Y-96972066D01*
X243027878Y-97166047D01*
X243117387Y-97236781D01*
X242465894Y-97888276D01*
X242449605Y-97901644D01*
X242436236Y-97917934D01*
X242436231Y-97917939D01*
X242396244Y-97966663D01*
X242356595Y-98040843D01*
X242334516Y-98113624D01*
X242283263Y-98036918D01*
X242123082Y-97876737D01*
X241934729Y-97750884D01*
X241725443Y-97664194D01*
X241503265Y-97620000D01*
X241276735Y-97620000D01*
X241054557Y-97664194D01*
X240845271Y-97750884D01*
X240656918Y-97876737D01*
X240496737Y-98036918D01*
X240370884Y-98225271D01*
X240284194Y-98434557D01*
X240240000Y-98656735D01*
X240051391Y-98656735D01*
X240120127Y-98492897D01*
X240041662Y-98250432D01*
X239917402Y-98027934D01*
X239752122Y-97833953D01*
X239552174Y-97675944D01*
X239325242Y-97559979D01*
X239127103Y-97499876D01*
X238925000Y-97584871D01*
X238775000Y-97584871D01*
X238572897Y-97499876D01*
X238374758Y-97559979D01*
X238147826Y-97675944D01*
X237947878Y-97833953D01*
X237782598Y-98027934D01*
X237658338Y-98250432D01*
X237579873Y-98492897D01*
X237427411Y-98492897D01*
X237415806Y-98434557D01*
X237329116Y-98225271D01*
X237203263Y-98036918D01*
X237043082Y-97876737D01*
X236854729Y-97750884D01*
X236645443Y-97664194D01*
X236423265Y-97620000D01*
X236196735Y-97620000D01*
X235974557Y-97664194D01*
X235765271Y-97750884D01*
X235576918Y-97876737D01*
X235416737Y-98036918D01*
X235290884Y-98225271D01*
X235204194Y-98434557D01*
X235160000Y-98656735D01*
X234920000Y-98656735D01*
X234875806Y-98434557D01*
X234789116Y-98225271D01*
X234663263Y-98036918D01*
X234503082Y-97876737D01*
X234314729Y-97750884D01*
X234105443Y-97664194D01*
X233883265Y-97620000D01*
X233656735Y-97620000D01*
X233434557Y-97664194D01*
X233225271Y-97750884D01*
X233036918Y-97876737D01*
X232876737Y-98036918D01*
X232750884Y-98225271D01*
X232664194Y-98434557D01*
X232620000Y-98656735D01*
X232380000Y-98656735D01*
X232335806Y-98434557D01*
X232249116Y-98225271D01*
X232123263Y-98036918D01*
X231963082Y-97876737D01*
X231774729Y-97750884D01*
X231565443Y-97664194D01*
X231343265Y-97620000D01*
X231116735Y-97620000D01*
X230894557Y-97664194D01*
X230685271Y-97750884D01*
X230496918Y-97876737D01*
X230336737Y-98036918D01*
X230210884Y-98225271D01*
X230124194Y-98434557D01*
X230080000Y-98656735D01*
X229840000Y-98656735D01*
X229795806Y-98434557D01*
X229709116Y-98225271D01*
X229583263Y-98036918D01*
X229423082Y-97876737D01*
X229234729Y-97750884D01*
X229025443Y-97664194D01*
X228803265Y-97620000D01*
X228576735Y-97620000D01*
X228354557Y-97664194D01*
X228145271Y-97750884D01*
X227956918Y-97876737D01*
X227796737Y-98036918D01*
X227670884Y-98225271D01*
X227584194Y-98434557D01*
X227540000Y-98656735D01*
X227300000Y-98656735D01*
X227255806Y-98434557D01*
X227169116Y-98225271D01*
X227043263Y-98036918D01*
X226883082Y-97876737D01*
X226694729Y-97750884D01*
X226485443Y-97664194D01*
X226263265Y-97620000D01*
X226036735Y-97620000D01*
X225814557Y-97664194D01*
X225605271Y-97750884D01*
X225416918Y-97876737D01*
X225256737Y-98036918D01*
X225130884Y-98225271D01*
X225044194Y-98434557D01*
X225000000Y-98656735D01*
X224760000Y-98656735D01*
X224715806Y-98434557D01*
X224629116Y-98225271D01*
X224503263Y-98036918D01*
X224343082Y-97876737D01*
X224154729Y-97750884D01*
X223945443Y-97664194D01*
X223723265Y-97620000D01*
X223496735Y-97620000D01*
X223274557Y-97664194D01*
X223065271Y-97750884D01*
X222876918Y-97876737D01*
X222716737Y-98036918D01*
X222590884Y-98225271D01*
X222504194Y-98434557D01*
X222460000Y-98656735D01*
X222220000Y-98656735D01*
X222175806Y-98434557D01*
X222089116Y-98225271D01*
X221963263Y-98036918D01*
X221803082Y-97876737D01*
X221614729Y-97750884D01*
X221405443Y-97664194D01*
X221183265Y-97620000D01*
X220956735Y-97620000D01*
X220734557Y-97664194D01*
X220525271Y-97750884D01*
X220336918Y-97876737D01*
X220176737Y-98036918D01*
X220050884Y-98225271D01*
X219964194Y-98434557D01*
X219920000Y-98656735D01*
X219731391Y-98656735D01*
X219800127Y-98492897D01*
X219721662Y-98250432D01*
X219597402Y-98027934D01*
X219432122Y-97833953D01*
X219232174Y-97675944D01*
X219005242Y-97559979D01*
X218807103Y-97499876D01*
X218605000Y-97584871D01*
X218455000Y-97584871D01*
X218252897Y-97499876D01*
X218054758Y-97559979D01*
X217827826Y-97675944D01*
X217627878Y-97833953D01*
X217462598Y-98027934D01*
X217338338Y-98250432D01*
X217259873Y-98492897D01*
X217107411Y-98492897D01*
X217095806Y-98434557D01*
X217009116Y-98225271D01*
X216883263Y-98036918D01*
X216723082Y-97876737D01*
X216534729Y-97750884D01*
X216325443Y-97664194D01*
X216103265Y-97620000D01*
X215876735Y-97620000D01*
X215654557Y-97664194D01*
X215445271Y-97750884D01*
X215256918Y-97876737D01*
X215096737Y-98036918D01*
X214970884Y-98225271D01*
X214884194Y-98434557D01*
X214840000Y-98656735D01*
X214600000Y-98656735D01*
X214555806Y-98434557D01*
X214469116Y-98225271D01*
X214343263Y-98036918D01*
X214183082Y-97876737D01*
X213994729Y-97750884D01*
X213785443Y-97664194D01*
X213563265Y-97620000D01*
X213336735Y-97620000D01*
X213114557Y-97664194D01*
X212905271Y-97750884D01*
X212716918Y-97876737D01*
X212556737Y-98036918D01*
X212430884Y-98225271D01*
X212344194Y-98434557D01*
X212300000Y-98656735D01*
X212060000Y-98656735D01*
X212015806Y-98434557D01*
X211929116Y-98225271D01*
X211803263Y-98036918D01*
X211643082Y-97876737D01*
X211454729Y-97750884D01*
X211245443Y-97664194D01*
X211023265Y-97620000D01*
X210796735Y-97620000D01*
X210574557Y-97664194D01*
X210365271Y-97750884D01*
X210176918Y-97876737D01*
X210016737Y-98036918D01*
X209890884Y-98225271D01*
X209804194Y-98434557D01*
X209760000Y-98656735D01*
X209521451Y-98656735D01*
X209521451Y-97920000D01*
X209515659Y-97861190D01*
X209498504Y-97804640D01*
X209470647Y-97752523D01*
X209433158Y-97706842D01*
X209387477Y-97669353D01*
X209335360Y-97641496D01*
X209278810Y-97624341D01*
X209220000Y-97618549D01*
X207520000Y-97618549D01*
X207461190Y-97624341D01*
X207404640Y-97641496D01*
X207352523Y-97669353D01*
X207306842Y-97706842D01*
X207269353Y-97752523D01*
X207241496Y-97804640D01*
X207224341Y-97861190D01*
X207218549Y-97920000D01*
X205098782Y-97920000D01*
X205150000Y-97662511D01*
X205150000Y-97337489D01*
X205086592Y-97018713D01*
X204962211Y-96718432D01*
X204781639Y-96448186D01*
X204551814Y-96218361D01*
X204399720Y-96116735D01*
X207220000Y-96116735D01*
X207220000Y-96343265D01*
X207264194Y-96565443D01*
X207350884Y-96774729D01*
X207476737Y-96963082D01*
X207636918Y-97123263D01*
X207825271Y-97249116D01*
X208034557Y-97335806D01*
X208256735Y-97380000D01*
X208483265Y-97380000D01*
X208705443Y-97335806D01*
X208914729Y-97249116D01*
X209103082Y-97123263D01*
X209263263Y-96963082D01*
X209389116Y-96774729D01*
X209475806Y-96565443D01*
X209520000Y-96343265D01*
X209520000Y-96116735D01*
X209760000Y-96116735D01*
X209760000Y-96343265D01*
X209804194Y-96565443D01*
X209890884Y-96774729D01*
X210016737Y-96963082D01*
X210176918Y-97123263D01*
X210365271Y-97249116D01*
X210574557Y-97335806D01*
X210796735Y-97380000D01*
X211023265Y-97380000D01*
X211245443Y-97335806D01*
X211454729Y-97249116D01*
X211643082Y-97123263D01*
X211803263Y-96963082D01*
X211929116Y-96774729D01*
X212015806Y-96565443D01*
X212027410Y-96507103D01*
X212179873Y-96507103D01*
X212258338Y-96749568D01*
X212382598Y-96972066D01*
X212547878Y-97166047D01*
X212747826Y-97324056D01*
X212974758Y-97440021D01*
X213172897Y-97500124D01*
X213375000Y-97415129D01*
X213375000Y-96305000D01*
X213525000Y-96305000D01*
X213525000Y-97415129D01*
X213727103Y-97500124D01*
X213925242Y-97440021D01*
X214152174Y-97324056D01*
X214352122Y-97166047D01*
X214517402Y-96972066D01*
X214641662Y-96749568D01*
X214720127Y-96507103D01*
X214635338Y-96305000D01*
X213525000Y-96305000D01*
X213375000Y-96305000D01*
X212264662Y-96305000D01*
X212179873Y-96507103D01*
X212027410Y-96507103D01*
X212060000Y-96343265D01*
X212060000Y-96116735D01*
X212027411Y-95952897D01*
X212179873Y-95952897D01*
X212264662Y-96155000D01*
X213375000Y-96155000D01*
X213375000Y-95044871D01*
X213525000Y-95044871D01*
X213525000Y-96155000D01*
X214635338Y-96155000D01*
X214651391Y-96116735D01*
X214840000Y-96116735D01*
X214840000Y-96343265D01*
X214884194Y-96565443D01*
X214970884Y-96774729D01*
X215096737Y-96963082D01*
X215256918Y-97123263D01*
X215445271Y-97249116D01*
X215654557Y-97335806D01*
X215876735Y-97380000D01*
X216103265Y-97380000D01*
X216325443Y-97335806D01*
X216534729Y-97249116D01*
X216723082Y-97123263D01*
X216883263Y-96963082D01*
X217009116Y-96774729D01*
X217095806Y-96565443D01*
X217140000Y-96343265D01*
X217140000Y-96116735D01*
X217380000Y-96116735D01*
X217380000Y-96343265D01*
X217424194Y-96565443D01*
X217510884Y-96774729D01*
X217636737Y-96963082D01*
X217796918Y-97123263D01*
X217985271Y-97249116D01*
X218194557Y-97335806D01*
X218416735Y-97380000D01*
X218643265Y-97380000D01*
X218865443Y-97335806D01*
X219074729Y-97249116D01*
X219263082Y-97123263D01*
X219423263Y-96963082D01*
X219549116Y-96774729D01*
X219635806Y-96565443D01*
X219680000Y-96343265D01*
X219680000Y-96116735D01*
X219920000Y-96116735D01*
X219920000Y-96343265D01*
X219964194Y-96565443D01*
X220050884Y-96774729D01*
X220176737Y-96963082D01*
X220336918Y-97123263D01*
X220525271Y-97249116D01*
X220734557Y-97335806D01*
X220956735Y-97380000D01*
X221183265Y-97380000D01*
X221405443Y-97335806D01*
X221614729Y-97249116D01*
X221803082Y-97123263D01*
X221963263Y-96963082D01*
X222089116Y-96774729D01*
X222175806Y-96565443D01*
X222187410Y-96507103D01*
X222339873Y-96507103D01*
X222418338Y-96749568D01*
X222542598Y-96972066D01*
X222707878Y-97166047D01*
X222907826Y-97324056D01*
X223134758Y-97440021D01*
X223332897Y-97500124D01*
X223535000Y-97415129D01*
X223535000Y-96305000D01*
X223685000Y-96305000D01*
X223685000Y-97415129D01*
X223887103Y-97500124D01*
X224085242Y-97440021D01*
X224312174Y-97324056D01*
X224512122Y-97166047D01*
X224677402Y-96972066D01*
X224801662Y-96749568D01*
X224880127Y-96507103D01*
X224795338Y-96305000D01*
X223685000Y-96305000D01*
X223535000Y-96305000D01*
X222424662Y-96305000D01*
X222339873Y-96507103D01*
X222187410Y-96507103D01*
X222220000Y-96343265D01*
X222220000Y-96116735D01*
X222187411Y-95952897D01*
X222339873Y-95952897D01*
X222424662Y-96155000D01*
X223535000Y-96155000D01*
X223535000Y-95044871D01*
X223685000Y-95044871D01*
X223685000Y-96155000D01*
X224795338Y-96155000D01*
X224811391Y-96116735D01*
X225000000Y-96116735D01*
X225000000Y-96343265D01*
X225044194Y-96565443D01*
X225130884Y-96774729D01*
X225256737Y-96963082D01*
X225416918Y-97123263D01*
X225605271Y-97249116D01*
X225814557Y-97335806D01*
X226036735Y-97380000D01*
X226263265Y-97380000D01*
X226485443Y-97335806D01*
X226694729Y-97249116D01*
X226883082Y-97123263D01*
X227043263Y-96963082D01*
X227169116Y-96774729D01*
X227255806Y-96565443D01*
X227300000Y-96343265D01*
X227300000Y-96116735D01*
X227540000Y-96116735D01*
X227540000Y-96343265D01*
X227584194Y-96565443D01*
X227670884Y-96774729D01*
X227796737Y-96963082D01*
X227956918Y-97123263D01*
X228145271Y-97249116D01*
X228354557Y-97335806D01*
X228576735Y-97380000D01*
X228803265Y-97380000D01*
X229025443Y-97335806D01*
X229234729Y-97249116D01*
X229423082Y-97123263D01*
X229583263Y-96963082D01*
X229709116Y-96774729D01*
X229795806Y-96565443D01*
X229807410Y-96507103D01*
X229959873Y-96507103D01*
X230038338Y-96749568D01*
X230162598Y-96972066D01*
X230327878Y-97166047D01*
X230527826Y-97324056D01*
X230754758Y-97440021D01*
X230952897Y-97500124D01*
X231155000Y-97415129D01*
X231155000Y-96305000D01*
X231305000Y-96305000D01*
X231305000Y-97415129D01*
X231507103Y-97500124D01*
X231705242Y-97440021D01*
X231932174Y-97324056D01*
X232132122Y-97166047D01*
X232297402Y-96972066D01*
X232421662Y-96749568D01*
X232500127Y-96507103D01*
X232415338Y-96305000D01*
X231305000Y-96305000D01*
X231155000Y-96305000D01*
X230044662Y-96305000D01*
X229959873Y-96507103D01*
X229807410Y-96507103D01*
X229840000Y-96343265D01*
X229840000Y-96116735D01*
X229807411Y-95952897D01*
X229959873Y-95952897D01*
X230044662Y-96155000D01*
X231155000Y-96155000D01*
X231155000Y-95044871D01*
X231305000Y-95044871D01*
X231305000Y-96155000D01*
X232415338Y-96155000D01*
X232431391Y-96116735D01*
X232620000Y-96116735D01*
X232620000Y-96343265D01*
X232664194Y-96565443D01*
X232750884Y-96774729D01*
X232876737Y-96963082D01*
X233036918Y-97123263D01*
X233225271Y-97249116D01*
X233434557Y-97335806D01*
X233656735Y-97380000D01*
X233883265Y-97380000D01*
X234105443Y-97335806D01*
X234314729Y-97249116D01*
X234503082Y-97123263D01*
X234663263Y-96963082D01*
X234789116Y-96774729D01*
X234875806Y-96565443D01*
X234920000Y-96343265D01*
X234920000Y-96116735D01*
X235160000Y-96116735D01*
X235160000Y-96343265D01*
X235204194Y-96565443D01*
X235290884Y-96774729D01*
X235416737Y-96963082D01*
X235576918Y-97123263D01*
X235765271Y-97249116D01*
X235974557Y-97335806D01*
X236196735Y-97380000D01*
X236423265Y-97380000D01*
X236645443Y-97335806D01*
X236854729Y-97249116D01*
X237043082Y-97123263D01*
X237203263Y-96963082D01*
X237329116Y-96774729D01*
X237415806Y-96565443D01*
X237460000Y-96343265D01*
X237460000Y-96116735D01*
X237700000Y-96116735D01*
X237700000Y-96343265D01*
X237744194Y-96565443D01*
X237830884Y-96774729D01*
X237956737Y-96963082D01*
X238116918Y-97123263D01*
X238305271Y-97249116D01*
X238514557Y-97335806D01*
X238736735Y-97380000D01*
X238963265Y-97380000D01*
X239185443Y-97335806D01*
X239394729Y-97249116D01*
X239583082Y-97123263D01*
X239743263Y-96963082D01*
X239869116Y-96774729D01*
X239955806Y-96565443D01*
X240000000Y-96343265D01*
X240000000Y-96116735D01*
X240240000Y-96116735D01*
X240240000Y-96343265D01*
X240284194Y-96565443D01*
X240370884Y-96774729D01*
X240496737Y-96963082D01*
X240656918Y-97123263D01*
X240845271Y-97249116D01*
X241054557Y-97335806D01*
X241276735Y-97380000D01*
X241503265Y-97380000D01*
X241725443Y-97335806D01*
X241934729Y-97249116D01*
X242123082Y-97123263D01*
X242283263Y-96963082D01*
X242409116Y-96774729D01*
X242495806Y-96565443D01*
X242540000Y-96343265D01*
X242540000Y-96116735D01*
X242507411Y-95952897D01*
X242659873Y-95952897D01*
X242744662Y-96155000D01*
X243855000Y-96155000D01*
X243855000Y-95044871D01*
X244005000Y-95044871D01*
X244005000Y-96155000D01*
X245115338Y-96155000D01*
X245200127Y-95952897D01*
X245121662Y-95710432D01*
X244997402Y-95487934D01*
X244832122Y-95293953D01*
X244632174Y-95135944D01*
X244405242Y-95019979D01*
X244207103Y-94959876D01*
X244005000Y-95044871D01*
X243855000Y-95044871D01*
X243652897Y-94959876D01*
X243454758Y-95019979D01*
X243227826Y-95135944D01*
X243027878Y-95293953D01*
X242862598Y-95487934D01*
X242738338Y-95710432D01*
X242659873Y-95952897D01*
X242507411Y-95952897D01*
X242495806Y-95894557D01*
X242409116Y-95685271D01*
X242283263Y-95496918D01*
X242123082Y-95336737D01*
X241934729Y-95210884D01*
X241725443Y-95124194D01*
X241503265Y-95080000D01*
X241276735Y-95080000D01*
X241054557Y-95124194D01*
X240845271Y-95210884D01*
X240656918Y-95336737D01*
X240496737Y-95496918D01*
X240370884Y-95685271D01*
X240284194Y-95894557D01*
X240240000Y-96116735D01*
X240000000Y-96116735D01*
X239955806Y-95894557D01*
X239869116Y-95685271D01*
X239743263Y-95496918D01*
X239583082Y-95336737D01*
X239394729Y-95210884D01*
X239185443Y-95124194D01*
X238963265Y-95080000D01*
X238736735Y-95080000D01*
X238514557Y-95124194D01*
X238305271Y-95210884D01*
X238116918Y-95336737D01*
X237956737Y-95496918D01*
X237830884Y-95685271D01*
X237744194Y-95894557D01*
X237700000Y-96116735D01*
X237460000Y-96116735D01*
X237415806Y-95894557D01*
X237329116Y-95685271D01*
X237203263Y-95496918D01*
X237043082Y-95336737D01*
X236854729Y-95210884D01*
X236645443Y-95124194D01*
X236423265Y-95080000D01*
X236196735Y-95080000D01*
X235974557Y-95124194D01*
X235765271Y-95210884D01*
X235576918Y-95336737D01*
X235416737Y-95496918D01*
X235290884Y-95685271D01*
X235204194Y-95894557D01*
X235160000Y-96116735D01*
X234920000Y-96116735D01*
X234875806Y-95894557D01*
X234789116Y-95685271D01*
X234663263Y-95496918D01*
X234503082Y-95336737D01*
X234314729Y-95210884D01*
X234105443Y-95124194D01*
X233883265Y-95080000D01*
X233656735Y-95080000D01*
X233434557Y-95124194D01*
X233225271Y-95210884D01*
X233036918Y-95336737D01*
X232876737Y-95496918D01*
X232750884Y-95685271D01*
X232664194Y-95894557D01*
X232620000Y-96116735D01*
X232431391Y-96116735D01*
X232500127Y-95952897D01*
X232421662Y-95710432D01*
X232297402Y-95487934D01*
X232132122Y-95293953D01*
X231932174Y-95135944D01*
X231705242Y-95019979D01*
X231507103Y-94959876D01*
X231305000Y-95044871D01*
X231155000Y-95044871D01*
X230952897Y-94959876D01*
X230754758Y-95019979D01*
X230527826Y-95135944D01*
X230327878Y-95293953D01*
X230162598Y-95487934D01*
X230038338Y-95710432D01*
X229959873Y-95952897D01*
X229807411Y-95952897D01*
X229795806Y-95894557D01*
X229709116Y-95685271D01*
X229583263Y-95496918D01*
X229423082Y-95336737D01*
X229234729Y-95210884D01*
X229025443Y-95124194D01*
X228803265Y-95080000D01*
X228576735Y-95080000D01*
X228354557Y-95124194D01*
X228145271Y-95210884D01*
X227956918Y-95336737D01*
X227796737Y-95496918D01*
X227670884Y-95685271D01*
X227584194Y-95894557D01*
X227540000Y-96116735D01*
X227300000Y-96116735D01*
X227255806Y-95894557D01*
X227169116Y-95685271D01*
X227043263Y-95496918D01*
X226883082Y-95336737D01*
X226694729Y-95210884D01*
X226485443Y-95124194D01*
X226263265Y-95080000D01*
X226036735Y-95080000D01*
X225814557Y-95124194D01*
X225605271Y-95210884D01*
X225416918Y-95336737D01*
X225256737Y-95496918D01*
X225130884Y-95685271D01*
X225044194Y-95894557D01*
X225000000Y-96116735D01*
X224811391Y-96116735D01*
X224880127Y-95952897D01*
X224801662Y-95710432D01*
X224677402Y-95487934D01*
X224512122Y-95293953D01*
X224312174Y-95135944D01*
X224085242Y-95019979D01*
X223887103Y-94959876D01*
X223685000Y-95044871D01*
X223535000Y-95044871D01*
X223332897Y-94959876D01*
X223134758Y-95019979D01*
X222907826Y-95135944D01*
X222707878Y-95293953D01*
X222542598Y-95487934D01*
X222418338Y-95710432D01*
X222339873Y-95952897D01*
X222187411Y-95952897D01*
X222175806Y-95894557D01*
X222089116Y-95685271D01*
X221963263Y-95496918D01*
X221803082Y-95336737D01*
X221614729Y-95210884D01*
X221405443Y-95124194D01*
X221183265Y-95080000D01*
X220956735Y-95080000D01*
X220734557Y-95124194D01*
X220525271Y-95210884D01*
X220336918Y-95336737D01*
X220176737Y-95496918D01*
X220050884Y-95685271D01*
X219964194Y-95894557D01*
X219920000Y-96116735D01*
X219680000Y-96116735D01*
X219635806Y-95894557D01*
X219549116Y-95685271D01*
X219423263Y-95496918D01*
X219263082Y-95336737D01*
X219074729Y-95210884D01*
X218865443Y-95124194D01*
X218643265Y-95080000D01*
X218416735Y-95080000D01*
X218194557Y-95124194D01*
X217985271Y-95210884D01*
X217796918Y-95336737D01*
X217636737Y-95496918D01*
X217510884Y-95685271D01*
X217424194Y-95894557D01*
X217380000Y-96116735D01*
X217140000Y-96116735D01*
X217095806Y-95894557D01*
X217009116Y-95685271D01*
X216883263Y-95496918D01*
X216723082Y-95336737D01*
X216534729Y-95210884D01*
X216325443Y-95124194D01*
X216103265Y-95080000D01*
X215876735Y-95080000D01*
X215654557Y-95124194D01*
X215445271Y-95210884D01*
X215256918Y-95336737D01*
X215096737Y-95496918D01*
X214970884Y-95685271D01*
X214884194Y-95894557D01*
X214840000Y-96116735D01*
X214651391Y-96116735D01*
X214720127Y-95952897D01*
X214641662Y-95710432D01*
X214517402Y-95487934D01*
X214352122Y-95293953D01*
X214152174Y-95135944D01*
X213925242Y-95019979D01*
X213727103Y-94959876D01*
X213525000Y-95044871D01*
X213375000Y-95044871D01*
X213172897Y-94959876D01*
X212974758Y-95019979D01*
X212747826Y-95135944D01*
X212547878Y-95293953D01*
X212382598Y-95487934D01*
X212258338Y-95710432D01*
X212179873Y-95952897D01*
X212027411Y-95952897D01*
X212015806Y-95894557D01*
X211929116Y-95685271D01*
X211803263Y-95496918D01*
X211643082Y-95336737D01*
X211454729Y-95210884D01*
X211245443Y-95124194D01*
X211023265Y-95080000D01*
X210796735Y-95080000D01*
X210574557Y-95124194D01*
X210365271Y-95210884D01*
X210176918Y-95336737D01*
X210016737Y-95496918D01*
X209890884Y-95685271D01*
X209804194Y-95894557D01*
X209760000Y-96116735D01*
X209520000Y-96116735D01*
X209475806Y-95894557D01*
X209389116Y-95685271D01*
X209263263Y-95496918D01*
X209103082Y-95336737D01*
X208914729Y-95210884D01*
X208705443Y-95124194D01*
X208483265Y-95080000D01*
X208256735Y-95080000D01*
X208034557Y-95124194D01*
X207825271Y-95210884D01*
X207636918Y-95336737D01*
X207476737Y-95496918D01*
X207350884Y-95685271D01*
X207264194Y-95894557D01*
X207220000Y-96116735D01*
X204399720Y-96116735D01*
X204281568Y-96037789D01*
X203981287Y-95913408D01*
X203662511Y-95850000D01*
X203337489Y-95850000D01*
X203018713Y-95913408D01*
X202718432Y-96037789D01*
X202448186Y-96218361D01*
X202218361Y-96448186D01*
X202037789Y-96718432D01*
X201913408Y-97018713D01*
X201850000Y-97337489D01*
X200735000Y-97337489D01*
X200735000Y-94855000D01*
X264035000Y-94855000D01*
X264035000Y-149265000D01*
M02*
