M48
; DRILL file {KiCad (5.1.6)-1} date 06/15/20 08:38:12
; FORMAT={-:-/ absolute / inch / decimal}
; #@! TF.CreationDate,2020-06-15T08:38:12-05:00
; #@! TF.GenerationSoftware,Kicad,Pcbnew,(5.1.6)-1
; #@! TF.FileFunction,Plated,1,2,PTH
FMAT,2
INCH
T1C0.0157
T2C0.0315
T3C0.0394
T4C0.0598
%
G90
G05
T1
X8.399Y-4.3105
X8.599Y-3.9705
X8.624Y-4.5555
X8.674Y-4.3305
X8.729Y-4.4555
X8.749Y-4.0105
X8.949Y-4.3055
X9.114Y-4.1805
X9.119Y-4.2705
X9.124Y-4.3555
X9.269Y-4.4055
X9.274Y-4.1505
X9.279Y-4.3605
X9.279Y-4.4555
X9.434Y-4.3555
X9.544Y-4.0405
X9.549Y-3.9455
X9.5684Y-4.3988
X9.579Y-3.9855
X9.6124Y-4.1539
X9.624Y-4.3655
X9.634Y-4.1955
X9.649Y-4.5355
X9.964Y-4.0555
X9.974Y-4.5055
X10.024Y-4.1555
X10.024Y-4.3455
X10.029Y-4.4005
X10.029Y-4.4755
X10.034Y-4.0805
X10.034Y-4.2305
T3
X8.2035Y-3.7886
X8.2035Y-3.8886
X8.3035Y-3.7886
X8.3035Y-3.8886
X8.4035Y-3.7886
X8.4035Y-3.8886
X8.5035Y-3.7886
X8.5035Y-3.8886
X8.6035Y-3.7886
X8.6035Y-3.8886
X8.7035Y-3.7886
X8.7035Y-3.8886
X8.8035Y-3.7886
X8.8035Y-3.8886
X8.9035Y-3.7886
X8.9035Y-3.8886
X9.0035Y-3.7886
X9.0035Y-3.8886
X9.1035Y-3.7886
X9.1035Y-3.8886
X9.2035Y-3.7886
X9.2035Y-3.8886
X9.3035Y-3.7886
X9.3035Y-3.8886
X9.4035Y-3.7886
X9.4035Y-3.8886
X9.5035Y-3.7886
X9.5035Y-3.8886
X9.6035Y-3.7886
X9.6035Y-3.8886
X9.7035Y-3.7886
X9.7035Y-3.8886
X9.8035Y-3.7886
X9.8035Y-3.8886
X9.9035Y-3.7886
X9.9035Y-3.8886
X10.0035Y-3.7886
X10.0035Y-3.8886
X10.1035Y-3.7886
X10.1035Y-3.8886
T4
X10.249Y-4.1805
X10.249Y-4.3805
X10.249Y-4.6805
X10.249Y-4.8805
X10.249Y-5.2055
X10.249Y-5.4055
T2
G00X8.5022Y-4.7724
M15
G01X8.5022Y-4.7449
M16
G05
G00X8.6852Y-4.9555
M15
G01X8.7128Y-4.9555
M16
G05
G00X8.8959Y-4.7724
M15
G01X8.8959Y-4.7449
M16
G05
T0
M30
