G04 #@! TF.GenerationSoftware,KiCad,Pcbnew,(5.1.6)-1*
G04 #@! TF.CreationDate,2020-06-15T08:38:09-05:00*
G04 #@! TF.ProjectId,RPi_MotorAudio_Board,5250695f-4d6f-4746-9f72-417564696f5f,rev?*
G04 #@! TF.SameCoordinates,Original*
G04 #@! TF.FileFunction,Soldermask,Top*
G04 #@! TF.FilePolarity,Negative*
%FSLAX46Y46*%
G04 Gerber Fmt 4.6, Leading zero omitted, Abs format (unit mm)*
G04 Created by KiCad (PCBNEW (5.1.6)-1) date 2020-06-15 08:38:09*
%MOMM*%
%LPD*%
G01*
G04 APERTURE LIST*
%ADD10R,3.100000X3.100000*%
%ADD11C,3.100000*%
%ADD12C,1.300000*%
%ADD13O,1.408000X2.716000*%
%ADD14O,2.716000X1.408000*%
%ADD15R,2.550000X2.550000*%
%ADD16R,0.370000X0.960000*%
%ADD17R,0.960000X0.370000*%
%ADD18R,0.550000X1.550000*%
%ADD19R,1.100000X3.300000*%
%ADD20R,0.850000X0.900000*%
%ADD21R,0.900000X0.850000*%
%ADD22C,2.800000*%
%ADD23R,3.600000X2.100000*%
%ADD24R,1.100000X1.350000*%
%ADD25R,1.350000X1.100000*%
%ADD26R,1.800000X1.800000*%
%ADD27O,1.800000X1.800000*%
G04 APERTURE END LIST*
D10*
X260325000Y-106185000D03*
D11*
X260325000Y-111265000D03*
D12*
X225955000Y-125870000D03*
X225955000Y-128370000D03*
X220955000Y-120870000D03*
X215955000Y-125870000D03*
X215955000Y-128370000D03*
D13*
X215955000Y-120870000D03*
X225955000Y-120870000D03*
D14*
X220955000Y-125870000D03*
D15*
X242545000Y-108725000D03*
D16*
X243795000Y-110660000D03*
X243295000Y-110660000D03*
X242795000Y-110660000D03*
X242295000Y-110660000D03*
X241795000Y-110660000D03*
X241295000Y-110660000D03*
D17*
X240610000Y-109975000D03*
X240610000Y-109475000D03*
X240610000Y-108975000D03*
X240610000Y-108475000D03*
X240610000Y-107975000D03*
X240610000Y-107475000D03*
D16*
X241295000Y-106790000D03*
X241795000Y-106790000D03*
X242295000Y-106790000D03*
X242795000Y-106790000D03*
X243295000Y-106790000D03*
X243795000Y-106790000D03*
D17*
X244480000Y-107475000D03*
X244480000Y-107975000D03*
X244480000Y-108475000D03*
X244480000Y-108975000D03*
X244480000Y-109475000D03*
X244480000Y-109975000D03*
D18*
X221930000Y-107160000D03*
X221280000Y-107160000D03*
X220630000Y-107160000D03*
X219980000Y-107160000D03*
X219980000Y-111560000D03*
X220630000Y-111560000D03*
X221280000Y-111560000D03*
X221930000Y-111560000D03*
D19*
X253265000Y-105550000D03*
X247065000Y-105550000D03*
X253265000Y-111900000D03*
X247065000Y-111900000D03*
D20*
X243815000Y-113690000D03*
X243815000Y-115190000D03*
X240005000Y-102895000D03*
X240005000Y-104395000D03*
X220320000Y-115825000D03*
X220320000Y-114325000D03*
D21*
X216395000Y-107455000D03*
X217895000Y-107455000D03*
X216395000Y-105550000D03*
X217895000Y-105550000D03*
X216395000Y-113805000D03*
X217895000Y-113805000D03*
X216395000Y-111900000D03*
X217895000Y-111900000D03*
D22*
X261500000Y-146500000D03*
X261500000Y-97500000D03*
X203500000Y-97500000D03*
D23*
X208255000Y-107709000D03*
X208255000Y-105185000D03*
X208255000Y-114694000D03*
X208255000Y-112170000D03*
D10*
X260325000Y-123965000D03*
D11*
X260325000Y-118885000D03*
D10*
X260325000Y-132220000D03*
D11*
X260325000Y-137300000D03*
D21*
X224015000Y-111900000D03*
X225515000Y-111900000D03*
X224015000Y-106820000D03*
X225515000Y-106820000D03*
X236715000Y-105550000D03*
X238215000Y-105550000D03*
X236715000Y-110630000D03*
X238215000Y-110630000D03*
D24*
X234655000Y-109360000D03*
X232655000Y-109360000D03*
D21*
X236715000Y-111900000D03*
X238215000Y-111900000D03*
D24*
X234655000Y-107455000D03*
X232655000Y-107455000D03*
D20*
X227305000Y-112015000D03*
X227305000Y-110515000D03*
X227305000Y-108205000D03*
X227305000Y-106705000D03*
D21*
X236715000Y-113170000D03*
X238215000Y-113170000D03*
X236715000Y-108090000D03*
X238215000Y-108090000D03*
X236715000Y-109360000D03*
X238215000Y-109360000D03*
D25*
X223495000Y-104645000D03*
X223495000Y-102645000D03*
D20*
X221590000Y-102895000D03*
X221590000Y-104395000D03*
X220320000Y-102895000D03*
X220320000Y-104395000D03*
X214605000Y-109475000D03*
X214605000Y-107975000D03*
X214605000Y-115825000D03*
X214605000Y-114325000D03*
D26*
X208370000Y-98770000D03*
D27*
X208370000Y-96230000D03*
X210910000Y-98770000D03*
X210910000Y-96230000D03*
X213450000Y-98770000D03*
X213450000Y-96230000D03*
X215990000Y-98770000D03*
X215990000Y-96230000D03*
X218530000Y-98770000D03*
X218530000Y-96230000D03*
X221070000Y-98770000D03*
X221070000Y-96230000D03*
X223610000Y-98770000D03*
X223610000Y-96230000D03*
X226150000Y-98770000D03*
X226150000Y-96230000D03*
X228690000Y-98770000D03*
X228690000Y-96230000D03*
X231230000Y-98770000D03*
X231230000Y-96230000D03*
X233770000Y-98770000D03*
X233770000Y-96230000D03*
X236310000Y-98770000D03*
X236310000Y-96230000D03*
X238850000Y-98770000D03*
X238850000Y-96230000D03*
X241390000Y-98770000D03*
X241390000Y-96230000D03*
X243930000Y-98770000D03*
X243930000Y-96230000D03*
X246470000Y-98770000D03*
X246470000Y-96230000D03*
X249010000Y-98770000D03*
X249010000Y-96230000D03*
X251550000Y-98770000D03*
X251550000Y-96230000D03*
X254090000Y-98770000D03*
X254090000Y-96230000D03*
X256630000Y-98770000D03*
X256630000Y-96230000D03*
M02*
